STARTFONT 2.1
COMMENT
COMMENT Converted from OpenType font "RobotoMono-SemiBold.ttf" by "otf2bdf 3.0".
COMMENT
FONT -FreeType-Roboto Mono SemiBold-Medium-R-Normal--22-160-100-100-P-111-ISO10646-1
SIZE 16 100 100
FONTBOUNDINGBOX 28 29 -11 -6
STARTPROPERTIES 19
FOUNDRY "FreeType"
FAMILY_NAME "Roboto Mono SemiBold"
WEIGHT_NAME "Medium"
SLANT "R"
SETWIDTH_NAME "Normal"
ADD_STYLE_NAME ""
PIXEL_SIZE 22
POINT_SIZE 160
RESOLUTION_X 100
RESOLUTION_Y 100
SPACING "P"
AVERAGE_WIDTH 111
CHARSET_REGISTRY "ISO10646"
CHARSET_ENCODING "1"
FONT_ASCENT 23
FONT_DESCENT 5
COPYRIGHT "Copyright 2015 The Roboto Mono Project Authors (https://github.com/googlefonts/robotomono)"
_OTF_FONTFILE "RobotoMono-SemiBold.ttf"
_OTF_PSNAME "RobotoMono-SemiBold"
ENDPROPERTIES
CHARS 876
STARTCHAR 000D
ENCODING 13
SWIDTH 585 0
DWIDTH 13 0
BBX 0 0 0 0
BITMAP
ENDCHAR
STARTCHAR 0020
ENCODING 32
SWIDTH 585 0
DWIDTH 13 0
BBX 0 0 0 0
BITMAP
ENDCHAR
STARTCHAR 0021
ENCODING 33
SWIDTH 585 0
DWIDTH 13 0
BBX 3 16 5 0
BITMAP
E0
E0
E0
E0
E0
E0
E0
E0
E0
E0
E0
00
00
E0
E0
E0
ENDCHAR
STARTCHAR 0022
ENCODING 34
SWIDTH 585 0
DWIDTH 13 0
BBX 7 6 3 11
BITMAP
CE
CE
CE
CC
CC
CC
ENDCHAR
STARTCHAR 0023
ENCODING 35
SWIDTH 585 0
DWIDTH 13 0
BBX 12 16 0 0
BITMAP
0660
0660
0460
0C40
0CC0
7FF0
7FF0
0CC0
08C0
1980
FFF0
FFF0
1980
1180
3100
3300
ENDCHAR
STARTCHAR 0024
ENCODING 36
SWIDTH 585 0
DWIDTH 13 0
BBX 11 20 1 -2
BITMAP
0600
0600
0F00
3FC0
79C0
70E0
70E0
7000
7800
3F00
0FC0
03C0
00E0
E0E0
60E0
70E0
3FC0
1F80
0600
0600
ENDCHAR
STARTCHAR 0025
ENCODING 37
SWIDTH 585 0
DWIDTH 13 0
BBX 13 16 0 0
BITMAP
3800
7C00
CC40
C4C0
CCC0
7D80
3900
0300
0200
0660
0DF0
0D98
1998
0998
01B8
00F0
ENDCHAR
STARTCHAR 0026
ENCODING 38
SWIDTH 585 0
DWIDTH 13 0
BBX 12 16 1 0
BITMAP
0E00
3F00
3B80
7180
7180
3300
3F00
1C00
3C70
7E70
E770
E3E0
E3E0
E1C0
7FE0
3F70
ENDCHAR
STARTCHAR 0027
ENCODING 39
SWIDTH 585 0
DWIDTH 13 0
BBX 2 6 5 11
BITMAP
C0
C0
C0
C0
C0
C0
ENDCHAR
STARTCHAR 0028
ENCODING 40
SWIDTH 585 0
DWIDTH 13 0
BBX 6 22 4 -5
BITMAP
08
1C
30
70
60
60
E0
C0
C0
C0
C0
C0
C0
C0
C0
E0
60
60
30
38
1C
08
ENDCHAR
STARTCHAR 0029
ENCODING 41
SWIDTH 585 0
DWIDTH 13 0
BBX 6 22 3 -5
BITMAP
C0
60
30
38
18
1C
1C
0C
0C
0C
0C
0C
0C
0C
0C
1C
18
18
30
70
E0
40
ENDCHAR
STARTCHAR 002A
ENCODING 42
SWIDTH 585 0
DWIDTH 13 0
BBX 11 11 2 5
BITMAP
0C00
0C00
0C00
8C40
EDC0
FFE0
0C00
1E00
3300
7380
2100
ENDCHAR
STARTCHAR 002B
ENCODING 43
SWIDTH 585 0
DWIDTH 13 0
BBX 11 11 1 2
BITMAP
0E00
0E00
0E00
0E00
FFE0
FFE0
FFE0
0E00
0E00
0E00
0E00
ENDCHAR
STARTCHAR 002C
ENCODING 44
SWIDTH 585 0
DWIDTH 13 0
BBX 3 7 4 -4
BITMAP
60
60
60
60
60
E0
C0
ENDCHAR
STARTCHAR 002D
ENCODING 45
SWIDTH 585 0
DWIDTH 13 0
BBX 9 2 3 6
BITMAP
FF80
FF80
ENDCHAR
STARTCHAR 002E
ENCODING 46
SWIDTH 585 0
DWIDTH 13 0
BBX 4 4 5 0
BITMAP
40
E0
F0
E0
ENDCHAR
STARTCHAR 002F
ENCODING 47
SWIDTH 585 0
DWIDTH 13 0
BBX 9 17 2 -1
BITMAP
0380
0380
0300
0700
0700
0600
0E00
0C00
0C00
1C00
1800
1800
3800
3000
7000
7000
E000
ENDCHAR
STARTCHAR 0030
ENCODING 48
SWIDTH 585 0
DWIDTH 13 0
BBX 10 16 2 0
BITMAP
1E00
7F00
F780
E380
C1C0
C1C0
C3C0
CFC0
DDC0
F1C0
E1C0
C1C0
E180
E380
7F00
3E00
ENDCHAR
STARTCHAR 0031
ENCODING 49
SWIDTH 585 0
DWIDTH 13 0
BBX 7 16 2 0
BITMAP
02
1E
7E
FE
CE
0E
0E
0E
0E
0E
0E
0E
0E
0E
0E
0E
ENDCHAR
STARTCHAR 0032
ENCODING 50
SWIDTH 585 0
DWIDTH 13 0
BBX 11 16 1 0
BITMAP
1E00
7F80
7BC0
E1C0
E1C0
01C0
01C0
0380
0700
0F00
1E00
3C00
3800
7000
FFE0
FFE0
ENDCHAR
STARTCHAR 0033
ENCODING 51
SWIDTH 585 0
DWIDTH 13 0
BBX 11 16 1 0
BITMAP
1F00
7F80
7BC0
E1C0
00C0
01C0
01C0
1F80
1F80
01C0
00C0
00E0
E0E0
F1C0
7FC0
3F00
ENDCHAR
STARTCHAR 0034
ENCODING 52
SWIDTH 585 0
DWIDTH 13 0
BBX 11 16 1 0
BITMAP
0380
0380
0780
0F80
0F80
1F80
3B80
3380
7380
6380
FFE0
FFE0
FFE0
0380
0380
0380
ENDCHAR
STARTCHAR 0035
ENCODING 53
SWIDTH 585 0
DWIDTH 13 0
BBX 11 16 1 0
BITMAP
3FC0
3FC0
7FC0
7000
7000
7000
7F80
7FC0
21C0
00E0
00E0
00E0
E0E0
71C0
7FC0
1F80
ENDCHAR
STARTCHAR 0036
ENCODING 54
SWIDTH 585 0
DWIDTH 13 0
BBX 11 16 1 0
BITMAP
0300
0F00
3F00
3800
7000
6000
EF80
FFC0
F1C0
E0E0
E0E0
E0E0
60E0
71C0
3F80
1F00
ENDCHAR
STARTCHAR 0037
ENCODING 55
SWIDTH 585 0
DWIDTH 13 0
BBX 11 16 1 0
BITMAP
FFE0
FFE0
FFC0
01C0
01C0
0380
0380
0300
0700
0600
0E00
0E00
1C00
1C00
3800
3800
ENDCHAR
STARTCHAR 0038
ENCODING 56
SWIDTH 585 0
DWIDTH 13 0
BBX 11 16 1 0
BITMAP
1F00
3F80
7BC0
71C0
60C0
71C0
71C0
3F80
3F80
71C0
60E0
E0E0
E0E0
71C0
7FC0
3F80
ENDCHAR
STARTCHAR 0039
ENCODING 57
SWIDTH 585 0
DWIDTH 13 0
BBX 11 16 1 0
BITMAP
1E00
3F80
7BC0
61C0
E0C0
E0C0
E0E0
E1C0
73C0
7FC0
1EC0
01C0
0180
0780
3F00
3C00
ENDCHAR
STARTCHAR 003A
ENCODING 58
SWIDTH 585 0
DWIDTH 13 0
BBX 4 13 5 0
BITMAP
40
E0
F0
E0
00
00
00
00
00
40
E0
F0
E0
ENDCHAR
STARTCHAR 003B
ENCODING 59
SWIDTH 585 0
DWIDTH 13 0
BBX 5 17 5 -4
BITMAP
20
70
78
70
00
00
00
00
00
00
60
60
60
60
60
E0
C0
ENDCHAR
STARTCHAR 003C
ENCODING 60
SWIDTH 585 0
DWIDTH 13 0
BBX 9 10 2 2
BITMAP
0080
0380
0F80
7E00
F800
E000
FC00
3F80
0780
0180
ENDCHAR
STARTCHAR 003D
ENCODING 61
SWIDTH 585 0
DWIDTH 13 0
BBX 10 7 2 3
BITMAP
FFC0
FFC0
0000
0000
FFC0
FFC0
FFC0
ENDCHAR
STARTCHAR 003E
ENCODING 62
SWIDTH 585 0
DWIDTH 13 0
BBX 9 10 2 2
BITMAP
8000
E000
F800
3F00
0780
0380
1F80
FE00
F000
C000
ENDCHAR
STARTCHAR 003F
ENCODING 63
SWIDTH 585 0
DWIDTH 13 0
BBX 10 16 2 0
BITMAP
3E00
7F80
F780
E1C0
01C0
01C0
0380
0700
0E00
0C00
1C00
0000
0000
1C00
1C00
1C00
ENDCHAR
STARTCHAR 0040
ENCODING 64
SWIDTH 585 0
DWIDTH 13 0
BBX 12 16 1 0
BITMAP
0200
1F80
30C0
6060
CFA0
DD20
9930
9130
9120
9120
9B60
9FC0
CC80
E000
7F00
1F00
ENDCHAR
STARTCHAR 0041
ENCODING 65
SWIDTH 585 0
DWIDTH 13 0
BBX 13 16 0 0
BITMAP
0700
0700
0780
0780
0F80
0DC0
0DC0
1CC0
1CE0
18E0
3FE0
3FF0
3FF0
7070
7038
F038
ENDCHAR
STARTCHAR 0042
ENCODING 66
SWIDTH 585 0
DWIDTH 13 0
BBX 12 16 1 0
BITMAP
FE00
FFC0
FFE0
E0E0
E0E0
E0E0
E1E0
FFC0
FFC0
E0E0
E060
E070
E0E0
E1E0
FFC0
FF80
ENDCHAR
STARTCHAR 0043
ENCODING 67
SWIDTH 585 0
DWIDTH 13 0
BBX 11 16 1 0
BITMAP
0F00
3FC0
7BC0
70E0
E0E0
E000
E000
E000
E000
E000
E000
E0E0
E0E0
71E0
3FC0
1F80
ENDCHAR
STARTCHAR 0044
ENCODING 68
SWIDTH 585 0
DWIDTH 13 0
BBX 11 16 1 0
BITMAP
FC00
FF00
FF80
E1C0
E0E0
E0E0
E0E0
E0E0
E0E0
E0E0
E0E0
E0E0
E1C0
E3C0
FF80
FE00
ENDCHAR
STARTCHAR 0045
ENCODING 69
SWIDTH 585 0
DWIDTH 13 0
BBX 10 16 2 0
BITMAP
FFC0
FFC0
FFC0
C000
C000
C000
C000
FF80
FF80
C000
C000
C000
C000
C000
FFC0
FFC0
ENDCHAR
STARTCHAR 0046
ENCODING 70
SWIDTH 585 0
DWIDTH 13 0
BBX 10 16 2 0
BITMAP
FFC0
FFC0
FFC0
E000
E000
E000
E000
FF80
FF80
E000
E000
E000
E000
E000
E000
E000
ENDCHAR
STARTCHAR 0047
ENCODING 71
SWIDTH 585 0
DWIDTH 13 0
BBX 11 16 1 0
BITMAP
0F00
3FC0
7BC0
70E0
E0E0
E000
E000
E000
E3E0
E3E0
E0E0
E0E0
60E0
70E0
3FE0
1F80
ENDCHAR
STARTCHAR 0048
ENCODING 72
SWIDTH 585 0
DWIDTH 13 0
BBX 11 16 1 0
BITMAP
E0E0
E0E0
E0E0
E0E0
E0E0
E0E0
E0E0
FFE0
FFE0
E0E0
E0E0
E0E0
E0E0
E0E0
E0E0
E0E0
ENDCHAR
STARTCHAR 0049
ENCODING 73
SWIDTH 585 0
DWIDTH 13 0
BBX 9 16 2 0
BITMAP
FF80
FF80
FF80
1C00
1C00
1C00
1C00
1C00
1C00
1C00
1C00
1C00
1C00
1C00
FF80
FF80
ENDCHAR
STARTCHAR 004A
ENCODING 74
SWIDTH 585 0
DWIDTH 13 0
BBX 11 16 1 0
BITMAP
00E0
00E0
00E0
00E0
00E0
00E0
00E0
00E0
00E0
00E0
00E0
E0E0
E0E0
71C0
7F80
3F00
ENDCHAR
STARTCHAR 004B
ENCODING 75
SWIDTH 585 0
DWIDTH 13 0
BBX 12 16 1 0
BITMAP
E070
E0E0
E1C0
E3C0
E380
E700
EE00
FE00
FF00
FF00
F380
E3C0
E1C0
E1E0
E0E0
E070
ENDCHAR
STARTCHAR 004C
ENCODING 76
SWIDTH 585 0
DWIDTH 13 0
BBX 10 16 2 0
BITMAP
E000
E000
E000
E000
E000
E000
E000
E000
E000
E000
E000
E000
E000
E000
FFC0
FFC0
ENDCHAR
STARTCHAR 004D
ENCODING 77
SWIDTH 585 0
DWIDTH 13 0
BBX 11 16 1 0
BITMAP
F1E0
F1E0
F1E0
F9E0
FB60
FBE0
EFE0
EEE0
EEE0
EEE0
E4E0
E0E0
E0E0
E0E0
E0E0
E0E0
ENDCHAR
STARTCHAR 004E
ENCODING 78
SWIDTH 585 0
DWIDTH 13 0
BBX 11 16 1 0
BITMAP
E0E0
F0E0
F0E0
F8E0
F8E0
FCE0
ECE0
ECE0
E6E0
E6E0
E7E0
E3E0
E3E0
E1E0
E1E0
E0E0
ENDCHAR
STARTCHAR 004F
ENCODING 79
SWIDTH 585 0
DWIDTH 13 0
BBX 11 16 1 0
BITMAP
0F00
3F80
7FC0
70E0
E0E0
E0E0
E0E0
E0E0
E0E0
E0E0
E0E0
E0E0
E0E0
71C0
3FC0
1F00
ENDCHAR
STARTCHAR 0050
ENCODING 80
SWIDTH 585 0
DWIDTH 13 0
BBX 10 16 2 0
BITMAP
FC00
FF80
FFC0
E1C0
E0C0
E0C0
E1C0
E1C0
FF80
FF00
E000
E000
E000
E000
E000
E000
ENDCHAR
STARTCHAR 0051
ENCODING 81
SWIDTH 585 0
DWIDTH 13 0
BBX 12 19 1 -3
BITMAP
0F00
3F80
7FC0
70E0
E0E0
E0E0
E060
E060
E060
E060
E0E0
E0E0
E0E0
71C0
3FC0
1FC0
00E0
0070
0020
ENDCHAR
STARTCHAR 0052
ENCODING 82
SWIDTH 585 0
DWIDTH 13 0
BBX 11 16 2 0
BITMAP
FC00
FF80
FFC0
C1C0
C1C0
C1C0
C1C0
C3C0
FF80
FE00
C700
C380
C380
C1C0
C1C0
C0E0
ENDCHAR
STARTCHAR 0053
ENCODING 83
SWIDTH 585 0
DWIDTH 13 0
BBX 11 16 1 0
BITMAP
0F00
3FC0
79E0
70E0
E060
7000
7800
3F00
1FC0
03E0
00E0
E060
E060
70E0
7FC0
1F80
ENDCHAR
STARTCHAR 0054
ENCODING 84
SWIDTH 585 0
DWIDTH 13 0
BBX 13 16 0 0
BITMAP
FFF8
FFF8
FFF8
0700
0700
0700
0700
0700
0700
0700
0700
0700
0700
0700
0700
0700
ENDCHAR
STARTCHAR 0055
ENCODING 85
SWIDTH 585 0
DWIDTH 13 0
BBX 11 16 1 0
BITMAP
E0E0
E0E0
E0E0
E0E0
E0E0
E0E0
E0E0
E0E0
E0E0
E0E0
E0E0
E0E0
60E0
71C0
3FC0
1F00
ENDCHAR
STARTCHAR 0056
ENCODING 86
SWIDTH 585 0
DWIDTH 13 0
BBX 13 16 0 0
BITMAP
F038
7070
7070
7070
3860
38E0
38E0
18E0
1DC0
1DC0
0DC0
0D80
0F80
0F80
0700
0700
ENDCHAR
STARTCHAR 0057
ENCODING 87
SWIDTH 585 0
DWIDTH 13 0
BBX 13 16 0 0
BITMAP
E338
6738
6738
6730
6730
7730
77B0
75F0
7DF0
3DF0
3DF0
3DE0
3CE0
38E0
38E0
38E0
ENDCHAR
STARTCHAR 0058
ENCODING 88
SWIDTH 585 0
DWIDTH 13 0
BBX 13 16 0 0
BITMAP
7038
7070
3870
38E0
1CE0
0DC0
0F80
0780
0780
0F80
0FC0
1DC0
3CE0
38F0
7870
F078
ENDCHAR
STARTCHAR 0059
ENCODING 89
SWIDTH 585 0
DWIDTH 13 0
BBX 13 16 0 0
BITMAP
F038
7070
7070
3860
38E0
1CC0
1DC0
0FC0
0F80
0780
0700
0700
0700
0700
0700
0700
ENDCHAR
STARTCHAR 005A
ENCODING 90
SWIDTH 585 0
DWIDTH 13 0
BBX 11 16 1 0
BITMAP
FFE0
FFE0
FFE0
01C0
0380
0380
0700
0E00
0E00
1C00
3C00
3800
7000
F000
FFE0
FFE0
ENDCHAR
STARTCHAR 005B
ENCODING 91
SWIDTH 585 0
DWIDTH 13 0
BBX 5 22 4 -4
BITMAP
F8
F8
E0
E0
E0
E0
E0
E0
E0
E0
E0
E0
E0
E0
E0
E0
E0
E0
E0
F8
F8
F8
ENDCHAR
STARTCHAR 005C
ENCODING 92
SWIDTH 585 0
DWIDTH 13 0
BBX 8 17 3 -1
BITMAP
C0
E0
E0
60
70
70
30
38
38
18
1C
1C
0C
0E
06
06
07
ENDCHAR
STARTCHAR 005D
ENCODING 93
SWIDTH 585 0
DWIDTH 13 0
BBX 5 22 4 -4
BITMAP
F8
F8
38
38
38
38
38
38
38
38
38
38
38
38
38
38
38
38
38
F8
F8
F8
ENDCHAR
STARTCHAR 005E
ENCODING 94
SWIDTH 585 0
DWIDTH 13 0
BBX 9 9 2 7
BITMAP
0C00
1C00
1E00
3E00
3600
3300
6300
6380
E180
ENDCHAR
STARTCHAR 005F
ENCODING 95
SWIDTH 585 0
DWIDTH 13 0
BBX 9 2 2 -2
BITMAP
FF80
FF80
ENDCHAR
STARTCHAR 0060
ENCODING 96
SWIDTH 585 0
DWIDTH 13 0
BBX 5 3 4 13
BITMAP
F0
30
18
ENDCHAR
STARTCHAR 0061
ENCODING 97
SWIDTH 585 0
DWIDTH 13 0
BBX 11 12 1 0
BITMAP
1F00
3F80
73C0
61C0
00C0
3FC0
7FC0
60C0
E0C0
E1C0
7FC0
3EE0
ENDCHAR
STARTCHAR 0062
ENCODING 98
SWIDTH 585 0
DWIDTH 13 0
BBX 10 17 2 0
BITMAP
C000
C000
C000
C000
C000
CE00
FF80
F780
E1C0
C1C0
C1C0
C1C0
C1C0
C1C0
E380
FF80
DF00
ENDCHAR
STARTCHAR 0063
ENCODING 99
SWIDTH 585 0
DWIDTH 13 0
BBX 11 12 1 0
BITMAP
0F00
3F80
7BC0
70C0
E0E0
E000
E000
E000
60E0
71C0
3FC0
1F00
ENDCHAR
STARTCHAR 0064
ENCODING 100
SWIDTH 585 0
DWIDTH 13 0
BBX 11 17 1 0
BITMAP
00E0
00E0
00E0
00E0
00E0
1EE0
3FE0
7BE0
70E0
E0E0
E0E0
E0E0
E0E0
60E0
71E0
7FE0
3EE0
ENDCHAR
STARTCHAR 0065
ENCODING 101
SWIDTH 585 0
DWIDTH 13 0
BBX 11 12 1 0
BITMAP
0F00
3F80
7BC0
70E0
E0E0
FFE0
FFE0
E000
7000
78C0
3FE0
1F80
ENDCHAR
STARTCHAR 0066
ENCODING 102
SWIDTH 585 0
DWIDTH 13 0
BBX 11 17 1 0
BITMAP
03E0
07E0
0F20
0E00
1C00
FFE0
FFE0
1C00
1C00
1C00
1C00
1C00
1C00
1C00
1C00
1C00
1C00
ENDCHAR
STARTCHAR 0067
ENCODING 103
SWIDTH 585 0
DWIDTH 13 0
BBX 11 17 1 -5
BITMAP
1EE0
3FE0
7BE0
70E0
E0E0
E0E0
E0E0
E0E0
60E0
71E0
3FE0
1EE0
00E0
21C0
7FC0
3F80
0C00
ENDCHAR
STARTCHAR 0068
ENCODING 104
SWIDTH 585 0
DWIDTH 13 0
BBX 10 17 2 0
BITMAP
C000
C000
C000
C000
C000
CF00
DF80
F780
C1C0
C1C0
C1C0
C1C0
C1C0
C1C0
C1C0
C1C0
C1C0
ENDCHAR
STARTCHAR 0069
ENCODING 105
SWIDTH 585 0
DWIDTH 13 0
BBX 10 16 2 0
BITMAP
0C00
1E00
0C00
0000
FE00
FE00
FE00
0E00
0E00
0E00
0E00
0E00
0E00
0E00
FFC0
FFC0
ENDCHAR
STARTCHAR 006A
ENCODING 106
SWIDTH 585 0
DWIDTH 13 0
BBX 7 21 2 -5
BITMAP
0E
0E
06
00
7E
7E
7E
0E
0E
0E
0E
0E
0E
0E
0E
0E
0E
0E
FE
FC
F0
ENDCHAR
STARTCHAR 006B
ENCODING 107
SWIDTH 585 0
DWIDTH 13 0
BBX 11 17 2 0
BITMAP
C000
C000
C000
C000
C000
C1C0
C380
C700
CE00
DC00
FC00
FE00
EE00
C700
C380
C3C0
C1E0
ENDCHAR
STARTCHAR 006C
ENCODING 108
SWIDTH 585 0
DWIDTH 13 0
BBX 10 17 2 0
BITMAP
FE00
FE00
FE00
0E00
0E00
0E00
0E00
0E00
0E00
0E00
0E00
0E00
0E00
0E00
0E00
FFC0
FFC0
ENDCHAR
STARTCHAR 006D
ENCODING 109
SWIDTH 585 0
DWIDTH 13 0
BBX 11 12 1 0
BITMAP
DDC0
FFE0
EEE0
CE60
CE60
CE60
CE60
CE60
CE60
CE60
CE60
CE60
ENDCHAR
STARTCHAR 006E
ENCODING 110
SWIDTH 585 0
DWIDTH 13 0
BBX 10 12 2 0
BITMAP
CF00
DF80
F780
E1C0
C1C0
C1C0
C1C0
C1C0
C1C0
C1C0
C1C0
C1C0
ENDCHAR
STARTCHAR 006F
ENCODING 111
SWIDTH 585 0
DWIDTH 13 0
BBX 11 12 1 0
BITMAP
0F00
3F80
7BC0
70E0
E0E0
E0E0
E0E0
E0E0
E0E0
71C0
3FC0
1F00
ENDCHAR
STARTCHAR 0070
ENCODING 112
SWIDTH 585 0
DWIDTH 13 0
BBX 10 16 2 -4
BITMAP
CE00
FF00
F780
E1C0
C1C0
C1C0
C1C0
C1C0
C1C0
E380
FF80
DF00
C000
C000
C000
C000
ENDCHAR
STARTCHAR 0071
ENCODING 113
SWIDTH 585 0
DWIDTH 13 0
BBX 11 16 1 -4
BITMAP
1EE0
3FE0
7BE0
70E0
E0E0
E0E0
E0E0
E0E0
60E0
71E0
7FE0
3EE0
00E0
00E0
00E0
00E0
ENDCHAR
STARTCHAR 0072
ENCODING 114
SWIDTH 585 0
DWIDTH 13 0
BBX 9 12 3 0
BITMAP
E780
EF80
FF80
F000
E000
E000
E000
E000
E000
E000
E000
E000
ENDCHAR
STARTCHAR 0073
ENCODING 115
SWIDTH 585 0
DWIDTH 13 0
BBX 11 12 1 0
BITMAP
0F00
3FC0
71C0
70E0
7000
7F00
1FC0
03E0
E0E0
70E0
7FC0
1F80
ENDCHAR
STARTCHAR 0074
ENCODING 116
SWIDTH 585 0
DWIDTH 13 0
BBX 11 14 1 0
BITMAP
1C00
1C00
FFC0
FFC0
1C00
1C00
1C00
1C00
1C00
1C00
1C00
1E00
0FE0
07E0
ENDCHAR
STARTCHAR 0075
ENCODING 117
SWIDTH 585 0
DWIDTH 13 0
BBX 10 12 2 0
BITMAP
C1C0
C1C0
C1C0
C1C0
C1C0
C1C0
C1C0
C1C0
E1C0
E3C0
FFC0
7DC0
ENDCHAR
STARTCHAR 0076
ENCODING 118
SWIDTH 585 0
DWIDTH 13 0
BBX 11 12 1 0
BITMAP
E0E0
E0E0
60E0
71C0
71C0
3180
3B80
1B80
1B00
1F00
0E00
0E00
ENDCHAR
STARTCHAR 0077
ENCODING 119
SWIDTH 585 0
DWIDTH 13 0
BBX 13 12 0 0
BITMAP
E238
6738
6730
6730
6530
7570
7DF0
3DE0
3DE0
38E0
38E0
38E0
ENDCHAR
STARTCHAR 0078
ENCODING 120
SWIDTH 585 0
DWIDTH 13 0
BBX 12 12 1 0
BITMAP
E0F0
70E0
39C0
3B80
1F80
0F00
0F00
1F00
3F80
39C0
70E0
E0F0
ENDCHAR
STARTCHAR 0079
ENCODING 121
SWIDTH 585 0
DWIDTH 13 0
BBX 12 17 1 -5
BITMAP
E070
E070
60E0
70E0
71C0
39C0
3980
1B80
1F00
0F00
0F00
0600
0E00
1C00
7C00
7800
6000
ENDCHAR
STARTCHAR 007A
ENCODING 122
SWIDTH 585 0
DWIDTH 13 0
BBX 11 12 1 0
BITMAP
FFE0
FFE0
FFC0
03C0
0780
0F00
0E00
1C00
3800
7000
FFE0
FFE0
ENDCHAR
STARTCHAR 007B
ENCODING 123
SWIDTH 585 0
DWIDTH 13 0
BBX 8 21 3 -4
BITMAP
06
0F
0C
1C
1C
1C
1C
1C
18
F8
E0
78
18
1C
1C
1C
1C
1C
0C
0F
02
ENDCHAR
STARTCHAR 007C
ENCODING 124
SWIDTH 585 0
DWIDTH 13 0
BBX 2 20 6 -4
BITMAP
C0
C0
C0
C0
C0
C0
C0
C0
C0
C0
C0
C0
C0
C0
C0
C0
C0
C0
C0
C0
ENDCHAR
STARTCHAR 007D
ENCODING 125
SWIDTH 585 0
DWIDTH 13 0
BBX 7 21 4 -4
BITMAP
C0
E0
70
70
70
70
70
70
30
1E
0E
3C
30
70
70
70
70
70
60
E0
C0
ENDCHAR
STARTCHAR 007E
ENCODING 126
SWIDTH 585 0
DWIDTH 13 0
BBX 12 5 0 4
BITMAP
3800
7E30
7F70
C3F0
01E0
ENDCHAR
STARTCHAR 00A0
ENCODING 160
SWIDTH 585 0
DWIDTH 13 0
BBX 0 0 0 0
BITMAP
ENDCHAR
STARTCHAR 00A1
ENCODING 161
SWIDTH 585 0
DWIDTH 13 0
BBX 3 16 5 -4
BITMAP
60
E0
E0
00
00
00
60
60
60
E0
E0
E0
E0
E0
E0
E0
ENDCHAR
STARTCHAR 00A2
ENCODING 162
SWIDTH 585 0
DWIDTH 13 0
BBX 10 17 2 -3
BITMAP
0C00
0C00
1E00
7F80
F380
E1C0
C1C0
C000
C000
C000
E1C0
E1C0
7F80
3F00
0C00
0C00
0C00
ENDCHAR
STARTCHAR 00A3
ENCODING 163
SWIDTH 585 0
DWIDTH 13 0
BBX 12 16 1 0
BITMAP
0780
1FC0
3DE0
38E0
3860
3800
3800
FF00
FF00
FF00
3800
3800
3800
3000
FFF0
FFF0
ENDCHAR
STARTCHAR 00A4
ENCODING 164
SWIDTH 585 0
DWIDTH 13 0
BBX 11 11 1 0
BITMAP
DF60
FFE0
70C0
60E0
C060
C060
C060
60E0
70C0
FFE0
5F60
ENDCHAR
STARTCHAR 00A5
ENCODING 165
SWIDTH 585 0
DWIDTH 13 0
BBX 13 16 0 0
BITMAP
E038
7070
7070
38E0
18E0
1DC0
0DC0
0F80
7FF0
7FF0
0700
7FF0
7FF0
0700
0700
0700
ENDCHAR
STARTCHAR 00A6
ENCODING 166
SWIDTH 585 0
DWIDTH 13 0
BBX 3 19 5 -3
BITMAP
E0
E0
E0
E0
E0
E0
E0
E0
E0
00
E0
E0
E0
E0
E0
E0
E0
E0
E0
ENDCHAR
STARTCHAR 00A7
ENCODING 167
SWIDTH 585 0
DWIDTH 13 0
BBX 12 21 1 -5
BITMAP
1F00
7FC0
79E0
E0E0
E0E0
F000
7E00
7F80
EFE0
E1E0
E060
F070
7CE0
3FC0
0FC0
01E0
E0E0
E0E0
F1E0
7FC0
1F80
ENDCHAR
STARTCHAR 00A8
ENCODING 168
SWIDTH 585 0
DWIDTH 13 0
BBX 8 3 3 13
BITMAP
C6
E7
42
ENDCHAR
STARTCHAR 00A9
ENCODING 169
SWIDTH 585 0
DWIDTH 13 0
BBX 11 12 1 0
BITMAP
0F00
3180
4040
5F20
9120
9020
9020
9120
9B20
4E40
20C0
1F00
ENDCHAR
STARTCHAR 00AA
ENCODING 170
SWIDTH 585 0
DWIDTH 13 0
BBX 7 9 3 7
BITMAP
38
7C
C6
06
7E
C6
C6
FE
20
ENDCHAR
STARTCHAR 00AB
ENCODING 171
SWIDTH 585 0
DWIDTH 13 0
BBX 9 9 2 1
BITMAP
1980
3300
7700
6600
EE00
6600
3300
3300
1980
ENDCHAR
STARTCHAR 00AC
ENCODING 172
SWIDTH 585 0
DWIDTH 13 0
BBX 9 5 2 4
BITMAP
FF80
FF80
0180
0180
0180
ENDCHAR
STARTCHAR 00AD
ENCODING 173
SWIDTH 585 0
DWIDTH 13 0
BBX 9 2 3 6
BITMAP
FF80
FF80
ENDCHAR
STARTCHAR 00AE
ENCODING 174
SWIDTH 585 0
DWIDTH 13 0
BBX 11 12 1 0
BITMAP
0F00
3180
4040
5F20
9120
9120
9E20
9220
9120
5140
20C0
1F00
ENDCHAR
STARTCHAR 00AF
ENCODING 175
SWIDTH 585 0
DWIDTH 13 0
BBX 8 2 3 14
BITMAP
FF
FF
ENDCHAR
STARTCHAR 00B0
ENCODING 176
SWIDTH 585 0
DWIDTH 13 0
BBX 6 6 4 10
BITMAP
70
F8
88
8C
F8
70
ENDCHAR
STARTCHAR 00B1
ENCODING 177
SWIDTH 585 0
DWIDTH 13 0
BBX 9 14 2 0
BITMAP
1C00
1C00
1C00
1C00
FF80
FF80
1C00
1C00
1C00
1C00
1C00
0000
FF80
FF80
ENDCHAR
STARTCHAR 00B2
ENCODING 178
SWIDTH 585 0
DWIDTH 13 0
BBX 7 9 3 7
BITMAP
38
7C
C6
06
0C
18
70
FE
FE
ENDCHAR
STARTCHAR 00B3
ENCODING 179
SWIDTH 585 0
DWIDTH 13 0
BBX 7 9 3 7
BITMAP
38
7E
C6
06
18
06
C6
FE
3C
ENDCHAR
STARTCHAR 00B4
ENCODING 180
SWIDTH 585 0
DWIDTH 13 0
BBX 5 3 4 13
BITMAP
38
70
E0
ENDCHAR
STARTCHAR 00B5
ENCODING 181
SWIDTH 585 0
DWIDTH 13 0
BBX 10 16 2 -4
BITMAP
E1C0
E1C0
E1C0
E1C0
E1C0
E1C0
E1C0
E1C0
E1C0
E3C0
FFC0
FFC0
E000
E000
E000
E000
ENDCHAR
STARTCHAR 00B6
ENCODING 182
SWIDTH 585 0
DWIDTH 13 0
BBX 9 16 2 0
BITMAP
0F80
3F80
7F80
7F80
FF80
FF80
FF80
7F80
7F80
3F80
0380
0380
0380
0380
0380
0380
ENDCHAR
STARTCHAR 00B7
ENCODING 183
SWIDTH 585 0
DWIDTH 13 0
BBX 4 3 5 6
BITMAP
60
F0
60
ENDCHAR
STARTCHAR 00B8
ENCODING 184
SWIDTH 585 0
DWIDTH 13 0
BBX 4 5 5 -5
BITMAP
C0
E0
70
E0
C0
ENDCHAR
STARTCHAR 00B9
ENCODING 185
SWIDTH 585 0
DWIDTH 13 0
BBX 4 9 4 7
BITMAP
10
70
F0
30
30
30
30
30
30
ENDCHAR
STARTCHAR 00BA
ENCODING 186
SWIDTH 585 0
DWIDTH 13 0
BBX 7 9 3 7
BITMAP
38
7E
C6
C6
C6
C6
C6
7C
18
ENDCHAR
STARTCHAR 00BB
ENCODING 187
SWIDTH 585 0
DWIDTH 13 0
BBX 9 9 2 1
BITMAP
CC00
6600
3300
3B80
1980
3300
7700
6600
CC00
ENDCHAR
STARTCHAR 00BC
ENCODING 188
SWIDTH 585 0
DWIDTH 13 0
BBX 12 16 1 0
BITMAP
1000
E000
A000
2180
2100
2300
2200
2600
0C60
0CE0
19E0
1960
3260
17F0
0060
0060
ENDCHAR
STARTCHAR 00BD
ENCODING 189
SWIDTH 585 0
DWIDTH 13 0
BBX 13 16 0 0
BITMAP
1000
F000
F000
3180
3180
3300
3300
3600
06E0
0DF0
0998
1830
3070
10E0
0180
01F8
ENDCHAR
STARTCHAR 00BE
ENCODING 190
SWIDTH 585 0
DWIDTH 13 0
BBX 13 16 0 0
BITMAP
3800
7C00
8C00
3C60
3C40
04C0
ED80
7D80
0330
0370
0670
04F0
0DB0
05F8
0030
0030
ENDCHAR
STARTCHAR 00BF
ENCODING 191
SWIDTH 585 0
DWIDTH 13 0
BBX 10 16 2 -4
BITMAP
0C00
0E00
0C00
0000
0000
0C00
0C00
1C00
3800
7000
E000
E000
E1C0
F380
7F80
3F00
ENDCHAR
STARTCHAR 00C0
ENCODING 192
SWIDTH 585 0
DWIDTH 13 0
BBX 13 20 0 0
BITMAP
1E00
0600
0300
0000
0700
0700
0780
0780
0F80
0DC0
0DC0
1CC0
1CE0
18E0
3FE0
3FF0
3FF0
7070
7038
F038
ENDCHAR
STARTCHAR 00C1
ENCODING 193
SWIDTH 585 0
DWIDTH 13 0
BBX 13 20 0 0
BITMAP
01C0
0380
0700
0000
0700
0700
0780
0780
0F80
0DC0
0DC0
1CC0
1CE0
18E0
3FE0
3FF0
3FF0
7070
7038
F038
ENDCHAR
STARTCHAR 00C2
ENCODING 194
SWIDTH 585 0
DWIDTH 13 0
BBX 13 20 0 0
BITMAP
0700
1D80
18C0
0000
0700
0700
0780
0780
0F80
0DC0
0DC0
1CC0
1CE0
18E0
3FE0
3FF0
3FF0
7070
7038
F038
ENDCHAR
STARTCHAR 00C3
ENCODING 195
SWIDTH 585 0
DWIDTH 13 0
BBX 13 21 0 0
BITMAP
0040
0F60
1FE0
0800
0000
0700
0700
0780
0780
0F80
0DC0
0DC0
1CC0
1CE0
18E0
3FE0
3FF0
3FF0
7070
7038
F038
ENDCHAR
STARTCHAR 00C4
ENCODING 196
SWIDTH 585 0
DWIDTH 13 0
BBX 13 20 0 0
BITMAP
18C0
1CE0
0840
0000
0700
0700
0780
0780
0F80
0DC0
0DC0
1CC0
1CE0
18E0
3FE0
3FF0
3FF0
7070
7038
F038
ENDCHAR
STARTCHAR 00C5
ENCODING 197
SWIDTH 585 0
DWIDTH 13 0
BBX 13 21 0 0
BITMAP
0200
0780
0C80
0580
0300
0700
0700
0780
0780
0F80
0DC0
0DC0
1CC0
1CE0
18E0
3FE0
3FF0
3FF0
7070
7038
F038
ENDCHAR
STARTCHAR 00C6
ENCODING 198
SWIDTH 585 0
DWIDTH 13 0
BBX 13 16 0 0
BITMAP
03F0
07F0
07F0
07C0
0FC0
0DC0
0DC0
1DF0
1DF0
19C0
3FC0
3FC0
31C0
71C0
71F8
E1F8
ENDCHAR
STARTCHAR 00C7
ENCODING 199
SWIDTH 585 0
DWIDTH 13 0
BBX 11 21 1 -5
BITMAP
0F00
3FC0
7BC0
70E0
E0E0
E000
E000
E000
E000
E000
E000
E0E0
E0E0
71E0
3FC0
1F80
0600
0700
0380
0700
0600
ENDCHAR
STARTCHAR 00C8
ENCODING 200
SWIDTH 585 0
DWIDTH 13 0
BBX 10 20 2 0
BITMAP
7800
1800
0C00
0000
FFC0
FFC0
FFC0
C000
C000
C000
C000
FF80
FF80
C000
C000
C000
C000
C000
FFC0
FFC0
ENDCHAR
STARTCHAR 00C9
ENCODING 201
SWIDTH 585 0
DWIDTH 13 0
BBX 10 20 2 0
BITMAP
0380
0700
0E00
0000
FFC0
FFC0
FFC0
C000
C000
C000
C000
FF80
FF80
C000
C000
C000
C000
C000
FFC0
FFC0
ENDCHAR
STARTCHAR 00CA
ENCODING 202
SWIDTH 585 0
DWIDTH 13 0
BBX 10 20 2 0
BITMAP
0E00
3B00
3180
0000
FFC0
FFC0
FFC0
C000
C000
C000
C000
FF80
FF80
C000
C000
C000
C000
C000
FFC0
FFC0
ENDCHAR
STARTCHAR 00CB
ENCODING 203
SWIDTH 585 0
DWIDTH 13 0
BBX 10 20 2 0
BITMAP
6300
7380
2100
0000
FFC0
FFC0
FFC0
C000
C000
C000
C000
FF80
FF80
C000
C000
C000
C000
C000
FFC0
FFC0
ENDCHAR
STARTCHAR 00CC
ENCODING 204
SWIDTH 585 0
DWIDTH 13 0
BBX 9 20 2 0
BITMAP
F000
3000
1800
0000
FF80
FF80
FF80
1C00
1C00
1C00
1C00
1C00
1C00
1C00
1C00
1C00
1C00
1C00
FF80
FF80
ENDCHAR
STARTCHAR 00CD
ENCODING 205
SWIDTH 585 0
DWIDTH 13 0
BBX 9 20 2 0
BITMAP
0700
0E00
1C00
0000
FF80
FF80
FF80
1C00
1C00
1C00
1C00
1C00
1C00
1C00
1C00
1C00
1C00
1C00
FF80
FF80
ENDCHAR
STARTCHAR 00CE
ENCODING 206
SWIDTH 585 0
DWIDTH 13 0
BBX 9 20 2 0
BITMAP
1C00
7600
6300
0000
FF80
FF80
FF80
1C00
1C00
1C00
1C00
1C00
1C00
1C00
1C00
1C00
1C00
1C00
FF80
FF80
ENDCHAR
STARTCHAR 00CF
ENCODING 207
SWIDTH 585 0
DWIDTH 13 0
BBX 9 20 2 0
BITMAP
6300
7380
2100
0000
FF80
FF80
FF80
1C00
1C00
1C00
1C00
1C00
1C00
1C00
1C00
1C00
1C00
1C00
FF80
FF80
ENDCHAR
STARTCHAR 00D0
ENCODING 208
SWIDTH 585 0
DWIDTH 13 0
BBX 12 16 0 0
BITMAP
3E00
3FC0
3FE0
30E0
3070
3070
3070
FE30
FE30
3030
3070
3070
30F0
31E0
3FC0
3F00
ENDCHAR
STARTCHAR 00D1
ENCODING 209
SWIDTH 585 0
DWIDTH 13 0
BBX 11 21 1 0
BITMAP
0100
3D80
7F80
2000
0000
E0E0
F0E0
F0E0
F8E0
F8E0
FCE0
ECE0
ECE0
E6E0
E6E0
E7E0
E3E0
E3E0
E1E0
E1E0
E0E0
ENDCHAR
STARTCHAR 00D2
ENCODING 210
SWIDTH 585 0
DWIDTH 13 0
BBX 11 20 1 0
BITMAP
7800
1800
0C00
0000
0F00
3F80
7FC0
70E0
E0E0
E0E0
E0E0
E0E0
E0E0
E0E0
E0E0
E0E0
E0E0
71C0
3FC0
1F00
ENDCHAR
STARTCHAR 00D3
ENCODING 211
SWIDTH 585 0
DWIDTH 13 0
BBX 11 20 1 0
BITMAP
0380
0700
0E00
0000
0F00
3F80
7FC0
70E0
E0E0
E0E0
E0E0
E0E0
E0E0
E0E0
E0E0
E0E0
E0E0
71C0
3FC0
1F00
ENDCHAR
STARTCHAR 00D4
ENCODING 212
SWIDTH 585 0
DWIDTH 13 0
BBX 11 20 1 0
BITMAP
0E00
3B00
3180
0000
0F00
3F80
7FC0
70E0
E0E0
E0E0
E0E0
E0E0
E0E0
E0E0
E0E0
E0E0
E0E0
71C0
3FC0
1F00
ENDCHAR
STARTCHAR 00D5
ENCODING 213
SWIDTH 585 0
DWIDTH 13 0
BBX 11 21 1 0
BITMAP
0100
3D80
7F80
2000
0000
0F00
3F80
7FC0
70E0
E0E0
E0E0
E0E0
E0E0
E0E0
E0E0
E0E0
E0E0
E0E0
71C0
3FC0
1F00
ENDCHAR
STARTCHAR 00D6
ENCODING 214
SWIDTH 585 0
DWIDTH 13 0
BBX 11 20 1 0
BITMAP
3180
39C0
1080
0000
0F00
3F80
7FC0
70E0
E0E0
E0E0
E0E0
E0E0
E0E0
E0E0
E0E0
E0E0
E0E0
71C0
3FC0
1F00
ENDCHAR
STARTCHAR 00D7
ENCODING 215
SWIDTH 585 0
DWIDTH 13 0
BBX 10 10 2 2
BITMAP
C180
E3C0
7780
3F00
1E00
3E00
7F00
F380
E1C0
4080
ENDCHAR
STARTCHAR 00D8
ENCODING 216
SWIDTH 585 0
DWIDTH 13 0
BBX 11 17 1 -1
BITMAP
0F60
3FC0
7FC0
71E0
E1E0
E3E0
E2E0
E6E0
ECE0
ECE0
F8E0
F8E0
F0E0
71C0
7FC0
DF00
C000
ENDCHAR
STARTCHAR 00D9
ENCODING 217
SWIDTH 585 0
DWIDTH 13 0
BBX 11 20 1 0
BITMAP
3C00
0C00
0600
0000
E0E0
E0E0
E0E0
E0E0
E0E0
E0E0
E0E0
E0E0
E0E0
E0E0
E0E0
E0E0
60E0
71C0
3FC0
1F00
ENDCHAR
STARTCHAR 00DA
ENCODING 218
SWIDTH 585 0
DWIDTH 13 0
BBX 11 20 1 0
BITMAP
0380
0700
0E00
0000
E0E0
E0E0
E0E0
E0E0
E0E0
E0E0
E0E0
E0E0
E0E0
E0E0
E0E0
E0E0
60E0
71C0
3FC0
1F00
ENDCHAR
STARTCHAR 00DB
ENCODING 219
SWIDTH 585 0
DWIDTH 13 0
BBX 11 20 1 0
BITMAP
0E00
3B00
3180
0000
E0E0
E0E0
E0E0
E0E0
E0E0
E0E0
E0E0
E0E0
E0E0
E0E0
E0E0
E0E0
60E0
71C0
3FC0
1F00
ENDCHAR
STARTCHAR 00DC
ENCODING 220
SWIDTH 585 0
DWIDTH 13 0
BBX 11 20 1 0
BITMAP
3180
39C0
1080
0000
E0E0
E0E0
E0E0
E0E0
E0E0
E0E0
E0E0
E0E0
E0E0
E0E0
E0E0
E0E0
60E0
71C0
3FC0
1F00
ENDCHAR
STARTCHAR 00DD
ENCODING 221
SWIDTH 585 0
DWIDTH 13 0
BBX 13 20 0 0
BITMAP
01C0
0380
0700
0000
F038
7070
7070
3860
38E0
1CC0
1DC0
0FC0
0F80
0780
0700
0700
0700
0700
0700
0700
ENDCHAR
STARTCHAR 00DE
ENCODING 222
SWIDTH 585 0
DWIDTH 13 0
BBX 10 16 2 0
BITMAP
C000
C000
C000
FE00
FF80
FFC0
C1C0
C0C0
C0C0
C1C0
C3C0
FF80
FE00
C000
C000
C000
ENDCHAR
STARTCHAR 00DF
ENCODING 223
SWIDTH 585 0
DWIDTH 13 0
BBX 11 17 2 0
BITMAP
1C00
7F00
FF00
E380
E380
E380
E700
E700
E700
E700
E380
E1C0
E1C0
E0E0
F1C0
EFC0
FF80
ENDCHAR
STARTCHAR 00E0
ENCODING 224
SWIDTH 585 0
DWIDTH 13 0
BBX 11 16 1 0
BITMAP
7800
1800
0C00
0000
1F00
3F80
73C0
61C0
00C0
3FC0
7FC0
60C0
E0C0
E1C0
7FC0
3EE0
ENDCHAR
STARTCHAR 00E1
ENCODING 225
SWIDTH 585 0
DWIDTH 13 0
BBX 11 16 1 0
BITMAP
0380
0700
0E00
0000
1F00
3F80
73C0
61C0
00C0
3FC0
7FC0
60C0
E0C0
E1C0
7FC0
3EE0
ENDCHAR
STARTCHAR 00E2
ENCODING 226
SWIDTH 585 0
DWIDTH 13 0
BBX 11 16 1 0
BITMAP
0E00
3B00
3180
0000
1F00
3F80
73C0
61C0
00C0
3FC0
7FC0
60C0
E0C0
E1C0
7FC0
3EE0
ENDCHAR
STARTCHAR 00E3
ENCODING 227
SWIDTH 585 0
DWIDTH 13 0
BBX 11 17 1 0
BITMAP
0100
3D80
7F80
2000
0000
1F00
3F80
73C0
61C0
00C0
3FC0
7FC0
60C0
E0C0
E1C0
7FC0
3EE0
ENDCHAR
STARTCHAR 00E4
ENCODING 228
SWIDTH 585 0
DWIDTH 13 0
BBX 11 16 1 0
BITMAP
3180
39C0
1080
0000
1F00
3F80
73C0
61C0
00C0
3FC0
7FC0
60C0
E0C0
E1C0
7FC0
3EE0
ENDCHAR
STARTCHAR 00E5
ENCODING 229
SWIDTH 585 0
DWIDTH 13 0
BBX 11 18 1 0
BITMAP
0400
0F00
1900
0B00
0600
0000
1F00
3F80
73C0
61C0
00C0
3FC0
7FC0
60C0
E0C0
E1C0
7FC0
3EE0
ENDCHAR
STARTCHAR 00E6
ENCODING 230
SWIDTH 585 0
DWIDTH 13 0
BBX 13 12 0 0
BITMAP
1CE0
7FF0
77B8
6738
0738
1FF8
7FF8
7700
E700
6710
7FF0
3DF8
ENDCHAR
STARTCHAR 00E7
ENCODING 231
SWIDTH 585 0
DWIDTH 13 0
BBX 11 17 1 -5
BITMAP
0F00
3F80
7BC0
70C0
E0E0
E000
E000
E000
60E0
71C0
3FC0
1F00
0600
0700
0380
0700
0600
ENDCHAR
STARTCHAR 00E8
ENCODING 232
SWIDTH 585 0
DWIDTH 13 0
BBX 11 16 1 0
BITMAP
7800
1800
0C00
0000
0F00
3F80
7BC0
70E0
E0E0
FFE0
FFE0
E000
7000
78C0
3FE0
1F80
ENDCHAR
STARTCHAR 00E9
ENCODING 233
SWIDTH 585 0
DWIDTH 13 0
BBX 11 16 1 0
BITMAP
0380
0700
0E00
0000
0F00
3F80
7BC0
70E0
E0E0
FFE0
FFE0
E000
7000
78C0
3FE0
1F80
ENDCHAR
STARTCHAR 00EA
ENCODING 234
SWIDTH 585 0
DWIDTH 13 0
BBX 11 16 1 0
BITMAP
0E00
3B00
3180
0000
0F00
3F80
7BC0
70E0
E0E0
FFE0
FFE0
E000
7000
78C0
3FE0
1F80
ENDCHAR
STARTCHAR 00EB
ENCODING 235
SWIDTH 585 0
DWIDTH 13 0
BBX 11 16 1 0
BITMAP
3180
39C0
1080
0000
0F00
3F80
7BC0
70E0
E0E0
FFE0
FFE0
E000
7000
78C0
3FE0
1F80
ENDCHAR
STARTCHAR 00EC
ENCODING 236
SWIDTH 585 0
DWIDTH 13 0
BBX 10 16 2 0
BITMAP
7800
1800
0C00
0000
FE00
FE00
FE00
0E00
0E00
0E00
0E00
0E00
0E00
0E00
FFC0
FFC0
ENDCHAR
STARTCHAR 00ED
ENCODING 237
SWIDTH 585 0
DWIDTH 13 0
BBX 10 16 2 0
BITMAP
0380
0700
0E00
0000
FE00
FE00
FE00
0E00
0E00
0E00
0E00
0E00
0E00
0E00
FFC0
FFC0
ENDCHAR
STARTCHAR 00EE
ENCODING 238
SWIDTH 585 0
DWIDTH 13 0
BBX 10 16 2 0
BITMAP
0E00
3B00
3180
0000
FE00
FE00
FE00
0E00
0E00
0E00
0E00
0E00
0E00
0E00
FFC0
FFC0
ENDCHAR
STARTCHAR 00EF
ENCODING 239
SWIDTH 585 0
DWIDTH 13 0
BBX 10 16 2 0
BITMAP
6300
7380
2100
0000
FE00
FE00
FE00
0E00
0E00
0E00
0E00
0E00
0E00
0E00
FFC0
FFC0
ENDCHAR
STARTCHAR 00F0
ENCODING 240
SWIDTH 585 0
DWIDTH 13 0
BBX 12 16 0 0
BITMAP
0620
0FF0
03C0
07C0
0CE0
00E0
1FE0
3FF0
7070
7070
E070
6070
70E0
70E0
3FC0
1F80
ENDCHAR
STARTCHAR 00F1
ENCODING 241
SWIDTH 585 0
DWIDTH 13 0
BBX 10 17 2 0
BITMAP
0200
7B00
FF00
4000
0000
CF00
DF80
F780
E1C0
C1C0
C1C0
C1C0
C1C0
C1C0
C1C0
C1C0
C1C0
ENDCHAR
STARTCHAR 00F2
ENCODING 242
SWIDTH 585 0
DWIDTH 13 0
BBX 11 16 1 0
BITMAP
7800
1800
0C00
0000
0F00
3F80
7BC0
70E0
E0E0
E0E0
E0E0
E0E0
E0E0
71C0
3FC0
1F00
ENDCHAR
STARTCHAR 00F3
ENCODING 243
SWIDTH 585 0
DWIDTH 13 0
BBX 11 16 1 0
BITMAP
0380
0700
0E00
0000
0F00
3F80
7BC0
70E0
E0E0
E0E0
E0E0
E0E0
E0E0
71C0
3FC0
1F00
ENDCHAR
STARTCHAR 00F4
ENCODING 244
SWIDTH 585 0
DWIDTH 13 0
BBX 11 16 1 0
BITMAP
0E00
3B00
3180
0000
0F00
3F80
7BC0
70E0
E0E0
E0E0
E0E0
E0E0
E0E0
71C0
3FC0
1F00
ENDCHAR
STARTCHAR 00F5
ENCODING 245
SWIDTH 585 0
DWIDTH 13 0
BBX 11 17 1 0
BITMAP
0100
3D80
7F80
2000
0000
0F00
3F80
7BC0
70E0
E0E0
E0E0
E0E0
E0E0
E0E0
71C0
3FC0
1F00
ENDCHAR
STARTCHAR 00F6
ENCODING 246
SWIDTH 585 0
DWIDTH 13 0
BBX 11 16 1 0
BITMAP
3180
39C0
1080
0000
0F00
3F80
7BC0
70E0
E0E0
E0E0
E0E0
E0E0
E0E0
71C0
3FC0
1F00
ENDCHAR
STARTCHAR 00F7
ENCODING 247
SWIDTH 585 0
DWIDTH 13 0
BBX 11 11 1 2
BITMAP
0E00
0E00
0600
0000
FFE0
FFE0
FFE0
0000
0000
0E00
0E00
ENDCHAR
STARTCHAR 00F8
ENCODING 248
SWIDTH 585 0
DWIDTH 13 0
BBX 11 14 1 -1
BITMAP
00C0
0F80
3F80
7BC0
73E0
E2E0
E6E0
E4E0
ECE0
E8E0
79C0
3FC0
3F00
2000
ENDCHAR
STARTCHAR 00F9
ENCODING 249
SWIDTH 585 0
DWIDTH 13 0
BBX 10 16 2 0
BITMAP
F000
3000
1800
0000
C1C0
C1C0
C1C0
C1C0
C1C0
C1C0
C1C0
C1C0
E1C0
E3C0
FFC0
7DC0
ENDCHAR
STARTCHAR 00FA
ENCODING 250
SWIDTH 585 0
DWIDTH 13 0
BBX 10 16 2 0
BITMAP
0700
0E00
1C00
0000
C1C0
C1C0
C1C0
C1C0
C1C0
C1C0
C1C0
C1C0
E1C0
E3C0
FFC0
7DC0
ENDCHAR
STARTCHAR 00FB
ENCODING 251
SWIDTH 585 0
DWIDTH 13 0
BBX 10 16 2 0
BITMAP
1C00
7600
6300
0000
C1C0
C1C0
C1C0
C1C0
C1C0
C1C0
C1C0
C1C0
E1C0
E3C0
FFC0
7DC0
ENDCHAR
STARTCHAR 00FC
ENCODING 252
SWIDTH 585 0
DWIDTH 13 0
BBX 10 16 2 0
BITMAP
6300
7380
2100
0000
C1C0
C1C0
C1C0
C1C0
C1C0
C1C0
C1C0
C1C0
E1C0
E3C0
FFC0
7DC0
ENDCHAR
STARTCHAR 00FD
ENCODING 253
SWIDTH 585 0
DWIDTH 13 0
BBX 12 21 1 -5
BITMAP
01C0
0380
0700
0000
E070
E070
60E0
70E0
71C0
39C0
3980
1B80
1F00
0F00
0F00
0600
0E00
1C00
7C00
7800
6000
ENDCHAR
STARTCHAR 00FE
ENCODING 254
SWIDTH 585 0
DWIDTH 13 0
BBX 10 21 2 -4
BITMAP
C000
C000
C000
C000
C000
CE00
FF80
F780
E1C0
C1C0
C1C0
C1C0
C1C0
C1C0
E380
FF80
DF00
C000
C000
C000
C000
ENDCHAR
STARTCHAR 00FF
ENCODING 255
SWIDTH 585 0
DWIDTH 13 0
BBX 12 21 1 -5
BITMAP
3180
39C0
1080
0000
E070
E070
60E0
70E0
71C0
39C0
3980
1B80
1F00
0F00
0F00
0600
0E00
1C00
7C00
7800
6000
ENDCHAR
STARTCHAR 0100
ENCODING 256
SWIDTH 585 0
DWIDTH 13 0
BBX 13 19 0 0
BITMAP
1FE0
1FE0
0000
0700
0700
0780
0780
0F80
0DC0
0DC0
1CC0
1CE0
18E0
3FE0
3FF0
3FF0
7070
7038
F038
ENDCHAR
STARTCHAR 0101
ENCODING 257
SWIDTH 585 0
DWIDTH 13 0
BBX 11 16 1 0
BITMAP
3FC0
3FC0
0000
0000
1F00
3F80
73C0
61C0
00C0
3FC0
7FC0
60C0
E0C0
E1C0
7FC0
3EE0
ENDCHAR
STARTCHAR 0102
ENCODING 258
SWIDTH 585 0
DWIDTH 13 0
BBX 13 20 0 0
BITMAP
18C0
1CC0
0FC0
0300
0700
0700
0780
0780
0F80
0DC0
0DC0
1CC0
1CE0
18E0
3FE0
3FF0
3FF0
7070
7038
F038
ENDCHAR
STARTCHAR 0103
ENCODING 259
SWIDTH 585 0
DWIDTH 13 0
BBX 11 17 1 0
BITMAP
3180
3980
1F80
0600
0000
1F00
3F80
73C0
61C0
00C0
3FC0
7FC0
60C0
E0C0
E1C0
7FC0
3EE0
ENDCHAR
STARTCHAR 0104
ENCODING 260
SWIDTH 585 0
DWIDTH 13 0
BBX 13 21 0 -5
BITMAP
0700
0700
0780
0780
0F80
0DC0
0DC0
1CC0
1CE0
18E0
3FE0
3FF0
3FF0
7070
7038
F038
0060
0060
00E0
0078
0030
ENDCHAR
STARTCHAR 0105
ENCODING 261
SWIDTH 585 0
DWIDTH 13 0
BBX 11 17 1 -5
BITMAP
1F00
3F80
73C0
61C0
00C0
3FC0
7FC0
60C0
E0C0
E1C0
7FC0
3EE0
0180
0180
0380
01E0
00C0
ENDCHAR
STARTCHAR 0106
ENCODING 262
SWIDTH 585 0
DWIDTH 13 0
BBX 11 20 1 0
BITMAP
01C0
0380
0700
0000
0F00
3FC0
7BC0
70E0
E0E0
E000
E000
E000
E000
E000
E000
E0E0
E0E0
71E0
3FC0
1F80
ENDCHAR
STARTCHAR 0107
ENCODING 263
SWIDTH 585 0
DWIDTH 13 0
BBX 11 16 1 0
BITMAP
0380
0700
0E00
0000
0F00
3F80
7BC0
70C0
E0E0
E000
E000
E000
60E0
71C0
3FC0
1F00
ENDCHAR
STARTCHAR 0108
ENCODING 264
SWIDTH 585 0
DWIDTH 13 0
BBX 11 20 1 0
BITMAP
0700
1D80
18C0
0000
0F00
3FC0
7BC0
70E0
E0E0
E000
E000
E000
E000
E000
E000
E0E0
E0E0
71E0
3FC0
1F80
ENDCHAR
STARTCHAR 0109
ENCODING 265
SWIDTH 585 0
DWIDTH 13 0
BBX 11 16 1 0
BITMAP
0E00
3B00
3180
0000
0F00
3F80
7BC0
70C0
E0E0
E000
E000
E000
60E0
71C0
3FC0
1F00
ENDCHAR
STARTCHAR 010A
ENCODING 266
SWIDTH 585 0
DWIDTH 13 0
BBX 11 20 1 0
BITMAP
0700
0700
0300
0000
0F00
3FC0
7BC0
70E0
E0E0
E000
E000
E000
E000
E000
E000
E0E0
E0E0
71E0
3FC0
1F80
ENDCHAR
STARTCHAR 010B
ENCODING 267
SWIDTH 585 0
DWIDTH 13 0
BBX 11 16 1 0
BITMAP
0E00
0E00
0600
0000
0F00
3F80
7BC0
70C0
E0E0
E000
E000
E000
60E0
71C0
3FC0
1F00
ENDCHAR
STARTCHAR 010C
ENCODING 268
SWIDTH 585 0
DWIDTH 13 0
BBX 11 20 1 0
BITMAP
1DE0
0780
0300
0000
0F00
3FC0
7BC0
70E0
E0E0
E000
E000
E000
E000
E000
E000
E0E0
E0E0
71E0
3FC0
1F80
ENDCHAR
STARTCHAR 010D
ENCODING 269
SWIDTH 585 0
DWIDTH 13 0
BBX 11 16 1 0
BITMAP
3BC0
0F00
0600
0000
0F00
3F80
7BC0
70C0
E0E0
E000
E000
E000
60E0
71C0
3FC0
1F00
ENDCHAR
STARTCHAR 010E
ENCODING 270
SWIDTH 585 0
DWIDTH 13 0
BBX 11 20 1 0
BITMAP
7780
1E00
0C00
0000
FC00
FF00
FF80
E1C0
E0E0
E0E0
E0E0
E0E0
E0E0
E0E0
E0E0
E0E0
E1C0
E3C0
FF80
FE00
ENDCHAR
STARTCHAR 010F
ENCODING 271
SWIDTH 585 0
DWIDTH 13 0
BBX 15 17 0 0
BITMAP
00E6
00E6
00E6
00E6
00EE
1EEC
3FE0
7BE0
70E0
E0E0
E0E0
E0E0
E0E0
60E0
71E0
7FE0
3EE0
ENDCHAR
STARTCHAR 0110
ENCODING 272
SWIDTH 585 0
DWIDTH 13 0
BBX 12 16 0 0
BITMAP
3E00
3FC0
3FE0
30E0
3070
3070
3070
FE30
FE30
3030
3070
3070
30F0
31E0
3FC0
3F00
ENDCHAR
STARTCHAR 0111
ENCODING 273
SWIDTH 585 0
DWIDTH 13 0
BBX 12 17 1 0
BITMAP
00C0
00C0
07F0
07F0
00C0
1CC0
3FC0
7BC0
E1C0
E0C0
E0C0
E0C0
E0C0
E0C0
71C0
7FC0
3EC0
ENDCHAR
STARTCHAR 0112
ENCODING 274
SWIDTH 585 0
DWIDTH 13 0
BBX 10 19 2 0
BITMAP
7F80
7F80
0000
FFC0
FFC0
FFC0
C000
C000
C000
C000
FF80
FF80
C000
C000
C000
C000
C000
FFC0
FFC0
ENDCHAR
STARTCHAR 0113
ENCODING 275
SWIDTH 585 0
DWIDTH 13 0
BBX 11 16 1 0
BITMAP
3FC0
3FC0
0000
0000
0F00
3F80
7BC0
70E0
E0E0
FFE0
FFE0
E000
7000
78C0
3FE0
1F80
ENDCHAR
STARTCHAR 0114
ENCODING 276
SWIDTH 585 0
DWIDTH 13 0
BBX 10 20 2 0
BITMAP
6300
7300
3F00
0C00
FFC0
FFC0
FFC0
C000
C000
C000
C000
FF80
FF80
C000
C000
C000
C000
C000
FFC0
FFC0
ENDCHAR
STARTCHAR 0115
ENCODING 277
SWIDTH 585 0
DWIDTH 13 0
BBX 11 17 1 0
BITMAP
3180
3980
1F80
0600
0000
0F00
3F80
7BC0
70E0
E0E0
FFE0
FFE0
E000
7000
78C0
3FE0
1F80
ENDCHAR
STARTCHAR 0116
ENCODING 278
SWIDTH 585 0
DWIDTH 13 0
BBX 10 20 2 0
BITMAP
1C00
1C00
0C00
0000
FFC0
FFC0
FFC0
C000
C000
C000
C000
FF80
FF80
C000
C000
C000
C000
C000
FFC0
FFC0
ENDCHAR
STARTCHAR 0117
ENCODING 279
SWIDTH 585 0
DWIDTH 13 0
BBX 11 16 1 0
BITMAP
0E00
0E00
0600
0000
0F00
3F80
7BC0
70E0
E0E0
FFE0
FFE0
E000
7000
78C0
3FE0
1F80
ENDCHAR
STARTCHAR 0118
ENCODING 280
SWIDTH 585 0
DWIDTH 13 0
BBX 10 21 2 -5
BITMAP
FFC0
FFC0
FFC0
C000
C000
C000
C000
FF80
FF80
C000
C000
C000
C000
C000
FFC0
FFC0
0300
0600
0600
0780
0100
ENDCHAR
STARTCHAR 0119
ENCODING 281
SWIDTH 585 0
DWIDTH 13 0
BBX 11 16 1 -4
BITMAP
0F00
3F80
7BC0
70E0
E0E0
FFE0
FFE0
E000
7000
78C0
3FE0
1F80
0600
0600
0780
0780
ENDCHAR
STARTCHAR 011A
ENCODING 282
SWIDTH 585 0
DWIDTH 13 0
BBX 10 20 2 0
BITMAP
7780
1E00
0C00
0000
FFC0
FFC0
FFC0
C000
C000
C000
C000
FF80
FF80
C000
C000
C000
C000
C000
FFC0
FFC0
ENDCHAR
STARTCHAR 011B
ENCODING 283
SWIDTH 585 0
DWIDTH 13 0
BBX 11 16 1 0
BITMAP
3BC0
0F00
0600
0000
0F00
3F80
7BC0
70E0
E0E0
FFE0
FFE0
E000
7000
78C0
3FE0
1F80
ENDCHAR
STARTCHAR 011C
ENCODING 284
SWIDTH 585 0
DWIDTH 13 0
BBX 11 20 1 0
BITMAP
0700
1D80
18C0
0000
0F00
3FC0
7BC0
70E0
E0E0
E000
E000
E000
E3E0
E3E0
E0E0
E0E0
60E0
70E0
3FE0
1F80
ENDCHAR
STARTCHAR 011D
ENCODING 285
SWIDTH 585 0
DWIDTH 13 0
BBX 11 21 1 -5
BITMAP
0E00
3B00
3180
0000
1EE0
3FE0
7BE0
70E0
E0E0
E0E0
E0E0
E0E0
60E0
71E0
3FE0
1EE0
00E0
21C0
7FC0
3F80
0C00
ENDCHAR
STARTCHAR 011E
ENCODING 286
SWIDTH 585 0
DWIDTH 13 0
BBX 11 20 1 0
BITMAP
3180
3980
1F80
0600
0F00
3FC0
7BC0
70E0
E0E0
E000
E000
E000
E3E0
E3E0
E0E0
E0E0
60E0
70E0
3FE0
1F80
ENDCHAR
STARTCHAR 011F
ENCODING 287
SWIDTH 585 0
DWIDTH 13 0
BBX 11 22 1 -5
BITMAP
3180
3980
1F80
0600
0000
1EE0
3FE0
7BE0
70E0
E0E0
E0E0
E0E0
E0E0
60E0
71E0
3FE0
1EE0
00E0
21C0
7FC0
3F80
0C00
ENDCHAR
STARTCHAR 0120
ENCODING 288
SWIDTH 585 0
DWIDTH 13 0
BBX 11 20 1 0
BITMAP
0E00
0E00
0600
0000
0F00
3FC0
7BC0
70E0
E0E0
E000
E000
E000
E3E0
E3E0
E0E0
E0E0
60E0
70E0
3FE0
1F80
ENDCHAR
STARTCHAR 0121
ENCODING 289
SWIDTH 585 0
DWIDTH 13 0
BBX 11 21 1 -5
BITMAP
0E00
0E00
0600
0000
1EE0
3FE0
7BE0
70E0
E0E0
E0E0
E0E0
E0E0
60E0
71E0
3FE0
1EE0
00E0
21C0
7FC0
3F80
0C00
ENDCHAR
STARTCHAR 0122
ENCODING 290
SWIDTH 585 0
DWIDTH 13 0
BBX 11 21 1 -5
BITMAP
0F00
3FC0
7BC0
70E0
E0E0
E000
E000
E000
E3E0
E3E0
E0E0
E0E0
60E0
70E0
3FE0
1F80
0600
0600
0600
0C00
0400
ENDCHAR
STARTCHAR 0123
ENCODING 291
SWIDTH 585 0
DWIDTH 13 0
BBX 11 24 1 -5
BITMAP
0400
0600
0E00
0C00
0C00
0000
0000
1EE0
3FE0
7BE0
70E0
E0E0
E0E0
E0E0
E0E0
60E0
71E0
3FE0
1EE0
00E0
21C0
7FC0
3F80
0C00
ENDCHAR
STARTCHAR 0124
ENCODING 292
SWIDTH 585 0
DWIDTH 13 0
BBX 11 20 1 0
BITMAP
0E00
3B00
3180
0000
E0E0
E0E0
E0E0
E0E0
E0E0
E0E0
E0E0
FFE0
FFE0
E0E0
E0E0
E0E0
E0E0
E0E0
E0E0
E0E0
ENDCHAR
STARTCHAR 0125
ENCODING 293
SWIDTH 585 0
DWIDTH 13 0
BBX 12 21 0 0
BITMAP
3800
EC00
C600
0000
3000
3000
3000
3000
3000
33C0
37E0
3DE0
3070
3070
3070
3070
3070
3070
3070
3070
3070
ENDCHAR
STARTCHAR 0126
ENCODING 294
SWIDTH 585 0
DWIDTH 13 0
BBX 13 16 0 0
BITMAP
7060
7060
7060
FFF8
FFF8
7060
7060
7FE0
7FE0
7060
7060
7060
7060
7060
7060
7060
ENDCHAR
STARTCHAR 0127
ENCODING 295
SWIDTH 585 0
DWIDTH 13 0
BBX 12 17 0 0
BITMAP
3800
3800
FE00
FE00
3800
3BC0
3FE0
3CF0
3870
3870
3870
3870
3870
3870
3870
3870
3870
ENDCHAR
STARTCHAR 0128
ENCODING 296
SWIDTH 585 0
DWIDTH 13 0
BBX 9 21 2 0
BITMAP
0200
7B00
FF00
4000
0000
FF80
FF80
FF80
1C00
1C00
1C00
1C00
1C00
1C00
1C00
1C00
1C00
1C00
1C00
FF80
FF80
ENDCHAR
STARTCHAR 0129
ENCODING 297
SWIDTH 585 0
DWIDTH 13 0
BBX 10 17 2 0
BITMAP
0100
3D80
7F80
2000
0000
FE00
FE00
FE00
0E00
0E00
0E00
0E00
0E00
0E00
0E00
FFC0
FFC0
ENDCHAR
STARTCHAR 012A
ENCODING 298
SWIDTH 585 0
DWIDTH 13 0
BBX 9 19 2 0
BITMAP
7F80
7F80
0000
FF80
FF80
FF80
1C00
1C00
1C00
1C00
1C00
1C00
1C00
1C00
1C00
1C00
1C00
FF80
FF80
ENDCHAR
STARTCHAR 012B
ENCODING 299
SWIDTH 585 0
DWIDTH 13 0
BBX 10 16 2 0
BITMAP
7F80
7F80
0000
0000
FE00
FE00
FE00
0E00
0E00
0E00
0E00
0E00
0E00
0E00
FFC0
FFC0
ENDCHAR
STARTCHAR 012C
ENCODING 300
SWIDTH 585 0
DWIDTH 13 0
BBX 9 20 2 0
BITMAP
6300
7300
3F00
0C00
FF80
FF80
FF80
1C00
1C00
1C00
1C00
1C00
1C00
1C00
1C00
1C00
1C00
1C00
FF80
FF80
ENDCHAR
STARTCHAR 012D
ENCODING 301
SWIDTH 585 0
DWIDTH 13 0
BBX 10 17 2 0
BITMAP
6300
7300
3F00
0C00
0000
FE00
FE00
FE00
0E00
0E00
0E00
0E00
0E00
0E00
0E00
FFC0
FFC0
ENDCHAR
STARTCHAR 012E
ENCODING 302
SWIDTH 585 0
DWIDTH 13 0
BBX 9 21 2 -5
BITMAP
FF80
FF80
FF80
1C00
1C00
1C00
1C00
1C00
1C00
1C00
1C00
1C00
1C00
1C00
FF80
FF80
1800
1800
3800
1E00
0C00
ENDCHAR
STARTCHAR 012F
ENCODING 303
SWIDTH 585 0
DWIDTH 13 0
BBX 10 21 2 -5
BITMAP
0C00
1E00
0C00
0000
FE00
FE00
FE00
0E00
0E00
0E00
0E00
0E00
0E00
0E00
FFC0
FFC0
1800
3800
3800
1E00
0C00
ENDCHAR
STARTCHAR 0130
ENCODING 304
SWIDTH 585 0
DWIDTH 13 0
BBX 9 20 2 0
BITMAP
1C00
1C00
0C00
0000
FF80
FF80
FF80
1C00
1C00
1C00
1C00
1C00
1C00
1C00
1C00
1C00
1C00
1C00
FF80
FF80
ENDCHAR
STARTCHAR 0131
ENCODING 305
SWIDTH 585 0
DWIDTH 13 0
BBX 10 12 2 0
BITMAP
FE00
FE00
FE00
0E00
0E00
0E00
0E00
0E00
0E00
0E00
FFC0
FFC0
ENDCHAR
STARTCHAR 0132
ENCODING 306
SWIDTH 585 0
DWIDTH 13 0
BBX 11 16 1 0
BITMAP
C060
C060
C060
C060
C060
C060
C060
C060
C060
C060
C060
C060
C060
CC60
CFC0
C7C0
ENDCHAR
STARTCHAR 0133
ENCODING 307
SWIDTH 585 0
DWIDTH 13 0
BBX 11 21 1 -5
BITMAP
1060
38E0
1040
0000
F3E0
F3E0
3060
3060
3060
3060
3060
3060
3060
3060
FE60
FE60
0060
00E0
00C0
0FC0
0F00
ENDCHAR
STARTCHAR 0134
ENCODING 308
SWIDTH 585 0
DWIDTH 13 0
BBX 13 20 1 0
BITMAP
00E0
03B0
0318
0000
00E0
00E0
00E0
00E0
00E0
00E0
00E0
00E0
00E0
00E0
00E0
E0E0
E0E0
71C0
7F80
3F00
ENDCHAR
STARTCHAR 0135
ENCODING 309
SWIDTH 585 0
DWIDTH 13 0
BBX 9 21 2 -5
BITMAP
0E00
3B00
3180
0000
7E00
7E00
7E00
0E00
0E00
0E00
0E00
0E00
0E00
0E00
0E00
0E00
0E00
0E00
FE00
FC00
F000
ENDCHAR
STARTCHAR 0136
ENCODING 310
SWIDTH 585 0
DWIDTH 13 0
BBX 12 21 1 -5
BITMAP
E070
E0E0
E1C0
E3C0
E380
E700
EE00
FE00
FF00
FF00
F380
E3C0
E1C0
E1E0
E0E0
E070
0600
0600
0600
0C00
0400
ENDCHAR
STARTCHAR 0137
ENCODING 311
SWIDTH 585 0
DWIDTH 13 0
BBX 11 22 2 -5
BITMAP
C000
C000
C000
C000
C000
C1C0
C380
C700
CE00
DC00
FC00
FE00
EE00
C700
C380
C3C0
C1E0
0C00
0C00
0C00
1800
0800
ENDCHAR
STARTCHAR 0138
ENCODING 312
SWIDTH 585 0
DWIDTH 13 0
BBX 11 12 2 0
BITMAP
E1E0
E3C0
E780
EF00
FE00
FC00
FE00
FF00
E700
E380
E3C0
E1E0
ENDCHAR
STARTCHAR 0139
ENCODING 313
SWIDTH 585 0
DWIDTH 13 0
BBX 10 19 2 0
BITMAP
3800
7000
6000
E000
E000
E000
E000
E000
E000
E000
E000
E000
E000
E000
E000
E000
E000
FFC0
FFC0
ENDCHAR
STARTCHAR 013A
ENCODING 314
SWIDTH 585 0
DWIDTH 13 0
BBX 10 20 2 0
BITMAP
0380
0700
0600
FE00
FE00
FE00
0E00
0E00
0E00
0E00
0E00
0E00
0E00
0E00
0E00
0E00
0E00
0E00
FFC0
FFC0
ENDCHAR
STARTCHAR 013B
ENCODING 315
SWIDTH 585 0
DWIDTH 13 0
BBX 10 21 2 -5
BITMAP
E000
E000
E000
E000
E000
E000
E000
E000
E000
E000
E000
E000
E000
E000
FFC0
FFC0
0C00
0C00
0C00
1800
0800
ENDCHAR
STARTCHAR 013C
ENCODING 316
SWIDTH 585 0
DWIDTH 13 0
BBX 10 22 2 -5
BITMAP
FE00
FE00
FE00
0E00
0E00
0E00
0E00
0E00
0E00
0E00
0E00
0E00
0E00
0E00
0E00
FFC0
FFC0
0C00
0C00
0C00
1800
0800
ENDCHAR
STARTCHAR 013D
ENCODING 317
SWIDTH 585 0
DWIDTH 13 0
BBX 10 16 2 0
BITMAP
E180
E180
E180
E180
E380
E300
E000
E000
E000
E000
E000
E000
E000
E000
FFC0
FFC0
ENDCHAR
STARTCHAR 013E
ENCODING 318
SWIDTH 585 0
DWIDTH 13 0
BBX 12 17 1 0
BITMAP
FE30
FE30
FE30
0E30
0E70
0E60
0E00
0E00
0E00
0E00
0E00
0E00
0E00
0E00
0E00
FFC0
FFC0
ENDCHAR
STARTCHAR 013F
ENCODING 319
SWIDTH 585 0
DWIDTH 13 0
BBX 10 16 2 0
BITMAP
E000
E000
E000
E000
E000
E000
EE00
EE00
E600
E000
E000
E000
E000
E000
FFC0
FFC0
ENDCHAR
STARTCHAR 0140
ENCODING 320
SWIDTH 585 0
DWIDTH 13 0
BBX 11 17 1 0
BITMAP
FE00
FE00
FE00
0E00
0E00
0E00
0E00
0EE0
0EE0
0E60
0E00
0E00
0E00
0E00
0E00
FFC0
FFC0
ENDCHAR
STARTCHAR 0141
ENCODING 321
SWIDTH 585 0
DWIDTH 13 0
BBX 11 16 1 0
BITMAP
7000
7000
7000
7000
7000
7000
7C00
7C00
F000
F000
7000
7000
7000
7000
7FE0
7FE0
ENDCHAR
STARTCHAR 0142
ENCODING 322
SWIDTH 585 0
DWIDTH 13 0
BBX 10 17 2 0
BITMAP
FE00
FE00
FE00
0E00
0E00
0EC0
0FC0
0F00
7E00
FE00
8E00
0E00
0E00
0E00
0E00
FFC0
FFC0
ENDCHAR
STARTCHAR 0143
ENCODING 323
SWIDTH 585 0
DWIDTH 13 0
BBX 11 20 1 0
BITMAP
0380
0700
0E00
0000
E0E0
F0E0
F0E0
F8E0
F8E0
FCE0
ECE0
ECE0
E6E0
E6E0
E7E0
E3E0
E3E0
E1E0
E1E0
E0E0
ENDCHAR
STARTCHAR 0144
ENCODING 324
SWIDTH 585 0
DWIDTH 13 0
BBX 10 16 2 0
BITMAP
0700
0E00
1C00
0000
CF00
DF80
F780
E1C0
C1C0
C1C0
C1C0
C1C0
C1C0
C1C0
C1C0
C1C0
ENDCHAR
STARTCHAR 0145
ENCODING 325
SWIDTH 585 0
DWIDTH 13 0
BBX 11 21 1 -5
BITMAP
E0E0
F0E0
F0E0
F8E0
F8E0
FCE0
ECE0
ECE0
E6E0
E6E0
E7E0
E3E0
E3E0
E1E0
E1E0
E0E0
0600
0600
0600
0C00
0400
ENDCHAR
STARTCHAR 0146
ENCODING 326
SWIDTH 585 0
DWIDTH 13 0
BBX 10 17 2 -5
BITMAP
CF00
DF80
F780
E1C0
C1C0
C1C0
C1C0
C1C0
C1C0
C1C0
C1C0
C1C0
0C00
0C00
0C00
1800
0800
ENDCHAR
STARTCHAR 0147
ENCODING 327
SWIDTH 585 0
DWIDTH 13 0
BBX 11 20 1 0
BITMAP
3BC0
0F00
0600
0000
E0E0
F0E0
F0E0
F8E0
F8E0
FCE0
ECE0
ECE0
E6E0
E6E0
E7E0
E3E0
E3E0
E1E0
E1E0
E0E0
ENDCHAR
STARTCHAR 0148
ENCODING 328
SWIDTH 585 0
DWIDTH 13 0
BBX 10 16 2 0
BITMAP
7780
1E00
0C00
0000
CF00
DF80
F780
E1C0
C1C0
C1C0
C1C0
C1C0
C1C0
C1C0
C1C0
C1C0
ENDCHAR
STARTCHAR 0149
ENCODING 329
SWIDTH 585 0
DWIDTH 13 0
BBX 13 17 -1 0
BITMAP
6000
6000
6000
6000
E000
D9E0
1BF0
1EF0
1C38
1838
1838
1838
1838
1838
1838
1838
1838
ENDCHAR
STARTCHAR 014A
ENCODING 330
SWIDTH 585 0
DWIDTH 13 0
BBX 10 21 2 -5
BITMAP
E1C0
E1C0
E1C0
F1C0
F1C0
F9C0
D9C0
DDC0
CDC0
CFC0
CFC0
C7C0
C7C0
C3C0
C3C0
C1C0
01C0
01C0
0F80
0F80
0E00
ENDCHAR
STARTCHAR 014B
ENCODING 331
SWIDTH 585 0
DWIDTH 13 0
BBX 10 17 2 -5
BITMAP
CE00
DF80
F780
C180
C1C0
C1C0
C1C0
C1C0
C1C0
C1C0
C1C0
C1C0
01C0
0180
0F80
0F80
0E00
ENDCHAR
STARTCHAR 014C
ENCODING 332
SWIDTH 585 0
DWIDTH 13 0
BBX 11 20 1 0
BITMAP
3FC0
3FC0
0000
0000
0F00
3F80
7FC0
70E0
E0E0
E0E0
E0E0
E0E0
E0E0
E0E0
E0E0
E0E0
E0E0
71C0
3FC0
1F00
ENDCHAR
STARTCHAR 014D
ENCODING 333
SWIDTH 585 0
DWIDTH 13 0
BBX 11 16 1 0
BITMAP
3FC0
3FC0
0000
0000
0F00
3F80
7BC0
70E0
E0E0
E0E0
E0E0
E0E0
E0E0
71C0
3FC0
1F00
ENDCHAR
STARTCHAR 014E
ENCODING 334
SWIDTH 585 0
DWIDTH 13 0
BBX 11 21 1 0
BITMAP
3180
3980
1F80
0600
0000
0F00
3F80
7FC0
70E0
E0E0
E0E0
E0E0
E0E0
E0E0
E0E0
E0E0
E0E0
E0E0
71C0
3FC0
1F00
ENDCHAR
STARTCHAR 014F
ENCODING 335
SWIDTH 585 0
DWIDTH 13 0
BBX 11 17 1 0
BITMAP
3180
3980
1F80
0600
0000
0F00
3F80
7BC0
70E0
E0E0
E0E0
E0E0
E0E0
E0E0
71C0
3FC0
1F00
ENDCHAR
STARTCHAR 0150
ENCODING 336
SWIDTH 585 0
DWIDTH 13 0
BBX 11 20 1 0
BITMAP
0EE0
1980
3300
0000
0F00
3F80
7FC0
70E0
E0E0
E0E0
E0E0
E0E0
E0E0
E0E0
E0E0
E0E0
E0E0
71C0
3FC0
1F00
ENDCHAR
STARTCHAR 0151
ENCODING 337
SWIDTH 585 0
DWIDTH 13 0
BBX 11 16 1 0
BITMAP
0EE0
1980
3300
0000
0F00
3F80
7BC0
70E0
E0E0
E0E0
E0E0
E0E0
E0E0
71C0
3FC0
1F00
ENDCHAR
STARTCHAR 0152
ENCODING 338
SWIDTH 585 0
DWIDTH 13 0
BBX 12 16 1 0
BITMAP
3FF0
7FF0
E7F0
E700
C700
C700
C700
C7E0
C7E0
C700
C700
C700
C700
E700
7FF0
3FF0
ENDCHAR
STARTCHAR 0153
ENCODING 339
SWIDTH 585 0
DWIDTH 13 0
BBX 13 12 0 0
BITMAP
1CE0
7FF0
77B0
6738
E338
E3F8
E3F8
E300
6700
6790
7FF0
3FF0
ENDCHAR
STARTCHAR 0154
ENCODING 340
SWIDTH 585 0
DWIDTH 13 0
BBX 11 20 2 0
BITMAP
0700
0E00
1C00
0000
FC00
FF80
FFC0
C1C0
C1C0
C1C0
C1C0
C3C0
FF80
FE00
C700
C380
C380
C1C0
C1C0
C0E0
ENDCHAR
STARTCHAR 0155
ENCODING 341
SWIDTH 585 0
DWIDTH 13 0
BBX 9 16 3 0
BITMAP
0E00
1C00
3800
0000
E780
EF80
FF80
F000
E000
E000
E000
E000
E000
E000
E000
E000
ENDCHAR
STARTCHAR 0156
ENCODING 342
SWIDTH 585 0
DWIDTH 13 0
BBX 11 21 2 -5
BITMAP
FC00
FF80
FFC0
C1C0
C1C0
C1C0
C1C0
C3C0
FF80
FE00
C700
C380
C380
C1C0
C1C0
C0E0
0C00
0C00
0C00
1800
0800
ENDCHAR
STARTCHAR 0157
ENCODING 343
SWIDTH 585 0
DWIDTH 13 0
BBX 9 17 3 -5
BITMAP
E780
EF80
FF80
F000
E000
E000
E000
E000
E000
E000
E000
E000
6000
6000
6000
C000
4000
ENDCHAR
STARTCHAR 0158
ENCODING 344
SWIDTH 585 0
DWIDTH 13 0
BBX 11 20 2 0
BITMAP
7780
1E00
0C00
0000
FC00
FF80
FFC0
C1C0
C1C0
C1C0
C1C0
C3C0
FF80
FE00
C700
C380
C380
C1C0
C1C0
C0E0
ENDCHAR
STARTCHAR 0159
ENCODING 345
SWIDTH 585 0
DWIDTH 13 0
BBX 9 16 3 0
BITMAP
EF00
3C00
1800
0000
E780
EF80
FF80
F000
E000
E000
E000
E000
E000
E000
E000
E000
ENDCHAR
STARTCHAR 015A
ENCODING 346
SWIDTH 585 0
DWIDTH 13 0
BBX 11 20 1 0
BITMAP
01C0
0380
0700
0000
0F00
3FC0
79E0
70E0
E060
7000
7800
3F00
1FC0
03E0
00E0
E060
E060
70E0
7FC0
1F80
ENDCHAR
STARTCHAR 015B
ENCODING 347
SWIDTH 585 0
DWIDTH 13 0
BBX 11 16 1 0
BITMAP
0380
0700
0E00
0000
0F00
3FC0
71C0
70E0
7000
7F00
1FC0
03E0
E0E0
70E0
7FC0
1F80
ENDCHAR
STARTCHAR 015C
ENCODING 348
SWIDTH 585 0
DWIDTH 13 0
BBX 11 20 1 0
BITMAP
0700
1D80
18C0
0000
0F00
3FC0
79E0
70E0
E060
7000
7800
3F00
1FC0
03E0
00E0
E060
E060
70E0
7FC0
1F80
ENDCHAR
STARTCHAR 015D
ENCODING 349
SWIDTH 585 0
DWIDTH 13 0
BBX 11 16 1 0
BITMAP
0E00
3B00
3180
0000
0F00
3FC0
71C0
70E0
7000
7F00
1FC0
03E0
E0E0
70E0
7FC0
1F80
ENDCHAR
STARTCHAR 015E
ENCODING 350
SWIDTH 585 0
DWIDTH 13 0
BBX 11 21 1 -5
BITMAP
0F00
3FC0
79E0
70E0
E060
7000
7800
3F00
1FC0
03E0
00E0
E060
E060
70E0
7FC0
1F80
0600
0700
0380
0700
0600
ENDCHAR
STARTCHAR 015F
ENCODING 351
SWIDTH 585 0
DWIDTH 13 0
BBX 11 17 1 -5
BITMAP
0F00
3FC0
71C0
70E0
7000
7F00
1FC0
03E0
E0E0
70E0
7FC0
1F80
0C00
0E00
0700
0E00
0C00
ENDCHAR
STARTCHAR 0160
ENCODING 352
SWIDTH 585 0
DWIDTH 13 0
BBX 11 20 1 0
BITMAP
3BC0
0F00
0600
0000
0F00
3FC0
79E0
70E0
E060
7000
7800
3F00
1FC0
03E0
00E0
E060
E060
70E0
7FC0
1F80
ENDCHAR
STARTCHAR 0161
ENCODING 353
SWIDTH 585 0
DWIDTH 13 0
BBX 11 16 1 0
BITMAP
3BC0
0F00
0600
0000
0F00
3FC0
71C0
70E0
7000
7F00
1FC0
03E0
E0E0
70E0
7FC0
1F80
ENDCHAR
STARTCHAR 0162
ENCODING 354
SWIDTH 585 0
DWIDTH 13 0
BBX 13 21 0 -5
BITMAP
FFF8
FFF8
FFF8
0700
0700
0700
0700
0700
0700
0700
0700
0700
0700
0700
0700
0700
0300
0380
01C0
0380
0300
ENDCHAR
STARTCHAR 0163
ENCODING 355
SWIDTH 585 0
DWIDTH 13 0
BBX 11 19 1 -5
BITMAP
1C00
1C00
FFC0
FFC0
1C00
1C00
1C00
1C00
1C00
1C00
1C00
1E00
0FE0
07E0
0600
0700
0380
0700
0600
ENDCHAR
STARTCHAR 0164
ENCODING 356
SWIDTH 585 0
DWIDTH 13 0
BBX 13 20 0 0
BITMAP
1DE0
0780
0300
0000
FFF8
FFF8
FFF8
0700
0700
0700
0700
0700
0700
0700
0700
0700
0700
0700
0700
0700
ENDCHAR
STARTCHAR 0165
ENCODING 357
SWIDTH 585 0
DWIDTH 13 0
BBX 12 19 1 0
BITMAP
0030
0030
0030
0030
0070
1C60
1C00
FFC0
FFC0
1C00
1C00
1C00
1C00
1C00
1C00
1C00
1E00
0FE0
07E0
ENDCHAR
STARTCHAR 0166
ENCODING 358
SWIDTH 585 0
DWIDTH 13 0
BBX 13 16 0 0
BITMAP
FFF8
FFF8
FFF8
0700
0700
0700
1FC0
1FC0
0700
0700
0700
0700
0700
0700
0700
0700
ENDCHAR
STARTCHAR 0167
ENCODING 359
SWIDTH 585 0
DWIDTH 13 0
BBX 11 14 1 0
BITMAP
1C00
1C00
FFC0
FFC0
1C00
1C00
7F00
7F00
1C00
1C00
1C00
1E00
0FE0
07E0
ENDCHAR
STARTCHAR 0168
ENCODING 360
SWIDTH 585 0
DWIDTH 13 0
BBX 11 21 1 0
BITMAP
0080
1EC0
3FC0
1000
0000
E0E0
E0E0
E0E0
E0E0
E0E0
E0E0
E0E0
E0E0
E0E0
E0E0
E0E0
E0E0
60E0
71C0
3FC0
1F00
ENDCHAR
STARTCHAR 0169
ENCODING 361
SWIDTH 585 0
DWIDTH 13 0
BBX 10 17 2 0
BITMAP
0200
7B00
FF00
4000
0000
C1C0
C1C0
C1C0
C1C0
C1C0
C1C0
C1C0
C1C0
E1C0
E3C0
FFC0
7DC0
ENDCHAR
STARTCHAR 016A
ENCODING 362
SWIDTH 585 0
DWIDTH 13 0
BBX 11 19 1 0
BITMAP
3FC0
3FC0
0000
E0E0
E0E0
E0E0
E0E0
E0E0
E0E0
E0E0
E0E0
E0E0
E0E0
E0E0
E0E0
60E0
71C0
3FC0
1F00
ENDCHAR
STARTCHAR 016B
ENCODING 363
SWIDTH 585 0
DWIDTH 13 0
BBX 10 16 2 0
BITMAP
7F80
7F80
0000
0000
C1C0
C1C0
C1C0
C1C0
C1C0
C1C0
C1C0
C1C0
E1C0
E3C0
FFC0
7DC0
ENDCHAR
STARTCHAR 016C
ENCODING 364
SWIDTH 585 0
DWIDTH 13 0
BBX 11 20 1 0
BITMAP
3180
3980
1F80
0600
E0E0
E0E0
E0E0
E0E0
E0E0
E0E0
E0E0
E0E0
E0E0
E0E0
E0E0
E0E0
60E0
71C0
3FC0
1F00
ENDCHAR
STARTCHAR 016D
ENCODING 365
SWIDTH 585 0
DWIDTH 13 0
BBX 10 17 2 0
BITMAP
6300
7300
3F00
0C00
0000
C1C0
C1C0
C1C0
C1C0
C1C0
C1C0
C1C0
C1C0
E1C0
E3C0
FFC0
7DC0
ENDCHAR
STARTCHAR 016E
ENCODING 366
SWIDTH 585 0
DWIDTH 13 0
BBX 11 21 1 0
BITMAP
0400
0F00
1900
0B00
0600
E0E0
E0E0
E0E0
E0E0
E0E0
E0E0
E0E0
E0E0
E0E0
E0E0
E0E0
E0E0
60E0
71C0
3FC0
1F00
ENDCHAR
STARTCHAR 016F
ENCODING 367
SWIDTH 585 0
DWIDTH 13 0
BBX 10 18 2 0
BITMAP
0800
1E00
3200
1600
0C00
0000
C1C0
C1C0
C1C0
C1C0
C1C0
C1C0
C1C0
C1C0
E1C0
E3C0
FFC0
7DC0
ENDCHAR
STARTCHAR 0170
ENCODING 368
SWIDTH 585 0
DWIDTH 13 0
BBX 12 20 1 0
BITMAP
0770
0CC0
1980
0000
E0E0
E0E0
E0E0
E0E0
E0E0
E0E0
E0E0
E0E0
E0E0
E0E0
E0E0
E0E0
60E0
71C0
3FC0
1F00
ENDCHAR
STARTCHAR 0171
ENCODING 369
SWIDTH 585 0
DWIDTH 13 0
BBX 10 16 2 0
BITMAP
1DC0
3300
6600
0000
C1C0
C1C0
C1C0
C1C0
C1C0
C1C0
C1C0
C1C0
E1C0
E3C0
FFC0
7DC0
ENDCHAR
STARTCHAR 0172
ENCODING 370
SWIDTH 585 0
DWIDTH 13 0
BBX 11 20 1 -4
BITMAP
E0E0
E0E0
E0E0
E0E0
E0E0
E0E0
E0E0
E0E0
E0E0
E0E0
E0E0
E0E0
60E0
71C0
3FC0
1F00
0600
0600
0780
0380
ENDCHAR
STARTCHAR 0173
ENCODING 371
SWIDTH 585 0
DWIDTH 13 0
BBX 10 17 2 -5
BITMAP
C1C0
C1C0
C1C0
C1C0
C1C0
C1C0
C1C0
C1C0
E1C0
E3C0
FFC0
7DC0
0380
0300
0300
03C0
0180
ENDCHAR
STARTCHAR 0174
ENCODING 372
SWIDTH 585 0
DWIDTH 13 0
BBX 13 20 0 0
BITMAP
0700
1D80
18C0
0000
E338
6738
6738
6730
6730
7730
77B0
75F0
7DF0
3DF0
3DF0
3DE0
3CE0
38E0
38E0
38E0
ENDCHAR
STARTCHAR 0175
ENCODING 373
SWIDTH 585 0
DWIDTH 13 0
BBX 13 16 0 0
BITMAP
0700
1D80
18C0
0000
E238
6738
6730
6730
6530
7570
7DF0
3DE0
3DE0
38E0
38E0
38E0
ENDCHAR
STARTCHAR 0176
ENCODING 374
SWIDTH 585 0
DWIDTH 13 0
BBX 13 20 0 0
BITMAP
0700
1D80
18C0
0000
F038
7070
7070
3860
38E0
1CC0
1DC0
0FC0
0F80
0780
0700
0700
0700
0700
0700
0700
ENDCHAR
STARTCHAR 0177
ENCODING 375
SWIDTH 585 0
DWIDTH 13 0
BBX 12 21 1 -5
BITMAP
0700
1D80
18C0
0000
E070
E070
60E0
70E0
71C0
39C0
3980
1B80
1F00
0F00
0F00
0600
0E00
1C00
7C00
7800
6000
ENDCHAR
STARTCHAR 0178
ENCODING 376
SWIDTH 585 0
DWIDTH 13 0
BBX 13 20 0 0
BITMAP
18C0
1CE0
0840
0000
F038
7070
7070
3860
38E0
1CC0
1DC0
0FC0
0F80
0780
0700
0700
0700
0700
0700
0700
ENDCHAR
STARTCHAR 0179
ENCODING 377
SWIDTH 585 0
DWIDTH 13 0
BBX 11 20 1 0
BITMAP
0380
0700
0E00
0000
FFE0
FFE0
FFE0
01C0
0380
0380
0700
0E00
0E00
1C00
3C00
3800
7000
F000
FFE0
FFE0
ENDCHAR
STARTCHAR 017A
ENCODING 378
SWIDTH 585 0
DWIDTH 13 0
BBX 11 16 1 0
BITMAP
01C0
0380
0700
0000
FFE0
FFE0
FFC0
03C0
0780
0F00
0E00
1C00
3800
7000
FFE0
FFE0
ENDCHAR
STARTCHAR 017B
ENCODING 379
SWIDTH 585 0
DWIDTH 13 0
BBX 11 20 1 0
BITMAP
0E00
0E00
0600
0000
FFE0
FFE0
FFE0
01C0
0380
0380
0700
0E00
0E00
1C00
3C00
3800
7000
F000
FFE0
FFE0
ENDCHAR
STARTCHAR 017C
ENCODING 380
SWIDTH 585 0
DWIDTH 13 0
BBX 11 16 1 0
BITMAP
0E00
0E00
0600
0000
FFE0
FFE0
FFC0
03C0
0780
0F00
0E00
1C00
3800
7000
FFE0
FFE0
ENDCHAR
STARTCHAR 017D
ENCODING 381
SWIDTH 585 0
DWIDTH 13 0
BBX 11 20 1 0
BITMAP
3BC0
0F00
0600
0000
FFE0
FFE0
FFE0
01C0
0380
0380
0700
0E00
0E00
1C00
3C00
3800
7000
F000
FFE0
FFE0
ENDCHAR
STARTCHAR 017E
ENCODING 382
SWIDTH 585 0
DWIDTH 13 0
BBX 11 16 1 0
BITMAP
3BC0
0F00
0600
0000
FFE0
FFE0
FFC0
03C0
0780
0F00
0E00
1C00
3800
7000
FFE0
FFE0
ENDCHAR
STARTCHAR 017F
ENCODING 383
SWIDTH 585 0
DWIDTH 13 0
BBX 6 17 5 0
BITMAP
3C
7C
F0
E0
C0
C0
C0
C0
C0
C0
C0
C0
C0
C0
C0
C0
C0
ENDCHAR
STARTCHAR 0192
ENCODING 402
SWIDTH 585 0
DWIDTH 13 0
BBX 10 22 2 -5
BITMAP
07C0
0FC0
1E40
1C00
1C00
7F00
7F00
1C00
1C00
1C00
1C00
1C00
1C00
1C00
1C00
1C00
1C00
1C00
1C00
F800
F800
E000
ENDCHAR
STARTCHAR 01A0
ENCODING 416
SWIDTH 585 0
DWIDTH 13 0
BBX 12 16 1 0
BITMAP
0F30
3FB0
7FF0
70E0
E0E0
E0E0
E060
E060
E060
E060
E0E0
E0E0
60E0
71C0
3FC0
1F00
ENDCHAR
STARTCHAR 01A1
ENCODING 417
SWIDTH 585 0
DWIDTH 13 0
BBX 12 13 1 0
BITMAP
0030
1F30
3FE0
7BC0
60E0
E0E0
E0E0
E0E0
E0E0
E0E0
71C0
7FC0
1F00
ENDCHAR
STARTCHAR 01AF
ENCODING 431
SWIDTH 585 0
DWIDTH 13 0
BBX 15 16 1 0
BITMAP
E0E6
E0EC
E0FC
E0F8
E0E0
E0E0
E0E0
E0E0
E0E0
E0E0
E0E0
E0E0
70E0
71C0
3FC0
1F80
ENDCHAR
STARTCHAR 01B0
ENCODING 432
SWIDTH 585 0
DWIDTH 13 0
BBX 14 13 1 0
BITMAP
000C
E0CC
E0D8
E0F8
E0E0
E0C0
E0C0
E0C0
E0C0
E0C0
71C0
7FC0
3EC0
ENDCHAR
STARTCHAR 01F0
ENCODING 496
SWIDTH 585 0
DWIDTH 13 0
BBX 10 21 2 -5
BITMAP
3BC0
0F00
0600
0000
7E00
7E00
7E00
0E00
0E00
0E00
0E00
0E00
0E00
0E00
0E00
0E00
0E00
0E00
FE00
FC00
F000
ENDCHAR
STARTCHAR 01FA
ENCODING 506
SWIDTH 585 0
DWIDTH 13 0
BBX 13 22 0 0
BITMAP
01E0
0100
0300
0480
0480
0700
0700
0700
0780
0780
0F80
0DC0
0DC0
1CC0
1CE0
18E0
3FE0
3FF0
3FF0
7070
7038
F038
ENDCHAR
STARTCHAR 01FB
ENCODING 507
SWIDTH 585 0
DWIDTH 13 0
BBX 11 19 1 0
BITMAP
03C0
0200
0600
0900
0900
0E00
0000
1F00
3F80
73C0
61C0
00C0
3FC0
7FC0
60C0
E0C0
E1C0
7FC0
3EE0
ENDCHAR
STARTCHAR 01FC
ENCODING 508
SWIDTH 585 0
DWIDTH 13 0
BBX 13 20 0 0
BITMAP
00E0
01C0
0380
0000
03F0
07F0
07F0
07C0
0FC0
0DC0
0DC0
1DF0
1DF0
19C0
3FC0
3FC0
31C0
71C0
71F8
E1F8
ENDCHAR
STARTCHAR 01FD
ENCODING 509
SWIDTH 585 0
DWIDTH 13 0
BBX 13 16 0 0
BITMAP
00E0
01C0
0380
0000
1CE0
7FF0
77B8
6738
0738
1FF8
7FF8
7700
E700
6710
7FF0
3DF8
ENDCHAR
STARTCHAR 01FE
ENCODING 510
SWIDTH 585 0
DWIDTH 13 0
BBX 11 21 1 -1
BITMAP
0380
0700
0E00
0000
0F60
3FC0
7FC0
71E0
E1E0
E3E0
E2E0
E6E0
ECE0
ECE0
F8E0
F8E0
F0E0
71C0
7FC0
DF00
C000
ENDCHAR
STARTCHAR 01FF
ENCODING 511
SWIDTH 585 0
DWIDTH 13 0
BBX 11 17 1 -1
BITMAP
0380
0700
0E00
00C0
0F80
3F80
7BC0
73E0
E2E0
E6E0
E4E0
ECE0
E8E0
79C0
3FC0
3F00
2000
ENDCHAR
STARTCHAR 0218
ENCODING 536
SWIDTH 585 0
DWIDTH 13 0
BBX 11 21 1 -5
BITMAP
0F00
3FC0
79E0
70E0
E060
7000
7800
3F00
1FC0
03E0
00E0
E060
E060
70E0
7FC0
1F80
0600
0600
0600
0C00
0400
ENDCHAR
STARTCHAR 0219
ENCODING 537
SWIDTH 585 0
DWIDTH 13 0
BBX 11 17 1 -5
BITMAP
0F00
3FC0
71C0
70E0
7000
7F00
1FC0
03E0
E0E0
70E0
7FC0
1F80
0600
0600
0600
0C00
0400
ENDCHAR
STARTCHAR 021A
ENCODING 538
SWIDTH 585 0
DWIDTH 13 0
BBX 13 21 0 -5
BITMAP
FFF8
FFF8
FFF8
0700
0700
0700
0700
0700
0700
0700
0700
0700
0700
0700
0700
0700
0300
0300
0300
0600
0200
ENDCHAR
STARTCHAR 021B
ENCODING 539
SWIDTH 585 0
DWIDTH 13 0
BBX 11 19 1 -5
BITMAP
1C00
1C00
FFC0
FFC0
1C00
1C00
1C00
1C00
1C00
1C00
1C00
1E00
0FE0
07E0
0300
0300
0300
0600
0200
ENDCHAR
STARTCHAR 0237
ENCODING 567
SWIDTH 585 0
DWIDTH 13 0
BBX 7 17 2 -5
BITMAP
7E
7E
7E
0E
0E
0E
0E
0E
0E
0E
0E
0E
0E
0E
FE
FC
F0
ENDCHAR
STARTCHAR 0259
ENCODING 601
SWIDTH 585 0
DWIDTH 13 0
BBX 10 12 2 0
BITMAP
3E00
FF00
E780
01C0
01C0
FFC0
FFC0
C1C0
E1C0
E380
7F80
3F00
ENDCHAR
STARTCHAR 02BC
ENCODING 700
SWIDTH 585 0
DWIDTH 13 0
BBX 3 6 5 11
BITMAP
60
60
60
60
E0
C0
ENDCHAR
STARTCHAR 02C6
ENCODING 710
SWIDTH 585 0
DWIDTH 13 0
BBX 7 3 2 13
BITMAP
38
EC
C6
ENDCHAR
STARTCHAR 02C7
ENCODING 711
SWIDTH 585 0
DWIDTH 13 0
BBX 8 3 3 13
BITMAP
EF
3C
18
ENDCHAR
STARTCHAR 02C9
ENCODING 713
SWIDTH 585 0
DWIDTH 13 0
BBX 8 2 3 14
BITMAP
FF
FF
ENDCHAR
STARTCHAR 02D8
ENCODING 728
SWIDTH 585 0
DWIDTH 13 0
BBX 7 4 3 12
BITMAP
C6
E6
7E
18
ENDCHAR
STARTCHAR 02D9
ENCODING 729
SWIDTH 585 0
DWIDTH 13 0
BBX 3 3 5 13
BITMAP
E0
E0
60
ENDCHAR
STARTCHAR 02DA
ENCODING 730
SWIDTH 585 0
DWIDTH 13 0
BBX 5 5 4 11
BITMAP
20
78
C8
58
30
ENDCHAR
STARTCHAR 02DB
ENCODING 731
SWIDTH 585 0
DWIDTH 13 0
BBX 4 6 4 -5
BITMAP
20
70
C0
C0
F0
20
ENDCHAR
STARTCHAR 02DC
ENCODING 732
SWIDTH 585 0
DWIDTH 13 0
BBX 8 4 1 13
BITMAP
02
7B
FF
40
ENDCHAR
STARTCHAR 02DD
ENCODING 733
SWIDTH 585 0
DWIDTH 13 0
BBX 9 3 2 13
BITMAP
3B80
6600
CC00
ENDCHAR
STARTCHAR 02F3
ENCODING 755
SWIDTH 585 0
DWIDTH 13 0
BBX 3 3 5 -4
BITMAP
E0
A0
E0
ENDCHAR
STARTCHAR 0300
ENCODING 768
SWIDTH 585 0
DWIDTH 13 0
BBX 4 4 -9 13
BITMAP
C0
E0
60
30
ENDCHAR
STARTCHAR 0301
ENCODING 769
SWIDTH 585 0
DWIDTH 13 0
BBX 4 4 -7 13
BITMAP
70
60
40
C0
ENDCHAR
STARTCHAR 0303
ENCODING 771
SWIDTH 585 0
DWIDTH 13 0
BBX 8 4 -10 13
BITMAP
02
7B
FF
40
ENDCHAR
STARTCHAR 0309
ENCODING 777
SWIDTH 585 0
DWIDTH 13 0
BBX 4 4 -8 14
BITMAP
E0
70
30
E0
ENDCHAR
STARTCHAR 030F
ENCODING 783
SWIDTH 585 0
DWIDTH 13 0
BBX 9 3 -11 13
BITMAP
FE00
3300
1980
ENDCHAR
STARTCHAR 0323
ENCODING 803
SWIDTH 585 0
DWIDTH 13 0
BBX 3 3 -8 -4
BITMAP
E0
E0
E0
ENDCHAR
STARTCHAR 0384
ENCODING 900
SWIDTH 585 0
DWIDTH 13 0
BBX 4 4 6 14
BITMAP
70
60
60
C0
ENDCHAR
STARTCHAR 0385
ENCODING 901
SWIDTH 585 0
DWIDTH 13 0
BBX 9 6 3 13
BITMAP
0E00
0C00
1800
C300
E380
C300
ENDCHAR
STARTCHAR 0386
ENCODING 902
SWIDTH 585 0
DWIDTH 13 0
BBX 13 18 0 0
BITMAP
3800
3000
3700
6700
0780
0780
0F80
0DC0
0DC0
1CC0
1CE0
18E0
3FE0
3FF0
3FF0
7070
7038
F038
ENDCHAR
STARTCHAR 0387
ENCODING 903
SWIDTH 585 0
DWIDTH 13 0
BBX 4 3 6 6
BITMAP
60
F0
60
ENDCHAR
STARTCHAR 0388
ENCODING 904
SWIDTH 585 0
DWIDTH 13 0
BBX 14 18 -1 0
BITMAP
7000
6000
6FFC
CFFC
0FFC
0C00
0C00
0C00
0C00
0FF8
0FF8
0C00
0C00
0C00
0C00
0C00
0FFC
0FFC
ENDCHAR
STARTCHAR 0389
ENCODING 905
SWIDTH 585 0
DWIDTH 13 0
BBX 14 18 -1 0
BITMAP
7000
6000
7C1C
DC1C
1C1C
1C1C
1C1C
1C1C
1C1C
1FFC
1FFC
1C1C
1C1C
1C1C
1C1C
1C1C
1C1C
1C1C
ENDCHAR
STARTCHAR 038A
ENCODING 906
SWIDTH 585 0
DWIDTH 13 0
BBX 12 18 -1 0
BITMAP
7000
6000
7FF0
DFF0
1FF0
0380
0380
0380
0380
0380
0380
0380
0380
0380
0380
0380
1FF0
1FF0
ENDCHAR
STARTCHAR 038C
ENCODING 908
SWIDTH 585 0
DWIDTH 13 0
BBX 13 18 -1 0
BITMAP
7000
6000
63C0
CFE0
1FF0
1C38
3838
3838
3838
3838
3838
3838
3838
3838
3838
1C70
0FF0
07C0
ENDCHAR
STARTCHAR 038E
ENCODING 910
SWIDTH 585 0
DWIDTH 13 0
BBX 16 18 -2 0
BITMAP
7000
6000
7E07
CE0E
0E0E
070C
071C
0398
03B8
01F8
01F0
00F0
00E0
00E0
00E0
00E0
00E0
00E0
ENDCHAR
STARTCHAR 038F
ENCODING 911
SWIDTH 585 0
DWIDTH 13 0
BBX 13 18 -1 0
BITMAP
7000
6000
63C0
CFE0
1EF0
1C38
3838
3838
3838
3838
3838
3838
1838
1C30
0C70
06E0
3EF8
3EF8
ENDCHAR
STARTCHAR 0390
ENCODING 912
SWIDTH 585 0
DWIDTH 13 0
BBX 10 18 2 0
BITMAP
0700
0600
0C00
6180
71C0
6180
FC00
FC00
FC00
1C00
1C00
1C00
1C00
1C00
1C00
1C40
0F80
0FC0
ENDCHAR
STARTCHAR 0391
ENCODING 913
SWIDTH 585 0
DWIDTH 13 0
BBX 13 16 0 0
BITMAP
0700
0700
0780
0780
0F80
0DC0
0DC0
1CC0
1CE0
18E0
3FE0
3FF0
3FF0
7070
7038
F038
ENDCHAR
STARTCHAR 0392
ENCODING 914
SWIDTH 585 0
DWIDTH 13 0
BBX 12 16 1 0
BITMAP
FE00
FFC0
FFE0
E0E0
E0E0
E0E0
E1E0
FFC0
FFC0
E0E0
E060
E070
E0E0
E1E0
FFC0
FF80
ENDCHAR
STARTCHAR 0393
ENCODING 915
SWIDTH 585 0
DWIDTH 13 0
BBX 10 16 2 0
BITMAP
FFC0
FFC0
FFC0
C000
C000
C000
C000
C000
C000
C000
C000
C000
C000
C000
C000
C000
ENDCHAR
STARTCHAR 0394
ENCODING 916
SWIDTH 585 0
DWIDTH 13 0
BBX 14 16 0 0
BITMAP
0380
0780
0780
07C0
0FC0
0FC0
0CC0
1CE0
1CE0
1860
3870
3870
3030
7038
7FF8
FFFC
ENDCHAR
STARTCHAR 0395
ENCODING 917
SWIDTH 585 0
DWIDTH 13 0
BBX 10 16 2 0
BITMAP
FFC0
FFC0
FFC0
C000
C000
C000
C000
FF80
FF80
C000
C000
C000
C000
C000
FFC0
FFC0
ENDCHAR
STARTCHAR 0396
ENCODING 918
SWIDTH 585 0
DWIDTH 13 0
BBX 11 16 1 0
BITMAP
FFE0
FFE0
FFE0
01C0
0380
0380
0700
0E00
0E00
1C00
3C00
3800
7000
F000
FFE0
FFE0
ENDCHAR
STARTCHAR 0397
ENCODING 919
SWIDTH 585 0
DWIDTH 13 0
BBX 11 16 1 0
BITMAP
E0E0
E0E0
E0E0
E0E0
E0E0
E0E0
E0E0
FFE0
FFE0
E0E0
E0E0
E0E0
E0E0
E0E0
E0E0
E0E0
ENDCHAR
STARTCHAR 0398
ENCODING 920
SWIDTH 585 0
DWIDTH 13 0
BBX 11 16 1 0
BITMAP
0F00
3F80
7FC0
70E0
E0E0
E0E0
E060
EF60
EF60
E060
E0E0
E0E0
60E0
71C0
3FC0
1F00
ENDCHAR
STARTCHAR 0399
ENCODING 921
SWIDTH 585 0
DWIDTH 13 0
BBX 9 16 2 0
BITMAP
FF80
FF80
FF80
1C00
1C00
1C00
1C00
1C00
1C00
1C00
1C00
1C00
1C00
1C00
FF80
FF80
ENDCHAR
STARTCHAR 039A
ENCODING 922
SWIDTH 585 0
DWIDTH 13 0
BBX 12 16 1 0
BITMAP
E070
E0E0
E1C0
E3C0
E380
E700
EE00
FE00
FF00
FF00
F380
E3C0
E1C0
E1E0
E0E0
E070
ENDCHAR
STARTCHAR 039B
ENCODING 923
SWIDTH 585 0
DWIDTH 13 0
BBX 13 16 0 0
BITMAP
0700
0700
0780
0F80
0D80
0DC0
1DC0
1CC0
18E0
38E0
38E0
3860
7070
7070
7030
E038
ENDCHAR
STARTCHAR 039C
ENCODING 924
SWIDTH 585 0
DWIDTH 13 0
BBX 11 16 1 0
BITMAP
F1E0
F1E0
F1E0
F9E0
FB60
FBE0
EFE0
EEE0
EEE0
EEE0
E4E0
E0E0
E0E0
E0E0
E0E0
E0E0
ENDCHAR
STARTCHAR 039D
ENCODING 925
SWIDTH 585 0
DWIDTH 13 0
BBX 11 16 1 0
BITMAP
E0E0
F0E0
F0E0
F8E0
F8E0
FCE0
ECE0
ECE0
E6E0
E6E0
E7E0
E3E0
E3E0
E1E0
E1E0
E0E0
ENDCHAR
STARTCHAR 039E
ENCODING 926
SWIDTH 585 0
DWIDTH 13 0
BBX 11 16 1 0
BITMAP
7FC0
7FC0
7FC0
0000
0000
0000
0000
7FC0
7FC0
0000
0000
0000
0000
0000
FFE0
FFE0
ENDCHAR
STARTCHAR 039F
ENCODING 927
SWIDTH 585 0
DWIDTH 13 0
BBX 11 16 1 0
BITMAP
0F00
3F80
7FC0
70E0
E0E0
E0E0
E0E0
E0E0
E0E0
E0E0
E0E0
E0E0
E0E0
71C0
3FC0
1F00
ENDCHAR
STARTCHAR 03A0
ENCODING 928
SWIDTH 585 0
DWIDTH 13 0
BBX 11 16 1 0
BITMAP
FFE0
FFE0
FFE0
E0E0
E0E0
E0E0
E0E0
E0E0
E0E0
E0E0
E0E0
E0E0
E0E0
E0E0
E0E0
E0E0
ENDCHAR
STARTCHAR 03A1
ENCODING 929
SWIDTH 585 0
DWIDTH 13 0
BBX 10 16 2 0
BITMAP
FC00
FF80
FFC0
E1C0
E0C0
E0C0
E1C0
E1C0
FF80
FF00
E000
E000
E000
E000
E000
E000
ENDCHAR
STARTCHAR 03A3
ENCODING 931
SWIDTH 585 0
DWIDTH 13 0
BBX 11 16 1 0
BITMAP
FFE0
FFE0
7FE0
7800
3800
1C00
0E00
0700
0700
0E00
1C00
3C00
3800
7000
FFE0
FFE0
ENDCHAR
STARTCHAR 03A4
ENCODING 932
SWIDTH 585 0
DWIDTH 13 0
BBX 13 16 0 0
BITMAP
FFF8
FFF8
FFF8
0700
0700
0700
0700
0700
0700
0700
0700
0700
0700
0700
0700
0700
ENDCHAR
STARTCHAR 03A5
ENCODING 933
SWIDTH 585 0
DWIDTH 13 0
BBX 13 16 0 0
BITMAP
F038
7070
7070
3860
38E0
1CC0
1DC0
0FC0
0F80
0780
0700
0700
0700
0700
0700
0700
ENDCHAR
STARTCHAR 03A6
ENCODING 934
SWIDTH 585 0
DWIDTH 13 0
BBX 12 16 1 0
BITMAP
0600
0600
0F00
3FC0
7FE0
E670
E670
E630
C630
E670
E670
77E0
7FE0
1F80
0600
0600
ENDCHAR
STARTCHAR 03A7
ENCODING 935
SWIDTH 585 0
DWIDTH 13 0
BBX 13 16 0 0
BITMAP
7038
7070
3870
38E0
1CE0
0DC0
0F80
0780
0780
0F80
0FC0
1DC0
3CE0
38F0
7870
F078
ENDCHAR
STARTCHAR 03A8
ENCODING 936
SWIDTH 585 0
DWIDTH 13 0
BBX 12 16 1 0
BITMAP
E670
E670
E670
E670
E670
E670
E670
E670
E670
F6F0
7FE0
3FC0
0600
0600
0600
0600
ENDCHAR
STARTCHAR 03A9
ENCODING 937
SWIDTH 585 0
DWIDTH 13 0
BBX 11 16 1 0
BITMAP
0F00
3F80
7BC0
70E0
E0E0
E0E0
E0E0
E0E0
E0E0
E0E0
60E0
70C0
31C0
1B80
FBE0
FBE0
ENDCHAR
STARTCHAR 03AA
ENCODING 938
SWIDTH 585 0
DWIDTH 13 0
BBX 9 20 2 0
BITMAP
6300
7380
2100
0000
FF80
FF80
FF80
1C00
1C00
1C00
1C00
1C00
1C00
1C00
1C00
1C00
1C00
1C00
FF80
FF80
ENDCHAR
STARTCHAR 03AB
ENCODING 939
SWIDTH 585 0
DWIDTH 13 0
BBX 13 20 0 0
BITMAP
18C0
1CE0
0840
0000
F038
7070
7070
3860
38E0
1CC0
1DC0
0FC0
0F80
0780
0700
0700
0700
0700
0700
0700
ENDCHAR
STARTCHAR 03AC
ENCODING 940
SWIDTH 585 0
DWIDTH 13 0
BBX 12 18 1 0
BITMAP
0380
0300
0300
0600
0000
0000
1CC0
3EC0
7BC0
71C0
E1C0
E1C0
E1C0
E1C0
E1C0
71C0
7FE0
3EF0
ENDCHAR
STARTCHAR 03AD
ENCODING 941
SWIDTH 585 0
DWIDTH 13 0
BBX 12 18 1 0
BITMAP
0380
0300
0300
0600
0000
0000
1F00
7FC0
79E0
6060
7000
3F00
3F00
7000
E010
70E0
7FE0
3FC0
ENDCHAR
STARTCHAR 03AE
ENCODING 942
SWIDTH 585 0
DWIDTH 13 0
BBX 11 22 1 -4
BITMAP
0380
0300
0300
0600
0000
0000
E780
EFC0
F9C0
E0E0
E0E0
E0E0
E0E0
E0E0
E0E0
E0E0
E0E0
E0E0
00E0
00E0
00E0
00E0
ENDCHAR
STARTCHAR 03AF
ENCODING 943
SWIDTH 585 0
DWIDTH 13 0
BBX 10 18 2 0
BITMAP
0700
0600
0600
0C00
0000
0000
FC00
FC00
FC00
1C00
1C00
1C00
1C00
1C00
1C00
1C40
0F80
0FC0
ENDCHAR
STARTCHAR 03B0
ENCODING 944
SWIDTH 585 0
DWIDTH 13 0
BBX 11 18 1 0
BITMAP
0700
0600
0C00
6180
71C0
6180
E1C0
E1C0
E0C0
E0E0
E0E0
E0E0
E0E0
E0E0
60E0
71C0
7FC0
1F00
ENDCHAR
STARTCHAR 03B1
ENCODING 945
SWIDTH 585 0
DWIDTH 13 0
BBX 12 12 1 0
BITMAP
1CC0
3EC0
7BC0
71C0
E1C0
E1C0
E1C0
E1C0
E1C0
71C0
7FE0
3EF0
ENDCHAR
STARTCHAR 03B2
ENCODING 946
SWIDTH 585 0
DWIDTH 13 0
BBX 10 20 2 -4
BITMAP
1E00
7F80
F380
E1C0
E1C0
E1C0
E380
EF00
EF80
E1C0
E1C0
E0C0
E1C0
E1C0
FFC0
FF00
E000
E000
E000
E000
ENDCHAR
STARTCHAR 03B3
ENCODING 947
SWIDTH 585 0
DWIDTH 13 0
BBX 12 16 1 -4
BITMAP
C070
E060
E0E0
70E0
71C0
31C0
3980
1B80
1B00
1F00
0F00
0E00
0E00
0E00
0E00
0E00
ENDCHAR
STARTCHAR 03B4
ENCODING 948
SWIDTH 585 0
DWIDTH 13 0
BBX 11 17 1 0
BITMAP
0F00
3F80
3880
3000
3800
3E00
0F80
3FC0
71E0
E0E0
E0E0
E060
E0E0
E0E0
71E0
7FC0
1F80
ENDCHAR
STARTCHAR 03B5
ENCODING 949
SWIDTH 585 0
DWIDTH 13 0
BBX 12 12 1 0
BITMAP
1F00
7FC0
79E0
6060
7000
3F00
3F00
7000
E010
70E0
7FE0
3FC0
ENDCHAR
STARTCHAR 03B6
ENCODING 950
SWIDTH 585 0
DWIDTH 13 0
BBX 10 20 1 -4
BITMAP
FFC0
FFC0
FFC0
0380
0700
0E00
1C00
3800
7000
6000
E000
E000
E000
7800
7F80
1FC0
01C0
01C0
0180
0380
ENDCHAR
STARTCHAR 03B7
ENCODING 951
SWIDTH 585 0
DWIDTH 13 0
BBX 11 16 1 -4
BITMAP
E780
EFC0
F9C0
E0E0
E0E0
E0E0
E0E0
E0E0
E0E0
E0E0
E0E0
E0E0
00E0
00E0
00E0
00E0
ENDCHAR
STARTCHAR 03B8
ENCODING 952
SWIDTH 585 0
DWIDTH 13 0
BBX 10 16 2 0
BITMAP
1E00
7F00
7380
E180
E1C0
E1C0
E1C0
FFC0
FFC0
E1C0
E1C0
E1C0
E180
E380
7F80
3E00
ENDCHAR
STARTCHAR 03B9
ENCODING 953
SWIDTH 585 0
DWIDTH 13 0
BBX 10 12 2 0
BITMAP
FC00
FC00
FC00
1C00
1C00
1C00
1C00
1C00
1C00
1C40
0F80
0FC0
ENDCHAR
STARTCHAR 03BA
ENCODING 954
SWIDTH 585 0
DWIDTH 13 0
BBX 11 12 2 0
BITMAP
E1E0
E3C0
E780
EF00
FE00
FC00
FE00
FF00
E700
E380
E3C0
E1E0
ENDCHAR
STARTCHAR 03BB
ENCODING 955
SWIDTH 585 0
DWIDTH 13 0
BBX 12 17 0 0
BITMAP
2000
7800
7C00
1E00
0E00
0E00
0F00
0F00
0F00
1F80
1F80
39C0
39C0
39C0
70E0
70F0
F070
ENDCHAR
STARTCHAR 03BC
ENCODING 956
SWIDTH 585 0
DWIDTH 13 0
BBX 10 16 2 -4
BITMAP
E1C0
E1C0
E1C0
E1C0
E1C0
E1C0
E1C0
E1C0
E1C0
E3C0
FFC0
FFC0
E000
E000
E000
E000
ENDCHAR
STARTCHAR 03BD
ENCODING 957
SWIDTH 585 0
DWIDTH 13 0
BBX 11 12 1 0
BITMAP
E0E0
E0E0
60E0
71C0
71C0
3180
3B80
1B80
1B00
1F00
0E00
0E00
ENDCHAR
STARTCHAR 03BE
ENCODING 958
SWIDTH 585 0
DWIDTH 13 0
BBX 10 20 2 -4
BITMAP
0FC0
3F80
7C80
7000
7000
7000
3F80
3F80
7800
E000
E000
E000
E000
F800
7F80
1FC0
01C0
01C0
0180
0380
ENDCHAR
STARTCHAR 03BF
ENCODING 959
SWIDTH 585 0
DWIDTH 13 0
BBX 11 12 1 0
BITMAP
0F00
3F80
7BC0
70E0
E0E0
E0E0
E0E0
E0E0
E0E0
71C0
3FC0
1F00
ENDCHAR
STARTCHAR 03C0
ENCODING 960
SWIDTH 585 0
DWIDTH 13 0
BBX 13 12 1 0
BITMAP
FFF0
FFF0
FFF0
71C0
71C0
71C0
71C0
71C0
71C0
71C0
71F0
70F8
ENDCHAR
STARTCHAR 03C1
ENCODING 961
SWIDTH 585 0
DWIDTH 13 0
BBX 10 16 2 -4
BITMAP
1E00
7F00
F780
E1C0
C1C0
C1C0
C1C0
C1C0
C1C0
E380
FF80
DF00
C000
C000
C000
C000
ENDCHAR
STARTCHAR 03C2
ENCODING 962
SWIDTH 585 0
DWIDTH 13 0
BBX 11 17 1 -5
BITMAP
1F00
3F80
7BC0
E0C0
E0E0
E000
E000
E000
E000
7800
3F80
0FC0
01C0
01C0
01C0
0380
0100
ENDCHAR
STARTCHAR 03C3
ENCODING 963
SWIDTH 585 0
DWIDTH 13 0
BBX 11 12 1 0
BITMAP
0FE0
3FE0
7FE0
E1C0
E0C0
E0C0
E0E0
E0E0
E1C0
71C0
7F80
3F00
ENDCHAR
STARTCHAR 03C4
ENCODING 964
SWIDTH 585 0
DWIDTH 13 0
BBX 10 12 1 0
BITMAP
FFC0
FFC0
FFC0
0E00
0E00
0E00
0E00
0E00
0E00
0E00
0FC0
07C0
ENDCHAR
STARTCHAR 03C5
ENCODING 965
SWIDTH 585 0
DWIDTH 13 0
BBX 11 12 1 0
BITMAP
E1C0
E1C0
E0C0
E0E0
E0E0
E0E0
E0E0
E0E0
60E0
71C0
7FC0
1F00
ENDCHAR
STARTCHAR 03C6
ENCODING 966
SWIDTH 585 0
DWIDTH 13 0
BBX 12 17 1 -5
BITMAP
2380
77C0
77E0
E670
E670
E670
E670
E670
E670
76E0
7FE0
1F80
0600
0600
0600
0600
0600
ENDCHAR
STARTCHAR 03C7
ENCODING 967
SWIDTH 585 0
DWIDTH 13 0
BBX 12 12 1 0
BITMAP
E0F0
70E0
39C0
3B80
1F80
0F00
0F00
1F00
3F80
39C0
70E0
E0F0
ENDCHAR
STARTCHAR 03C8
ENCODING 968
SWIDTH 585 0
DWIDTH 13 0
BBX 12 17 1 -5
BITMAP
EE60
EE70
EE70
EE70
EE70
EE70
EE70
EE70
EE70
7EE0
7FE0
1F80
0E00
0E00
0E00
0E00
0E00
ENDCHAR
STARTCHAR 03C9
ENCODING 969
SWIDTH 585 0
DWIDTH 13 0
BBX 12 12 1 0
BITMAP
60E0
E0E0
E060
EE70
CE70
CE70
CE70
CE70
CE70
EF60
FFE0
79C0
ENDCHAR
STARTCHAR 03CA
ENCODING 970
SWIDTH 585 0
DWIDTH 13 0
BBX 10 16 2 0
BITMAP
6300
7380
2100
0000
FC00
FC00
FC00
1C00
1C00
1C00
1C00
1C00
1C00
1C40
0F80
0FC0
ENDCHAR
STARTCHAR 03CB
ENCODING 971
SWIDTH 585 0
DWIDTH 13 0
BBX 11 16 1 0
BITMAP
3180
39C0
1080
0000
E1C0
E1C0
E0C0
E0E0
E0E0
E0E0
E0E0
E0E0
60E0
71C0
7FC0
1F00
ENDCHAR
STARTCHAR 03CC
ENCODING 972
SWIDTH 585 0
DWIDTH 13 0
BBX 11 18 1 0
BITMAP
0380
0300
0300
0600
0000
0000
0F00
3F80
7BC0
70E0
E0E0
E0E0
E0E0
E0E0
E0E0
71C0
3FC0
1F00
ENDCHAR
STARTCHAR 03CD
ENCODING 973
SWIDTH 585 0
DWIDTH 13 0
BBX 11 18 1 0
BITMAP
0700
0600
0600
0C00
0000
0000
E1C0
E1C0
E0C0
E0E0
E0E0
E0E0
E0E0
E0E0
60E0
71C0
7FC0
1F00
ENDCHAR
STARTCHAR 03CE
ENCODING 974
SWIDTH 585 0
DWIDTH 13 0
BBX 12 18 1 0
BITMAP
0380
0300
0300
0600
0000
0000
60E0
E0E0
E060
EE70
CE70
CE70
CE70
CE70
CE70
EF60
FFE0
79C0
ENDCHAR
STARTCHAR 03D1
ENCODING 977
SWIDTH 585 0
DWIDTH 13 0
BBX 11 16 2 0
BITMAP
0F00
1F80
3F80
39C0
39C0
39C0
39C0
1FE0
CFE0
C7E0
C1C0
C1C0
E1C0
E380
7F80
3F00
ENDCHAR
STARTCHAR 03D2
ENCODING 978
SWIDTH 585 0
DWIDTH 13 0
BBX 13 16 1 0
BITMAP
C038
E070
F0F0
30E0
39C0
19C0
1D80
1F80
0F00
0F00
0700
0600
0600
0600
0600
0600
ENDCHAR
STARTCHAR 03D6
ENCODING 982
SWIDTH 585 0
DWIDTH 13 0
BBX 14 12 0 0
BITMAP
FFFC
FFFC
7070
7030
7738
6738
6738
6738
6738
77B8
7FF0
3CF0
ENDCHAR
STARTCHAR 0400
ENCODING 1024
SWIDTH 585 0
DWIDTH 13 0
BBX 10 20 2 0
BITMAP
7800
1800
0C00
0000
FFC0
FFC0
FFC0
C000
C000
C000
C000
FF80
FF80
C000
C000
C000
C000
C000
FFC0
FFC0
ENDCHAR
STARTCHAR 0401
ENCODING 1025
SWIDTH 585 0
DWIDTH 13 0
BBX 10 20 2 0
BITMAP
6300
7380
2100
0000
FFC0
FFC0
FFC0
C000
C000
C000
C000
FF80
FF80
C000
C000
C000
C000
C000
FFC0
FFC0
ENDCHAR
STARTCHAR 0402
ENCODING 1026
SWIDTH 585 0
DWIDTH 13 0
BBX 13 16 0 0
BITMAP
FFF0
FFF0
FFF0
0E00
0E00
0E00
0E00
0FC0
0FF0
0E70
0E30
0E38
0E38
0E70
0EF0
0EE0
ENDCHAR
STARTCHAR 0403
ENCODING 1027
SWIDTH 585 0
DWIDTH 13 0
BBX 10 20 2 0
BITMAP
0700
0E00
1C00
0000
FFC0
FFC0
FFC0
C000
C000
C000
C000
C000
C000
C000
C000
C000
C000
C000
C000
C000
ENDCHAR
STARTCHAR 0404
ENCODING 1028
SWIDTH 585 0
DWIDTH 13 0
BBX 11 16 1 0
BITMAP
0F00
3FC0
79E0
70E0
E0E0
E000
E000
FF00
FF00
E000
E000
E060
60E0
70E0
3FC0
1F80
ENDCHAR
STARTCHAR 0405
ENCODING 1029
SWIDTH 585 0
DWIDTH 13 0
BBX 11 16 1 0
BITMAP
0F00
3FC0
79E0
70E0
E060
7000
7800
3F00
0FC0
03E0
00E0
E060
E060
70E0
7FC0
1F80
ENDCHAR
STARTCHAR 0406
ENCODING 1030
SWIDTH 585 0
DWIDTH 13 0
BBX 9 16 2 0
BITMAP
FF80
FF80
FF80
1C00
1C00
1C00
1C00
1C00
1C00
1C00
1C00
1C00
1C00
1C00
FF80
FF80
ENDCHAR
STARTCHAR 0407
ENCODING 1031
SWIDTH 585 0
DWIDTH 13 0
BBX 9 20 2 0
BITMAP
6300
7380
2100
0000
FF80
FF80
FF80
1C00
1C00
1C00
1C00
1C00
1C00
1C00
1C00
1C00
1C00
1C00
FF80
FF80
ENDCHAR
STARTCHAR 0408
ENCODING 1032
SWIDTH 585 0
DWIDTH 13 0
BBX 11 16 1 0
BITMAP
00E0
00E0
00E0
00E0
00E0
00E0
00E0
00E0
00E0
00E0
00E0
E0E0
E0E0
71C0
7F80
3F00
ENDCHAR
STARTCHAR 0409
ENCODING 1033
SWIDTH 585 0
DWIDTH 13 0
BBX 13 16 0 0
BITMAP
3F00
3F00
3F00
3300
3300
3300
33E0
33F0
3370
3338
3338
3338
3338
7370
E3F0
C3E0
ENDCHAR
STARTCHAR 040A
ENCODING 1034
SWIDTH 585 0
DWIDTH 13 0
BBX 11 16 1 0
BITMAP
E600
E600
E600
E600
E600
E600
E780
FFC0
FEE0
E660
E660
E660
E660
E6E0
E7C0
E780
ENDCHAR
STARTCHAR 040B
ENCODING 1035
SWIDTH 585 0
DWIDTH 13 0
BBX 12 16 0 0
BITMAP
FFF0
FFF0
FFF0
0E00
0E00
0E00
0E00
0FC0
0FE0
0E70
0E70
0E70
0E70
0E70
0E70
0E70
ENDCHAR
STARTCHAR 040C
ENCODING 1036
SWIDTH 585 0
DWIDTH 13 0
BBX 12 20 1 0
BITMAP
0380
0700
0E00
0000
E070
E0E0
E1C0
E3C0
E380
E700
EE00
FE00
FF00
FF00
F380
E3C0
E1C0
E1E0
E0E0
E070
ENDCHAR
STARTCHAR 040D
ENCODING 1037
SWIDTH 585 0
DWIDTH 13 0
BBX 11 20 1 0
BITMAP
7800
1800
0C00
0000
E0E0
E1E0
E1E0
E3E0
E3E0
E7E0
E6E0
E6E0
EEE0
ECE0
FCE0
F8E0
F8E0
F0E0
F0E0
E0E0
ENDCHAR
STARTCHAR 040E
ENCODING 1038
SWIDTH 585 0
DWIDTH 13 0
BBX 13 20 0 0
BITMAP
18C0
1CC0
0FC0
0300
E038
7038
7070
3870
38E0
18E0
1CE0
0DC0
0FC0
0F80
0780
0700
0700
0E00
7E00
7C00
ENDCHAR
STARTCHAR 040F
ENCODING 1039
SWIDTH 585 0
DWIDTH 13 0
BBX 11 20 1 -4
BITMAP
E0E0
E0E0
E0E0
E0E0
E0E0
E0E0
E0E0
E0E0
E0E0
E0E0
E0E0
E0E0
E0E0
E0E0
FFE0
FFE0
0E00
0E00
0E00
0E00
ENDCHAR
STARTCHAR 0410
ENCODING 1040
SWIDTH 585 0
DWIDTH 13 0
BBX 13 16 0 0
BITMAP
0700
0700
0780
0780
0F80
0DC0
0DC0
1CC0
1CE0
18E0
3FE0
3FF0
3FF0
7070
7038
F038
ENDCHAR
STARTCHAR 0411
ENCODING 1041
SWIDTH 585 0
DWIDTH 13 0
BBX 11 16 1 0
BITMAP
FFE0
FFE0
FFE0
E000
E000
E000
FE00
FF80
FFC0
E0E0
E0E0
E0E0
E0E0
E1C0
FFC0
FF00
ENDCHAR
STARTCHAR 0412
ENCODING 1042
SWIDTH 585 0
DWIDTH 13 0
BBX 12 16 1 0
BITMAP
FE00
FFC0
FFE0
E0E0
E0E0
E0E0
E1E0
FFC0
FFC0
E0E0
E060
E070
E0E0
E1E0
FFC0
FF80
ENDCHAR
STARTCHAR 0413
ENCODING 1043
SWIDTH 585 0
DWIDTH 13 0
BBX 10 16 2 0
BITMAP
FFC0
FFC0
FFC0
C000
C000
C000
C000
C000
C000
C000
C000
C000
C000
C000
C000
C000
ENDCHAR
STARTCHAR 0414
ENCODING 1044
SWIDTH 585 0
DWIDTH 13 0
BBX 11 20 1 -4
BITMAP
1FC0
1FC0
1FC0
39C0
39C0
39C0
39C0
39C0
39C0
39C0
39C0
39C0
71C0
71C0
FFE0
FFE0
C060
C060
C060
C060
ENDCHAR
STARTCHAR 0415
ENCODING 1045
SWIDTH 585 0
DWIDTH 13 0
BBX 10 16 2 0
BITMAP
FFC0
FFC0
FFC0
C000
C000
C000
C000
FF80
FF80
C000
C000
C000
C000
C000
FFC0
FFC0
ENDCHAR
STARTCHAR 0416
ENCODING 1046
SWIDTH 585 0
DWIDTH 13 0
BBX 13 16 0 0
BITMAP
E738
7730
7770
7770
3760
3760
3FE0
1FC0
3FE0
3FE0
3760
7770
7770
7770
E738
E738
ENDCHAR
STARTCHAR 0417
ENCODING 1047
SWIDTH 585 0
DWIDTH 13 0
BBX 12 16 1 0
BITMAP
1F00
3FC0
79E0
E0E0
E0E0
00E0
00E0
0FC0
0FC0
00E0
0060
0070
E060
F0E0
7FC0
3F80
ENDCHAR
STARTCHAR 0418
ENCODING 1048
SWIDTH 585 0
DWIDTH 13 0
BBX 11 16 1 0
BITMAP
E0E0
E1E0
E1E0
E3E0
E3E0
E7E0
E6E0
E6E0
EEE0
ECE0
FCE0
F8E0
F8E0
F0E0
F0E0
E0E0
ENDCHAR
STARTCHAR 0419
ENCODING 1049
SWIDTH 585 0
DWIDTH 13 0
BBX 11 20 1 0
BITMAP
3180
3980
1F80
0600
E0E0
E1E0
E1E0
E3E0
E3E0
E7E0
E6E0
E6E0
EEE0
ECE0
FCE0
F8E0
F8E0
F0E0
F0E0
E0E0
ENDCHAR
STARTCHAR 041A
ENCODING 1050
SWIDTH 585 0
DWIDTH 13 0
BBX 11 16 2 0
BITMAP
C0E0
C1C0
C3C0
C380
C700
CF00
CE00
FC00
FC00
CE00
CF00
C700
C380
C3C0
C1C0
C0E0
ENDCHAR
STARTCHAR 041B
ENCODING 1051
SWIDTH 585 0
DWIDTH 13 0
BBX 12 16 0 0
BITMAP
1FF0
1FF0
1FF0
1870
1870
1870
1870
1870
1870
1870
1870
3870
3870
3870
F070
E070
ENDCHAR
STARTCHAR 041C
ENCODING 1052
SWIDTH 585 0
DWIDTH 13 0
BBX 11 16 1 0
BITMAP
F1E0
F1E0
F1E0
F9E0
FB60
FBE0
EFE0
EEE0
EEE0
EEE0
E4E0
E0E0
E0E0
E0E0
E0E0
E0E0
ENDCHAR
STARTCHAR 041D
ENCODING 1053
SWIDTH 585 0
DWIDTH 13 0
BBX 11 16 1 0
BITMAP
E0E0
E0E0
E0E0
E0E0
E0E0
E0E0
E0E0
FFE0
FFE0
E0E0
E0E0
E0E0
E0E0
E0E0
E0E0
E0E0
ENDCHAR
STARTCHAR 041E
ENCODING 1054
SWIDTH 585 0
DWIDTH 13 0
BBX 11 16 1 0
BITMAP
0F00
3F80
7FC0
70E0
E0E0
E0E0
E0E0
E0E0
E0E0
E0E0
E0E0
E0E0
E0E0
71C0
3FC0
1F00
ENDCHAR
STARTCHAR 041F
ENCODING 1055
SWIDTH 585 0
DWIDTH 13 0
BBX 11 16 1 0
BITMAP
FFE0
FFE0
FFE0
E0E0
E0E0
E0E0
E0E0
E0E0
E0E0
E0E0
E0E0
E0E0
E0E0
E0E0
E0E0
E0E0
ENDCHAR
STARTCHAR 0420
ENCODING 1056
SWIDTH 585 0
DWIDTH 13 0
BBX 10 16 2 0
BITMAP
FC00
FF80
FFC0
E1C0
E0C0
E0C0
E1C0
E1C0
FF80
FF00
E000
E000
E000
E000
E000
E000
ENDCHAR
STARTCHAR 0421
ENCODING 1057
SWIDTH 585 0
DWIDTH 13 0
BBX 11 16 1 0
BITMAP
0F00
3FC0
7BC0
70E0
E0E0
E000
E000
E000
E000
E000
E000
E0E0
E0E0
71E0
3FC0
1F80
ENDCHAR
STARTCHAR 0422
ENCODING 1058
SWIDTH 585 0
DWIDTH 13 0
BBX 13 16 0 0
BITMAP
FFF8
FFF8
FFF8
0700
0700
0700
0700
0700
0700
0700
0700
0700
0700
0700
0700
0700
ENDCHAR
STARTCHAR 0423
ENCODING 1059
SWIDTH 585 0
DWIDTH 13 0
BBX 13 16 0 0
BITMAP
E038
7038
7070
3870
38E0
18E0
1CE0
0DC0
0FC0
0F80
0780
0700
0700
0E00
7E00
7C00
ENDCHAR
STARTCHAR 0424
ENCODING 1060
SWIDTH 585 0
DWIDTH 13 0
BBX 12 16 1 0
BITMAP
0600
0600
0F00
3FC0
7FE0
E670
E670
E630
C630
E670
E670
77E0
7FE0
1F80
0600
0600
ENDCHAR
STARTCHAR 0425
ENCODING 1061
SWIDTH 585 0
DWIDTH 13 0
BBX 13 16 0 0
BITMAP
7038
7070
3870
38E0
1CE0
0DC0
0F80
0780
0780
0F80
0FC0
1DC0
3CE0
38F0
7870
F078
ENDCHAR
STARTCHAR 0426
ENCODING 1062
SWIDTH 585 0
DWIDTH 13 0
BBX 12 20 1 -4
BITMAP
E0C0
E0C0
E0C0
E0C0
E0C0
E0C0
E0C0
E0C0
E0C0
E0C0
E0C0
E0C0
E0C0
E0C0
FFF0
FFF0
0030
0030
0030
0030
ENDCHAR
STARTCHAR 0427
ENCODING 1063
SWIDTH 585 0
DWIDTH 13 0
BBX 10 16 2 0
BITMAP
E1C0
E1C0
E1C0
E1C0
E1C0
E1C0
E1C0
E1C0
7FC0
3FC0
01C0
01C0
01C0
01C0
01C0
01C0
ENDCHAR
STARTCHAR 0428
ENCODING 1064
SWIDTH 585 0
DWIDTH 13 0
BBX 11 16 1 0
BITMAP
EE60
EE60
EE60
EE60
EE60
EE60
EE60
EE60
EE60
EE60
EE60
EE60
EE60
EE60
FFE0
FFE0
ENDCHAR
STARTCHAR 0429
ENCODING 1065
SWIDTH 585 0
DWIDTH 13 0
BBX 13 20 1 -4
BITMAP
EE60
EE60
EE60
EE60
EE60
EE60
EE60
EE60
EE60
EE60
EE60
EE60
EE60
EE60
FFF8
FFF8
0038
0038
0038
0038
ENDCHAR
STARTCHAR 042A
ENCODING 1066
SWIDTH 585 0
DWIDTH 13 0
BBX 11 16 1 0
BITMAP
F800
F800
F800
3800
3800
3800
3800
3FC0
3FE0
38E0
3860
3860
38E0
39E0
3FC0
3F80
ENDCHAR
STARTCHAR 042B
ENCODING 1067
SWIDTH 585 0
DWIDTH 13 0
BBX 11 16 1 0
BITMAP
E0E0
E0E0
E0E0
E0E0
E0E0
E0E0
E0E0
FCE0
FEE0
EEE0
E7E0
E7E0
E6E0
EEE0
FEE0
F8E0
ENDCHAR
STARTCHAR 042C
ENCODING 1068
SWIDTH 585 0
DWIDTH 13 0
BBX 10 16 2 0
BITMAP
C000
C000
C000
C000
C000
C000
FC00
FF00
FF80
C1C0
C1C0
C1C0
C1C0
C380
FF80
FE00
ENDCHAR
STARTCHAR 042D
ENCODING 1069
SWIDTH 585 0
DWIDTH 13 0
BBX 11 16 1 0
BITMAP
1E00
7F80
F3C0
E1C0
C0C0
C0E0
00E0
0FE0
0FE0
00E0
00E0
C0E0
E1C0
E1C0
7F80
3F00
ENDCHAR
STARTCHAR 042E
ENCODING 1070
SWIDTH 585 0
DWIDTH 13 0
BBX 11 16 1 0
BITMAP
E380
E7C0
EEE0
ECE0
EC60
EC60
EC60
FC60
FC60
EC60
EC60
EC60
ECE0
ECE0
EFC0
E780
ENDCHAR
STARTCHAR 042F
ENCODING 1071
SWIDTH 585 0
DWIDTH 13 0
BBX 11 16 0 0
BITMAP
07E0
3FE0
7FE0
70E0
60E0
60E0
70E0
78E0
3FE0
1FE0
38E0
38E0
38E0
70E0
70E0
E0E0
ENDCHAR
STARTCHAR 0430
ENCODING 1072
SWIDTH 585 0
DWIDTH 13 0
BBX 11 12 1 0
BITMAP
1F00
3F80
73C0
61C0
00C0
3FC0
7FC0
60C0
E0C0
E1C0
7FC0
3EE0
ENDCHAR
STARTCHAR 0431
ENCODING 1073
SWIDTH 585 0
DWIDTH 13 0
BBX 11 17 1 0
BITMAP
00C0
01C0
0F80
3F00
3800
6000
6F00
7FC0
F9C0
E0E0
E0E0
E0E0
E0E0
60E0
71C0
3FC0
1F80
ENDCHAR
STARTCHAR 0432
ENCODING 1074
SWIDTH 585 0
DWIDTH 13 0
BBX 10 12 2 0
BITMAP
FC00
FF00
FF80
C380
C380
FF00
FF00
C180
C1C0
C3C0
FF80
FF00
ENDCHAR
STARTCHAR 0433
ENCODING 1075
SWIDTH 585 0
DWIDTH 13 0
BBX 10 12 2 0
BITMAP
FFC0
FFC0
FFC0
C000
C000
C000
C000
C000
C000
C000
C000
C000
ENDCHAR
STARTCHAR 0434
ENCODING 1076
SWIDTH 585 0
DWIDTH 13 0
BBX 13 15 0 -3
BITMAP
1FF0
1FF0
1FF0
1C70
1C70
1C70
1C70
1C70
1C70
3870
FFF8
FFF8
6038
6038
6038
ENDCHAR
STARTCHAR 0435
ENCODING 1077
SWIDTH 585 0
DWIDTH 13 0
BBX 11 12 1 0
BITMAP
0F00
3F80
7BC0
70E0
E0E0
FFE0
FFE0
E000
7000
78C0
3FE0
1F80
ENDCHAR
STARTCHAR 0436
ENCODING 1078
SWIDTH 585 0
DWIDTH 13 0
BBX 13 12 0 0
BITMAP
E738
7770
7770
3760
3FE0
1FC0
1FC0
3FE0
3760
7770
7770
E738
ENDCHAR
STARTCHAR 0437
ENCODING 1079
SWIDTH 585 0
DWIDTH 13 0
BBX 11 12 1 0
BITMAP
1F00
7FC0
71E0
E0E0
00E0
1FC0
1FC0
00E0
00E0
F0E0
7FC0
3F80
ENDCHAR
STARTCHAR 0438
ENCODING 1080
SWIDTH 585 0
DWIDTH 13 0
BBX 11 12 1 0
BITMAP
E0E0
E1E0
E1E0
E3E0
E7E0
E6E0
EEE0
FCE0
F8E0
F8E0
F0E0
E0E0
ENDCHAR
STARTCHAR 0439
ENCODING 1081
SWIDTH 585 0
DWIDTH 13 0
BBX 11 17 1 0
BITMAP
3180
3980
1F80
0600
0000
E0E0
E1E0
E1E0
E3E0
E7E0
E6E0
EEE0
FCE0
F8E0
F8E0
F0E0
E0E0
ENDCHAR
STARTCHAR 043A
ENCODING 1082
SWIDTH 585 0
DWIDTH 13 0
BBX 11 12 2 0
BITMAP
C1E0
C3C0
C380
C700
CE00
FE00
FE00
FF00
C700
C380
C3C0
C1E0
ENDCHAR
STARTCHAR 043B
ENCODING 1083
SWIDTH 585 0
DWIDTH 13 0
BBX 12 12 0 0
BITMAP
1FF0
1FF0
1FF0
1870
1870
1870
1870
1870
3870
3870
F070
E070
ENDCHAR
STARTCHAR 043C
ENCODING 1084
SWIDTH 585 0
DWIDTH 13 0
BBX 11 12 1 0
BITMAP
F1E0
F1E0
F1E0
F1E0
FBE0
FBE0
FBE0
FBE0
EEE0
EEE0
EEE0
EEE0
ENDCHAR
STARTCHAR 043D
ENCODING 1085
SWIDTH 585 0
DWIDTH 13 0
BBX 11 12 1 0
BITMAP
E0E0
E0E0
E0E0
E0E0
E0E0
FFE0
FFE0
E0E0
E0E0
E0E0
E0E0
E0E0
ENDCHAR
STARTCHAR 043E
ENCODING 1086
SWIDTH 585 0
DWIDTH 13 0
BBX 11 12 1 0
BITMAP
0F00
3F80
7BC0
70E0
E0E0
E0E0
E0E0
E0E0
E0E0
71C0
3FC0
1F00
ENDCHAR
STARTCHAR 043F
ENCODING 1087
SWIDTH 585 0
DWIDTH 13 0
BBX 11 12 1 0
BITMAP
FFE0
FFE0
FFE0
E0E0
E0E0
E0E0
E0E0
E0E0
E0E0
E0E0
E0E0
E0E0
ENDCHAR
STARTCHAR 0440
ENCODING 1088
SWIDTH 585 0
DWIDTH 13 0
BBX 10 16 2 -4
BITMAP
CE00
FF00
F780
E1C0
C1C0
C1C0
C1C0
C1C0
C1C0
E380
FF80
DF00
C000
C000
C000
C000
ENDCHAR
STARTCHAR 0441
ENCODING 1089
SWIDTH 585 0
DWIDTH 13 0
BBX 11 12 1 0
BITMAP
0F00
3F80
7BC0
70C0
E0E0
E000
E000
E000
60E0
71C0
3FC0
1F00
ENDCHAR
STARTCHAR 0442
ENCODING 1090
SWIDTH 585 0
DWIDTH 13 0
BBX 12 12 1 0
BITMAP
FFF0
FFF0
FFF0
0E00
0E00
0E00
0E00
0E00
0E00
0E00
0E00
0E00
ENDCHAR
STARTCHAR 0443
ENCODING 1091
SWIDTH 585 0
DWIDTH 13 0
BBX 12 17 1 -5
BITMAP
E070
E070
60E0
70E0
71C0
39C0
3980
1B80
1F00
0F00
0F00
0600
0E00
1C00
7C00
7800
6000
ENDCHAR
STARTCHAR 0444
ENCODING 1092
SWIDTH 585 0
DWIDTH 13 0
BBX 11 21 1 -4
BITMAP
0E00
0E00
0E00
0E00
0E00
1F00
3FC0
7FC0
EEE0
EE60
CE60
CE60
EE60
EEE0
7FE0
7FC0
1F80
0E00
0E00
0E00
0E00
ENDCHAR
STARTCHAR 0445
ENCODING 1093
SWIDTH 585 0
DWIDTH 13 0
BBX 12 12 1 0
BITMAP
E0F0
70E0
39C0
3B80
1F80
0F00
0F00
1F00
3F80
39C0
70E0
E0F0
ENDCHAR
STARTCHAR 0446
ENCODING 1094
SWIDTH 585 0
DWIDTH 13 0
BBX 12 15 1 -3
BITMAP
E1C0
E1C0
E1C0
E1C0
E1C0
E1C0
E1C0
E1C0
E1C0
E1C0
FFF0
FFF0
0070
0070
0070
ENDCHAR
STARTCHAR 0447
ENCODING 1095
SWIDTH 585 0
DWIDTH 13 0
BBX 11 12 1 0
BITMAP
E0E0
E0E0
E0E0
E0E0
E0E0
70E0
7FE0
3FE0
00E0
00E0
00E0
00E0
ENDCHAR
STARTCHAR 0448
ENCODING 1096
SWIDTH 585 0
DWIDTH 13 0
BBX 11 12 1 0
BITMAP
EE60
EE60
EE60
EE60
EE60
EE60
EE60
EE60
EE60
EE60
FFE0
FFE0
ENDCHAR
STARTCHAR 0449
ENCODING 1097
SWIDTH 585 0
DWIDTH 13 0
BBX 12 15 1 -3
BITMAP
EEE0
EEE0
EEE0
EEE0
EEE0
EEE0
EEE0
EEE0
EEE0
EEE0
FFF0
FFF0
0030
0030
0030
ENDCHAR
STARTCHAR 044A
ENCODING 1098
SWIDTH 585 0
DWIDTH 13 0
BBX 12 12 1 0
BITMAP
F800
F800
F800
1800
1800
1FC0
1FE0
1860
1870
18E0
1FE0
1F80
ENDCHAR
STARTCHAR 044B
ENCODING 1099
SWIDTH 585 0
DWIDTH 13 0
BBX 11 12 1 0
BITMAP
E0E0
E0E0
E0E0
E0E0
E0E0
FCE0
FEE0
E6E0
E6E0
EEE0
FEE0
FCE0
ENDCHAR
STARTCHAR 044C
ENCODING 1100
SWIDTH 585 0
DWIDTH 13 0
BBX 10 12 2 0
BITMAP
C000
C000
C000
C000
FE00
FF80
FFC0
C1C0
C1C0
C1C0
FF80
FF00
ENDCHAR
STARTCHAR 044D
ENCODING 1101
SWIDTH 585 0
DWIDTH 13 0
BBX 11 12 1 0
BITMAP
1E00
3F80
7BC0
E1C0
00E0
0FE0
0FE0
00E0
E0E0
71C0
7F80
3F00
ENDCHAR
STARTCHAR 044E
ENCODING 1102
SWIDTH 585 0
DWIDTH 13 0
BBX 12 12 1 0
BITMAP
E380
E7C0
EEE0
EC60
EC70
FC70
FC70
EC70
EC70
EE60
EFE0
E7C0
ENDCHAR
STARTCHAR 044F
ENCODING 1103
SWIDTH 585 0
DWIDTH 13 0
BBX 11 12 1 0
BITMAP
0FE0
3FE0
7FE0
E0E0
E0E0
70E0
7FE0
3FE0
38E0
70E0
70E0
E0E0
ENDCHAR
STARTCHAR 0450
ENCODING 1104
SWIDTH 585 0
DWIDTH 13 0
BBX 11 16 1 0
BITMAP
7800
1800
0C00
0000
0F00
3F80
7BC0
70E0
E0E0
FFE0
FFE0
E000
7000
78C0
3FE0
1F80
ENDCHAR
STARTCHAR 0451
ENCODING 1105
SWIDTH 585 0
DWIDTH 13 0
BBX 11 16 1 0
BITMAP
3180
39C0
1080
0000
0F00
3F80
7BC0
70E0
E0E0
FFE0
FFE0
E000
7000
78C0
3FE0
1F80
ENDCHAR
STARTCHAR 0452
ENCODING 1106
SWIDTH 585 0
DWIDTH 13 0
BBX 12 22 0 -5
BITMAP
7000
7000
FE00
FE00
7000
7380
77E0
7DE0
7070
7070
7070
7070
7070
7070
7070
7070
7070
0070
0070
01E0
03E0
0380
ENDCHAR
STARTCHAR 0453
ENCODING 1107
SWIDTH 585 0
DWIDTH 13 0
BBX 10 16 2 0
BITMAP
0700
0E00
1C00
0000
FFC0
FFC0
FFC0
C000
C000
C000
C000
C000
C000
C000
C000
C000
ENDCHAR
STARTCHAR 0454
ENCODING 1108
SWIDTH 585 0
DWIDTH 13 0
BBX 11 12 1 0
BITMAP
0F00
3F80
7BC0
70C0
E0E0
FE00
FE00
E000
60E0
71C0
3FC0
1F00
ENDCHAR
STARTCHAR 0455
ENCODING 1109
SWIDTH 585 0
DWIDTH 13 0
BBX 11 12 1 0
BITMAP
0F00
3FC0
71C0
70E0
7000
7F00
1FC0
03E0
E0E0
70E0
7FC0
1F80
ENDCHAR
STARTCHAR 0456
ENCODING 1110
SWIDTH 585 0
DWIDTH 13 0
BBX 10 16 2 0
BITMAP
0C00
1E00
0C00
0000
FE00
FE00
FE00
0E00
0E00
0E00
0E00
0E00
0E00
0E00
FFC0
FFC0
ENDCHAR
STARTCHAR 0457
ENCODING 1111
SWIDTH 585 0
DWIDTH 13 0
BBX 10 16 2 0
BITMAP
6300
7380
2100
0000
FE00
FE00
FE00
0E00
0E00
0E00
0E00
0E00
0E00
0E00
FFC0
FFC0
ENDCHAR
STARTCHAR 0458
ENCODING 1112
SWIDTH 585 0
DWIDTH 13 0
BBX 7 21 2 -5
BITMAP
0E
0E
06
00
7E
7E
7E
0E
0E
0E
0E
0E
0E
0E
0E
0E
0E
0E
FE
FC
F0
ENDCHAR
STARTCHAR 0459
ENCODING 1113
SWIDTH 585 0
DWIDTH 13 0
BBX 13 12 0 0
BITMAP
3F80
3F80
3F80
3B80
3BC0
3BF0
3BF8
3BB8
33B8
73B8
F3F0
E3E0
ENDCHAR
STARTCHAR 045A
ENCODING 1114
SWIDTH 585 0
DWIDTH 13 0
BBX 12 12 1 0
BITMAP
EE00
EE00
EE00
EE00
EF80
FFE0
FFE0
EE70
EE70
EEE0
EFE0
EFC0
ENDCHAR
STARTCHAR 045B
ENCODING 1115
SWIDTH 585 0
DWIDTH 13 0
BBX 12 17 0 0
BITMAP
3000
3000
FE00
FE00
3000
33C0
37E0
3DE0
3070
3070
3070
3070
3070
3070
3070
3070
3070
ENDCHAR
STARTCHAR 045C
ENCODING 1116
SWIDTH 585 0
DWIDTH 13 0
BBX 11 16 2 0
BITMAP
0700
0E00
1C00
0000
C1E0
C3C0
C380
C700
CE00
FE00
FE00
FF00
C700
C380
C3C0
C1E0
ENDCHAR
STARTCHAR 045D
ENCODING 1117
SWIDTH 585 0
DWIDTH 13 0
BBX 11 16 1 0
BITMAP
7800
1800
0C00
0000
E0E0
E1E0
E1E0
E3E0
E7E0
E6E0
EEE0
FCE0
F8E0
F8E0
F0E0
E0E0
ENDCHAR
STARTCHAR 045E
ENCODING 1118
SWIDTH 585 0
DWIDTH 13 0
BBX 12 22 1 -5
BITMAP
3180
3980
1F80
0600
0000
E070
E070
60E0
70E0
71C0
39C0
3980
1B80
1F00
0F00
0F00
0600
0E00
1C00
7C00
7800
6000
ENDCHAR
STARTCHAR 045F
ENCODING 1119
SWIDTH 585 0
DWIDTH 13 0
BBX 11 16 1 -4
BITMAP
E0E0
E0E0
E0E0
E0E0
E0E0
E0E0
E0E0
E0E0
E0E0
E0E0
FFE0
FFE0
0E00
0E00
0E00
0E00
ENDCHAR
STARTCHAR 0460
ENCODING 1120
SWIDTH 585 0
DWIDTH 13 0
BBX 12 16 1 0
BITMAP
CE70
CE70
CE70
CE70
CE70
CE70
CE70
CE70
CE70
CE70
CE70
CE70
CE70
EE70
FFE0
7BC0
ENDCHAR
STARTCHAR 0461
ENCODING 1121
SWIDTH 585 0
DWIDTH 13 0
BBX 11 12 1 0
BITMAP
CE60
CE60
CE60
CE60
CE60
CE60
CE60
CE60
CE60
EE60
FFE0
7BC0
ENDCHAR
STARTCHAR 0462
ENCODING 1122
SWIDTH 585 0
DWIDTH 13 0
BBX 12 16 0 0
BITMAP
7000
7000
FE00
FE00
7000
7000
7F00
7FC0
7FE0
7070
7070
7070
7070
70E0
7FE0
7F80
ENDCHAR
STARTCHAR 0463
ENCODING 1123
SWIDTH 585 0
DWIDTH 13 0
BBX 12 17 0 0
BITMAP
3800
3800
3800
3800
FF00
3800
3800
3800
3800
3800
3FE0
3FF0
3870
3870
3870
3FE0
3FC0
ENDCHAR
STARTCHAR 0464
ENCODING 1124
SWIDTH 585 0
DWIDTH 13 0
BBX 12 16 1 0
BITMAP
C3C0
C7E0
CFE0
CE70
CC70
CC00
CC00
FF80
FF80
CC00
CC00
CC70
CE70
CEE0
C7E0
C3C0
ENDCHAR
STARTCHAR 0465
ENCODING 1125
SWIDTH 585 0
DWIDTH 13 0
BBX 12 12 1 0
BITMAP
E3C0
E7E0
EFE0
EE70
EE00
FF80
FF80
EE00
EE70
EE70
E7E0
E3C0
ENDCHAR
STARTCHAR 0466
ENCODING 1126
SWIDTH 585 0
DWIDTH 13 0
BBX 14 16 0 0
BITMAP
0700
0780
0780
0F80
0FC0
0DC0
1CC0
1CE0
1CE0
3FE0
3FF0
3B70
7330
7338
7338
E31C
ENDCHAR
STARTCHAR 0467
ENCODING 1127
SWIDTH 585 0
DWIDTH 13 0
BBX 12 12 1 0
BITMAP
0E00
0F00
0F00
1F00
1B80
3980
39C0
3FC0
7FC0
76E0
E6E0
E670
ENDCHAR
STARTCHAR 0468
ENCODING 1128
SWIDTH 585 0
DWIDTH 13 0
BBX 12 16 1 0
BITMAP
C380
C380
C380
C380
C6C0
C6C0
C6C0
C6C0
CEC0
FFE0
FFE0
CD60
CD60
DD70
D970
D930
ENDCHAR
STARTCHAR 0469
ENCODING 1129
SWIDTH 585 0
DWIDTH 13 0
BBX 12 12 1 0
BITMAP
C380
C380
C380
C7C0
C6C0
C6C0
CEC0
FFE0
FFE0
CD60
DD70
D930
ENDCHAR
STARTCHAR 046A
ENCODING 1130
SWIDTH 585 0
DWIDTH 13 0
BBX 12 16 1 0
BITMAP
FFE0
7FE0
7FC0
31C0
39C0
1B80
1F80
0F00
7FE0
FFF0
EE70
CE70
CE70
CE70
CE70
CE70
ENDCHAR
STARTCHAR 046B
ENCODING 1131
SWIDTH 585 0
DWIDTH 13 0
BBX 11 12 1 0
BITMAP
FFE0
7FC0
71C0
3B80
3B80
1F00
7FC0
FFE0
EEE0
EEE0
EEE0
EEE0
ENDCHAR
STARTCHAR 046C
ENCODING 1132
SWIDTH 585 0
DWIDTH 13 0
BBX 12 16 1 0
BITMAP
DFF0
CFE0
CC60
CEE0
C6C0
C6C0
C7C0
FF80
FFE0
FFF0
DBB0
DBB0
DBB0
DBB0
DBB0
DBB0
ENDCHAR
STARTCHAR 046D
ENCODING 1133
SWIDTH 585 0
DWIDTH 13 0
BBX 12 12 1 0
BITMAP
CFF0
CFE0
CEE0
C6C0
C7C0
C3C0
FFE0
DFF0
DBB0
DBB0
DBB0
DBB0
ENDCHAR
STARTCHAR 046E
ENCODING 1134
SWIDTH 585 0
DWIDTH 13 0
BBX 10 26 2 -5
BITMAP
C700
6E00
3C00
0000
0000
7800
7F00
7F80
0380
0380
0380
0780
3F00
3F00
0780
0380
01C0
0180
0380
7F80
FE00
E000
C000
E000
7000
2000
ENDCHAR
STARTCHAR 046F
ENCODING 1135
SWIDTH 585 0
DWIDTH 13 0
BBX 9 21 2 -5
BITMAP
F700
3C00
0000
0000
7C00
7F00
0780
0380
0380
3F00
3F00
0380
0180
0380
3F80
FF00
E000
C000
E000
7000
2000
ENDCHAR
STARTCHAR 0470
ENCODING 1136
SWIDTH 585 0
DWIDTH 13 0
BBX 12 16 1 0
BITMAP
E670
E670
E670
E670
E670
E670
E670
E670
E670
F6F0
7FE0
3FC0
0600
0600
0600
0600
ENDCHAR
STARTCHAR 0471
ENCODING 1137
SWIDTH 585 0
DWIDTH 13 0
BBX 12 17 1 -5
BITMAP
EE60
EE70
EE70
EE70
EE70
EE70
EE70
EE70
EE70
7EE0
7FE0
1F80
0E00
0E00
0E00
0E00
0E00
ENDCHAR
STARTCHAR 0472
ENCODING 1138
SWIDTH 585 0
DWIDTH 13 0
BBX 11 16 1 0
BITMAP
0F00
3F80
7FC0
70E0
E0E0
E0E0
E0E0
FFE0
FFE0
E0E0
E0E0
E0E0
E0E0
71C0
3F80
1F00
ENDCHAR
STARTCHAR 0473
ENCODING 1139
SWIDTH 585 0
DWIDTH 13 0
BBX 11 12 1 0
BITMAP
1F00
3F80
7BC0
E1C0
E0E0
FFE0
FFE0
E0E0
E0E0
71C0
7FC0
1F00
ENDCHAR
STARTCHAR 0474
ENCODING 1140
SWIDTH 585 0
DWIDTH 13 0
BBX 14 16 0 0
BITMAP
E00C
701C
703C
7030
3070
3870
3860
18E0
1CE0
1CC0
0CC0
0FC0
0F80
0780
0780
0700
ENDCHAR
STARTCHAR 0475
ENCODING 1141
SWIDTH 585 0
DWIDTH 13 0
BBX 11 12 1 0
BITMAP
E060
E0E0
E1E0
6180
7380
7380
3300
3F00
1F00
1E00
1E00
0E00
ENDCHAR
STARTCHAR 0476
ENCODING 1142
SWIDTH 585 0
DWIDTH 13 0
BBX 14 20 0 0
BITMAP
7F00
1980
0CC0
0000
E00C
701C
703C
7030
3070
3870
3860
18E0
1CE0
1CC0
0CC0
0FC0
0F80
0780
0780
0700
ENDCHAR
STARTCHAR 0477
ENCODING 1143
SWIDTH 585 0
DWIDTH 13 0
BBX 11 17 1 0
BITMAP
FE00
3300
1980
0000
0000
E060
E0E0
E1E0
6180
7380
7380
3300
3F00
1F00
1E00
1E00
0E00
ENDCHAR
STARTCHAR 0478
ENCODING 1144
SWIDTH 585 0
DWIDTH 13 0
BBX 12 21 1 -5
BITMAP
7000
7800
CC00
CC00
CD30
CDB0
CDB0
CDA0
CDE0
CDE0
CDE0
CCE0
CCE0
CCC0
F8C0
78C0
00C0
00C0
0180
0380
0300
ENDCHAR
STARTCHAR 0479
ENCODING 1145
SWIDTH 585 0
DWIDTH 13 0
BBX 12 17 1 -5
BITMAP
3930
7DB0
CDB0
CDA0
CFE0
C7E0
C7E0
C6E0
CCE0
CCC0
FCC0
78C0
00C0
00C0
0180
0380
0300
ENDCHAR
STARTCHAR 047A
ENCODING 1146
SWIDTH 585 0
DWIDTH 13 0
BBX 11 18 1 -1
BITMAP
0600
0F00
3F80
7FC0
76E0
E0E0
E0E0
E0E0
E0E0
E0E0
E0E0
E0E0
E0E0
E0E0
77C0
3FC0
1F00
0600
ENDCHAR
STARTCHAR 047B
ENCODING 1147
SWIDTH 585 0
DWIDTH 13 0
BBX 11 15 1 -2
BITMAP
0600
0F00
3F80
7FC0
76E0
E0E0
E0E0
E0E0
E0E0
E0E0
75C0
3FC0
1F00
0400
0400
ENDCHAR
STARTCHAR 047C
ENCODING 1148
SWIDTH 585 0
DWIDTH 13 0
BBX 13 20 1 0
BITMAP
0E00
1FC0
10C0
0600
1680
74E0
F0F0
E070
C030
C038
C038
C638
C638
C638
C638
C638
C630
EF70
FFF0
7FE0
ENDCHAR
STARTCHAR 047D
ENCODING 1149
SWIDTH 585 0
DWIDTH 13 0
BBX 12 16 1 0
BITMAP
1E00
33C0
30C0
0600
3680
74E0
E060
E070
C070
C070
C670
C670
C670
EE60
FFE0
7BC0
ENDCHAR
STARTCHAR 047E
ENCODING 1150
SWIDTH 585 0
DWIDTH 13 0
BBX 12 19 1 0
BITMAP
3FC0
0600
0000
E670
E670
E670
E670
E670
E670
E670
E670
E670
E670
E670
E670
E670
EE70
FFE0
7BC0
ENDCHAR
STARTCHAR 047F
ENCODING 1151
SWIDTH 585 0
DWIDTH 13 0
BBX 11 16 1 0
BITMAP
3FC0
3FC0
0600
0000
CE60
CE60
CE60
CE60
CE60
CE60
CE60
CE60
CE60
EE60
FFE0
7BC0
ENDCHAR
STARTCHAR 0480
ENCODING 1152
SWIDTH 585 0
DWIDTH 13 0
BBX 11 20 1 -4
BITMAP
0F00
3FC0
79C0
70E0
60E0
E0E0
E000
E000
E000
E000
E000
6000
7000
7800
3F00
1F00
0700
0700
0700
0700
ENDCHAR
STARTCHAR 0481
ENCODING 1153
SWIDTH 585 0
DWIDTH 13 0
BBX 10 16 2 -4
BITMAP
1E00
3F80
7B80
E1C0
E1C0
E000
E000
E000
E000
7000
7E00
3E00
0E00
0E00
0E00
0E00
ENDCHAR
STARTCHAR 0482
ENCODING 1154
SWIDTH 585 0
DWIDTH 13 0
BBX 12 14 1 0
BITMAP
0060
08C0
1D80
0780
0380
03F0
0620
E400
7C00
1C00
1F00
3380
3000
6000
ENDCHAR
STARTCHAR 0483
ENCODING 1155
SWIDTH 585 0
DWIDTH 13 0
BBX 8 3 -6 13
BITMAP
03
FF
C0
ENDCHAR
STARTCHAR 0484
ENCODING 1156
SWIDTH 585 0
DWIDTH 13 0
BBX 8 3 -6 14
BITMAP
0E
7F
E1
ENDCHAR
STARTCHAR 0485
ENCODING 1157
SWIDTH 585 0
DWIDTH 13 0
BBX 2 3 -3 14
BITMAP
C0
C0
40
ENDCHAR
STARTCHAR 0486
ENCODING 1158
SWIDTH 585 0
DWIDTH 13 0
BBX 2 3 -3 14
BITMAP
C0
C0
80
ENDCHAR
STARTCHAR 0488
ENCODING 1160
SWIDTH 585 0
DWIDTH 13 0
BBX 21 19 -4 -3
BITMAP
002000
00D800
000000
1800C0
360120
000000
000000
000000
000000
700078
880048
000000
000000
000000
1800C0
340120
020000
002000
00D800
ENDCHAR
STARTCHAR 0489
ENCODING 1161
SWIDTH 585 0
DWIDTH 13 0
BBX 20 20 -3 -4
BITMAP
002000
006000
104000
10C080
1801C0
0C0700
080000
000000
000000
C00080
6000F0
000000
000000
000000
000200
0C0300
380100
206180
004100
00C000
ENDCHAR
STARTCHAR 048A
ENCODING 1162
SWIDTH 585 0
DWIDTH 13 0
BBX 12 24 1 -4
BITMAP
3180
3980
1F80
0600
E0E0
E1E0
E1E0
E3E0
E3E0
E7E0
E6E0
E6E0
EEE0
ECE0
FCE0
F8E0
F8E0
F0F0
F0F0
E0F0
0030
0030
0070
0060
ENDCHAR
STARTCHAR 048B
ENCODING 1163
SWIDTH 585 0
DWIDTH 13 0
BBX 12 21 1 -4
BITMAP
3180
3980
1F80
0600
0000
E0E0
E1E0
E1E0
E3E0
E7E0
E6E0
EEE0
FCE0
F8E0
F8F0
F0F0
E0F0
0030
0030
0070
0060
ENDCHAR
STARTCHAR 048C
ENCODING 1164
SWIDTH 585 0
DWIDTH 13 0
BBX 12 16 0 0
BITMAP
7000
7000
FE00
FE00
7000
7000
7F00
7FC0
7FE0
7070
7070
7070
7070
70E0
7FE0
7F80
ENDCHAR
STARTCHAR 048D
ENCODING 1165
SWIDTH 585 0
DWIDTH 13 0
BBX 12 12 0 0
BITMAP
3000
F000
FF00
3000
3F80
3FE0
3FF0
3070
3070
3070
3FE0
3FC0
ENDCHAR
STARTCHAR 048E
ENCODING 1166
SWIDTH 585 0
DWIDTH 13 0
BBX 10 16 2 0
BITMAP
FC00
FF80
FFC0
E1C0
E0C0
E0C0
EDC0
E7C0
FF80
FF00
E180
E0C0
E000
E000
E000
E000
ENDCHAR
STARTCHAR 048F
ENCODING 1167
SWIDTH 585 0
DWIDTH 13 0
BBX 10 16 2 -4
BITMAP
CE00
FF00
F780
E1C0
C1C0
C1C0
C1C0
C5C0
CDC0
E780
FF80
DF80
C0C0
C000
C000
C000
ENDCHAR
STARTCHAR 0490
ENCODING 1168
SWIDTH 585 0
DWIDTH 13 0
BBX 10 20 2 0
BITMAP
01C0
01C0
01C0
01C0
FFC0
FFC0
FFC0
E000
E000
E000
E000
E000
E000
E000
E000
E000
E000
E000
E000
E000
ENDCHAR
STARTCHAR 0491
ENCODING 1169
SWIDTH 585 0
DWIDTH 13 0
BBX 10 15 2 0
BITMAP
01C0
01C0
01C0
FFC0
FFC0
FFC0
C000
C000
C000
C000
C000
C000
C000
C000
C000
ENDCHAR
STARTCHAR 0492
ENCODING 1170
SWIDTH 585 0
DWIDTH 13 0
BBX 12 16 0 0
BITMAP
3FF0
3FF0
3FF0
3000
3000
3000
3000
FE00
FE00
3000
3000
3000
3000
3000
3000
3000
ENDCHAR
STARTCHAR 0493
ENCODING 1171
SWIDTH 585 0
DWIDTH 13 0
BBX 12 12 0 0
BITMAP
3FF0
3FF0
3FF0
3000
3000
FE00
FE00
3000
3000
3000
3000
3000
ENDCHAR
STARTCHAR 0494
ENCODING 1172
SWIDTH 585 0
DWIDTH 13 0
BBX 11 19 2 -3
BITMAP
FFC0
FFC0
FFC0
C000
C000
C000
C000
FE00
FF80
C3C0
C1C0
C0E0
C0E0
C0E0
C0E0
C0C0
01C0
07C0
0780
ENDCHAR
STARTCHAR 0495
ENCODING 1173
SWIDTH 585 0
DWIDTH 13 0
BBX 10 15 2 -3
BITMAP
FFC0
FFC0
FFC0
C000
C000
FE00
FF80
C3C0
C1C0
C1C0
C1C0
C1C0
03C0
0780
0300
ENDCHAR
STARTCHAR 0496
ENCODING 1174
SWIDTH 585 0
DWIDTH 13 0
BBX 14 20 0 -4
BITMAP
E738
7730
7770
7770
3760
3760
3FE0
1FC0
3FE0
3FE0
3760
7770
7770
7770
E73C
E73C
001C
001C
001C
001C
ENDCHAR
STARTCHAR 0497
ENCODING 1175
SWIDTH 585 0
DWIDTH 13 0
BBX 14 16 0 -4
BITMAP
E738
7770
7770
3760
3FE0
1FC0
1FC0
3FE0
3760
7770
777C
E73C
001C
001C
001C
001C
ENDCHAR
STARTCHAR 0498
ENCODING 1176
SWIDTH 585 0
DWIDTH 13 0
BBX 12 22 1 -6
BITMAP
1F00
3FC0
79E0
E0E0
E0E0
00E0
00E0
0FC0
0FC0
00E0
0060
0070
E060
F0E0
7FC0
3F80
0E00
0E00
0E00
0E00
0E00
0E00
ENDCHAR
STARTCHAR 0499
ENCODING 1177
SWIDTH 585 0
DWIDTH 13 0
BBX 11 17 1 -5
BITMAP
1F00
7FC0
71E0
E0E0
00E0
1FC0
1FC0
00E0
00E0
F0E0
7FC0
3F80
0E00
0E00
0E00
0E00
0E00
ENDCHAR
STARTCHAR 049A
ENCODING 1178
SWIDTH 585 0
DWIDTH 13 0
BBX 12 20 2 -4
BITMAP
C0E0
C1C0
C3C0
C380
C700
CF00
CE00
FC00
FC00
CE00
CF00
C700
C380
C3C0
C1F0
C0F0
0070
0070
0070
0070
ENDCHAR
STARTCHAR 049B
ENCODING 1179
SWIDTH 585 0
DWIDTH 13 0
BBX 12 16 2 -4
BITMAP
C1E0
C3C0
C380
C700
CE00
FE00
FE00
FF00
C700
C380
C3F0
C1F0
0070
0070
0070
0070
ENDCHAR
STARTCHAR 049C
ENCODING 1180
SWIDTH 585 0
DWIDTH 13 0
BBX 12 16 2 0
BITMAP
C0E0
C1E0
C1C0
C1C0
DB80
DB80
DF00
FF00
FF00
DF80
DB80
DBC0
C1C0
C1E0
C0E0
C0F0
ENDCHAR
STARTCHAR 049D
ENCODING 1181
SWIDTH 585 0
DWIDTH 13 0
BBX 11 12 2 0
BITMAP
C1E0
C1C0
C380
DB80
DF00
FF00
FF00
FF00
DB80
C380
C1C0
C1E0
ENDCHAR
STARTCHAR 049E
ENCODING 1182
SWIDTH 585 0
DWIDTH 13 0
BBX 13 16 0 0
BITMAP
3838
3870
FEF0
FEE0
39C0
39C0
3B80
3F00
3F80
3B80
39C0
39C0
38E0
38F0
3870
3838
ENDCHAR
STARTCHAR 049F
ENCODING 1183
SWIDTH 585 0
DWIDTH 13 0
BBX 13 17 0 0
BITMAP
3800
3800
FE00
FE00
3800
3870
38E0
39C0
3B80
3F00
3F00
3F80
3B80
39C0
38E0
38F0
3878
ENDCHAR
STARTCHAR 04A0
ENCODING 1184
SWIDTH 585 0
DWIDTH 13 0
BBX 13 16 0 0
BITMAP
FC78
FC70
FC70
0CE0
0CE0
0CC0
0DC0
0FC0
0FC0
0DC0
0CE0
0CE0
0CF0
0C70
0C70
0C38
ENDCHAR
STARTCHAR 04A1
ENCODING 1185
SWIDTH 585 0
DWIDTH 13 0
BBX 13 12 0 0
BITMAP
FE78
FE70
FEF0
0EE0
0EC0
0FC0
0FC0
0FE0
0EE0
0EF0
0E70
0E78
ENDCHAR
STARTCHAR 04A2
ENCODING 1186
SWIDTH 585 0
DWIDTH 13 0
BBX 12 20 1 -4
BITMAP
E0E0
E0E0
E0E0
E0E0
E0E0
E0E0
E0E0
FFE0
FFE0
E0E0
E0E0
E0E0
E0E0
E0E0
E0F0
E0F0
0070
0070
0070
0070
ENDCHAR
STARTCHAR 04A3
ENCODING 1187
SWIDTH 585 0
DWIDTH 13 0
BBX 12 16 1 -4
BITMAP
E0E0
E0E0
E0E0
E0E0
E0E0
FFE0
FFE0
E0E0
E0E0
E0E0
E0F0
E0F0
0070
0070
0070
0070
ENDCHAR
STARTCHAR 04A4
ENCODING 1188
SWIDTH 585 0
DWIDTH 13 0
BBX 12 16 1 0
BITMAP
C3F0
C3F0
C3F0
C300
C300
C300
C300
FF00
FF00
C300
C300
C300
C300
C300
C300
C300
ENDCHAR
STARTCHAR 04A5
ENCODING 1189
SWIDTH 585 0
DWIDTH 13 0
BBX 12 12 1 0
BITMAP
E3F0
E3F0
E3F0
E380
E380
FF80
FF80
E380
E380
E380
E380
E380
ENDCHAR
STARTCHAR 04A6
ENCODING 1190
SWIDTH 585 0
DWIDTH 13 0
BBX 12 20 1 -4
BITMAP
FE00
FE00
FE00
CE00
CE00
CE00
CE00
CF80
CFC0
CFE0
CEE0
CE70
CE70
CE70
CE70
CE70
0060
01E0
01C0
0100
ENDCHAR
STARTCHAR 04A7
ENCODING 1191
SWIDTH 585 0
DWIDTH 13 0
BBX 12 15 1 -3
BITMAP
FE00
FE00
FE00
EE00
EE00
EFC0
EFE0
EEE0
EE70
EE70
EE70
EE70
00E0
01E0
0080
ENDCHAR
STARTCHAR 04A8
ENCODING 1192
SWIDTH 585 0
DWIDTH 13 0
BBX 12 16 1 0
BITMAP
1180
77C0
77E0
E660
EE60
EE70
EE70
EE70
EE70
EE70
E660
E7E0
77E0
7BC0
3FF0
1FF0
ENDCHAR
STARTCHAR 04A9
ENCODING 1193
SWIDTH 585 0
DWIDTH 13 0
BBX 12 12 1 0
BITMAP
31C0
77E0
F7E0
E670
E670
EE70
E670
E670
E6E0
73E0
7FF0
1FF0
ENDCHAR
STARTCHAR 04AA
ENCODING 1194
SWIDTH 585 0
DWIDTH 13 0
BBX 11 21 1 -5
BITMAP
0F00
3FC0
7BC0
70E0
E0E0
E000
E000
E000
E000
E000
E000
E0E0
E0E0
71E0
3FC0
1F80
0E00
0E00
0E00
0E00
0E00
ENDCHAR
STARTCHAR 04AB
ENCODING 1195
SWIDTH 585 0
DWIDTH 13 0
BBX 11 17 1 -5
BITMAP
0F00
3F80
7BC0
70C0
E0E0
E000
E000
E000
60E0
71C0
3FC0
1F00
0E00
0E00
0E00
0E00
0E00
ENDCHAR
STARTCHAR 04AC
ENCODING 1196
SWIDTH 585 0
DWIDTH 13 0
BBX 13 20 0 -4
BITMAP
FFF8
FFF8
FFF8
0700
0700
0700
0700
0700
0700
0700
0700
0700
0700
0700
0780
0780
0380
0380
0380
0380
ENDCHAR
STARTCHAR 04AD
ENCODING 1197
SWIDTH 585 0
DWIDTH 13 0
BBX 12 16 1 -4
BITMAP
FFF0
FFF0
FFF0
0E00
0E00
0E00
0E00
0E00
0E00
0E00
0F80
0F80
0380
0380
0380
0380
ENDCHAR
STARTCHAR 04AE
ENCODING 1198
SWIDTH 585 0
DWIDTH 13 0
BBX 13 16 0 0
BITMAP
F038
7070
7070
3860
38E0
1CC0
1DC0
0FC0
0F80
0780
0700
0700
0700
0700
0700
0700
ENDCHAR
STARTCHAR 04AF
ENCODING 1199
SWIDTH 585 0
DWIDTH 13 0
BBX 12 16 1 -4
BITMAP
C070
E060
E0E0
70E0
71C0
31C0
3980
1B80
1B00
1F00
0F00
0E00
0E00
0E00
0E00
0E00
ENDCHAR
STARTCHAR 04B0
ENCODING 1200
SWIDTH 585 0
DWIDTH 13 0
BBX 13 16 0 0
BITMAP
F038
7070
7070
3860
38E0
1CC0
1DC0
0FC0
1F80
1FC0
0700
0700
0700
0700
0700
0700
ENDCHAR
STARTCHAR 04B1
ENCODING 1201
SWIDTH 585 0
DWIDTH 13 0
BBX 12 16 1 -4
BITMAP
C070
E060
E0E0
70E0
71C0
31C0
3980
1B80
1B00
1F00
3F80
3F80
0E00
0E00
0E00
0E00
ENDCHAR
STARTCHAR 04B2
ENCODING 1202
SWIDTH 585 0
DWIDTH 13 0
BBX 13 20 0 -4
BITMAP
7038
7070
3870
38E0
1CE0
0DC0
0F80
0780
0780
0F80
0FC0
1DC0
3CE0
38F0
7878
F078
0038
0038
0038
0038
ENDCHAR
STARTCHAR 04B3
ENCODING 1203
SWIDTH 585 0
DWIDTH 13 0
BBX 12 16 1 -4
BITMAP
E0F0
70E0
39C0
3B80
1F80
0F00
0F00
1F00
3F80
39C0
70E0
E0F0
00E0
00E0
00E0
00E0
ENDCHAR
STARTCHAR 04B4
ENCODING 1204
SWIDTH 585 0
DWIDTH 13 0
BBX 13 20 0 -4
BITMAP
FF70
FF70
FF70
1870
1870
1870
1870
1870
1870
1870
1870
1870
1870
1870
1FF8
1FF8
0018
0018
0018
0018
ENDCHAR
STARTCHAR 04B5
ENCODING 1205
SWIDTH 585 0
DWIDTH 13 0
BBX 13 15 0 -3
BITMAP
FE60
FE60
FE60
1860
1860
1860
1860
1860
1860
1860
1FF8
1FF8
0038
0038
0038
ENDCHAR
STARTCHAR 04B6
ENCODING 1206
SWIDTH 585 0
DWIDTH 13 0
BBX 12 20 2 -4
BITMAP
E1C0
E1C0
E1C0
E1C0
E1C0
E1C0
E1C0
E1C0
7FC0
3FC0
01C0
01C0
01C0
01C0
01F0
01F0
0070
0070
0070
0070
ENDCHAR
STARTCHAR 04B7
ENCODING 1207
SWIDTH 585 0
DWIDTH 13 0
BBX 13 16 1 -4
BITMAP
E0E0
E0E0
E0E0
E0E0
E0E0
70E0
7FE0
3FE0
00E0
00E0
00F8
00F8
0038
0038
0038
0038
ENDCHAR
STARTCHAR 04B8
ENCODING 1208
SWIDTH 585 0
DWIDTH 13 0
BBX 10 16 2 0
BITMAP
C1C0
C1C0
C1C0
C1C0
C1C0
D9C0
D9C0
F9C0
FFC0
7FC0
19C0
19C0
19C0
01C0
01C0
01C0
ENDCHAR
STARTCHAR 04B9
ENCODING 1209
SWIDTH 585 0
DWIDTH 13 0
BBX 11 12 1 0
BITMAP
E0E0
E0E0
E0E0
E4E0
E4E0
74E0
7FE0
3FE0
04E0
04E0
00E0
00E0
ENDCHAR
STARTCHAR 04BA
ENCODING 1210
SWIDTH 585 0
DWIDTH 13 0
BBX 10 16 2 0
BITMAP
C000
C000
C000
C000
C000
C000
FE00
FF80
F780
C1C0
C1C0
C1C0
C1C0
C1C0
C1C0
C1C0
ENDCHAR
STARTCHAR 04BB
ENCODING 1211
SWIDTH 585 0
DWIDTH 13 0
BBX 10 17 2 0
BITMAP
C000
C000
C000
C000
C000
CF00
DF80
F780
C1C0
C1C0
C1C0
C1C0
C1C0
C1C0
C1C0
C1C0
C1C0
ENDCHAR
STARTCHAR 04BC
ENCODING 1212
SWIDTH 585 0
DWIDTH 13 0
BBX 13 16 0 0
BITMAP
0380
0FE0
0FF0
1C70
DC70
DC30
F830
FFF8
3FF0
3800
1C00
1C00
1C00
1F20
0FF0
07F0
ENDCHAR
STARTCHAR 04BD
ENCODING 1213
SWIDTH 585 0
DWIDTH 13 0
BBX 13 12 0 0
BITMAP
03C0
07E0
0FF0
DE70
7C30
7FF8
3FF8
1C00
1C00
0E30
0FF0
03E0
ENDCHAR
STARTCHAR 04BE
ENCODING 1214
SWIDTH 585 0
DWIDTH 13 0
BBX 13 21 0 -5
BITMAP
0380
0FE0
0FF0
1C70
DC70
DC30
F830
FFF8
3FF0
3800
1C00
1C00
1C00
1F20
0FF0
07F0
0380
0380
0380
0380
0380
ENDCHAR
STARTCHAR 04BF
ENCODING 1215
SWIDTH 585 0
DWIDTH 13 0
BBX 13 17 0 -5
BITMAP
03C0
07E0
0FF0
DE70
7C30
7FF8
3FF8
1C00
1C00
0E30
0FF0
03E0
0380
0380
0380
0380
0380
ENDCHAR
STARTCHAR 04C0
ENCODING 1216
SWIDTH 585 0
DWIDTH 13 0
BBX 9 16 2 0
BITMAP
FF80
FF80
FF80
1C00
1C00
1C00
1C00
1C00
1C00
1C00
1C00
1C00
1C00
1C00
FF80
FF80
ENDCHAR
STARTCHAR 04C1
ENCODING 1217
SWIDTH 585 0
DWIDTH 13 0
BBX 13 20 0 0
BITMAP
18C0
1CC0
0FC0
0300
E738
7730
7770
7770
3760
3760
3FE0
1FC0
3FE0
3FE0
3760
7770
7770
7770
E738
E738
ENDCHAR
STARTCHAR 04C2
ENCODING 1218
SWIDTH 585 0
DWIDTH 13 0
BBX 13 17 0 0
BITMAP
18C0
1CC0
0FC0
0300
0000
E738
7770
7770
3760
3FE0
1FC0
1FC0
3FE0
3760
7770
7770
E738
ENDCHAR
STARTCHAR 04C3
ENCODING 1219
SWIDTH 585 0
DWIDTH 13 0
BBX 11 20 2 -4
BITMAP
E1E0
E1C0
E380
E380
E700
E600
EE00
FF00
FF80
E3C0
E1E0
E0E0
E0E0
E0E0
E0E0
E0E0
01C0
07C0
0780
0400
ENDCHAR
STARTCHAR 04C4
ENCODING 1220
SWIDTH 585 0
DWIDTH 13 0
BBX 10 15 2 -3
BITMAP
C1C0
C380
C780
C700
CE00
FC00
FF00
FF80
C1C0
C1C0
C1C0
C1C0
0380
0780
0300
ENDCHAR
STARTCHAR 04C5
ENCODING 1221
SWIDTH 585 0
DWIDTH 13 0
BBX 14 20 0 -4
BITMAP
1FF0
1FF0
1FF0
1870
1870
1870
1870
1870
1870
1870
1870
3870
3870
387C
F07C
E07C
000C
000C
001C
0018
ENDCHAR
STARTCHAR 04C6
ENCODING 1222
SWIDTH 585 0
DWIDTH 13 0
BBX 13 16 0 -4
BITMAP
1FF0
1FF0
1FF0
1870
1870
1870
1870
1870
3870
3878
F078
E078
0018
0018
0038
0030
ENDCHAR
STARTCHAR 04C7
ENCODING 1223
SWIDTH 585 0
DWIDTH 13 0
BBX 10 21 2 -5
BITMAP
C1C0
C1C0
C1C0
C1C0
C1C0
C1C0
C1C0
FFC0
FFC0
C1C0
C1C0
C1C0
C1C0
C1C0
C1C0
C1C0
01C0
0180
0F80
0F80
0E00
ENDCHAR
STARTCHAR 04C8
ENCODING 1224
SWIDTH 585 0
DWIDTH 13 0
BBX 9 17 2 -5
BITMAP
C180
C180
C180
C180
C180
FF80
FF80
C180
C180
C180
C180
C180
0180
0180
0F80
0F80
0E00
ENDCHAR
STARTCHAR 04C9
ENCODING 1225
SWIDTH 585 0
DWIDTH 13 0
BBX 12 20 1 -4
BITMAP
E0E0
E0E0
E0E0
E0E0
E0E0
E0E0
E0E0
FFE0
FFE0
E0E0
E0E0
E0E0
E0E0
E0F0
E0F0
E0F0
0030
0030
0070
0060
ENDCHAR
STARTCHAR 04CA
ENCODING 1226
SWIDTH 585 0
DWIDTH 13 0
BBX 12 16 1 -4
BITMAP
E0E0
E0E0
E0E0
E0E0
E0E0
FFE0
FFE0
E0E0
E0E0
E0F0
E0F0
E0F0
0030
0030
0070
0060
ENDCHAR
STARTCHAR 04CB
ENCODING 1227
SWIDTH 585 0
DWIDTH 13 0
BBX 10 20 2 -4
BITMAP
E1C0
E1C0
E1C0
E1C0
E1C0
E1C0
E1C0
E1C0
7FC0
3FC0
01C0
01C0
01C0
01C0
07C0
07C0
0700
0700
0700
0700
ENDCHAR
STARTCHAR 04CC
ENCODING 1228
SWIDTH 585 0
DWIDTH 13 0
BBX 11 16 1 -4
BITMAP
E0E0
E0E0
E0E0
E0E0
E0E0
70E0
7FE0
3FE0
00E0
00E0
03E0
03E0
0380
0380
0380
0380
ENDCHAR
STARTCHAR 04CD
ENCODING 1229
SWIDTH 585 0
DWIDTH 13 0
BBX 13 20 1 -4
BITMAP
F1E0
F1E0
F1E0
F9E0
FB60
FBE0
EFE0
EEE0
EEE0
EEE0
E4E0
E0E0
E0E0
E0F8
E0F8
E0F8
0018
0018
0038
0030
ENDCHAR
STARTCHAR 04CE
ENCODING 1230
SWIDTH 585 0
DWIDTH 13 0
BBX 13 16 1 -4
BITMAP
F1E0
F1E0
F1E0
F1E0
FBE0
FBE0
FBE0
FBE0
EEE0
EEF8
EEF8
EEF8
0018
0018
0038
0030
ENDCHAR
STARTCHAR 04CF
ENCODING 1231
SWIDTH 585 0
DWIDTH 13 0
BBX 9 16 2 0
BITMAP
FF80
FF80
FF80
1C00
1C00
1C00
1C00
1C00
1C00
1C00
1C00
1C00
1C00
1C00
FF80
FF80
ENDCHAR
STARTCHAR 04D0
ENCODING 1232
SWIDTH 585 0
DWIDTH 13 0
BBX 13 20 0 0
BITMAP
18C0
1CC0
0FC0
0300
0700
0700
0780
0780
0F80
0DC0
0DC0
1CC0
1CE0
18E0
3FE0
3FF0
3FF0
7070
7038
F038
ENDCHAR
STARTCHAR 04D1
ENCODING 1233
SWIDTH 585 0
DWIDTH 13 0
BBX 11 17 1 0
BITMAP
3180
3980
1F80
0600
0000
1F00
3F80
73C0
61C0
00C0
3FC0
7FC0
60C0
E0C0
E1C0
7FC0
3EE0
ENDCHAR
STARTCHAR 04D2
ENCODING 1234
SWIDTH 585 0
DWIDTH 13 0
BBX 13 20 0 0
BITMAP
18C0
1CE0
0840
0000
0700
0700
0780
0780
0F80
0DC0
0DC0
1CC0
1CE0
18E0
3FE0
3FF0
3FF0
7070
7038
F038
ENDCHAR
STARTCHAR 04D3
ENCODING 1235
SWIDTH 585 0
DWIDTH 13 0
BBX 11 16 1 0
BITMAP
3180
39C0
1080
0000
1F00
3F80
73C0
61C0
00C0
3FC0
7FC0
60C0
E0C0
E1C0
7FC0
3EE0
ENDCHAR
STARTCHAR 04D4
ENCODING 1236
SWIDTH 585 0
DWIDTH 13 0
BBX 13 16 0 0
BITMAP
03F0
07F0
07F0
07C0
0FC0
0DC0
0DC0
1DF0
1DF0
19C0
3FC0
3FC0
31C0
71C0
71F8
E1F8
ENDCHAR
STARTCHAR 04D5
ENCODING 1237
SWIDTH 585 0
DWIDTH 13 0
BBX 13 12 0 0
BITMAP
1CE0
7FF0
77B8
6738
0738
1FF8
7FF8
7700
E700
6710
7FF0
3DF8
ENDCHAR
STARTCHAR 04D6
ENCODING 1238
SWIDTH 585 0
DWIDTH 13 0
BBX 10 20 2 0
BITMAP
6300
7300
3F00
0C00
FFC0
FFC0
FFC0
C000
C000
C000
C000
FF80
FF80
C000
C000
C000
C000
C000
FFC0
FFC0
ENDCHAR
STARTCHAR 04D7
ENCODING 1239
SWIDTH 585 0
DWIDTH 13 0
BBX 11 17 1 0
BITMAP
3180
3980
1F80
0600
0000
0F00
3F80
7BC0
70E0
E0E0
FFE0
FFE0
E000
7000
78C0
3FE0
1F80
ENDCHAR
STARTCHAR 04D8
ENCODING 1240
SWIDTH 585 0
DWIDTH 13 0
BBX 11 16 1 0
BITMAP
3E00
7F80
7FC0
01E0
00E0
00E0
00E0
FFE0
FFE0
FFE0
E0E0
E0E0
E0E0
71C0
7F80
1F00
ENDCHAR
STARTCHAR 04D9
ENCODING 1241
SWIDTH 585 0
DWIDTH 13 0
BBX 10 12 2 0
BITMAP
3E00
FF00
E780
01C0
01C0
FFC0
FFC0
C1C0
E1C0
E380
7F80
3F00
ENDCHAR
STARTCHAR 04DA
ENCODING 1242
SWIDTH 585 0
DWIDTH 13 0
BBX 11 19 1 0
BITMAP
3180
39C0
1080
3E00
7F80
7FC0
01E0
00E0
00E0
00E0
FFE0
FFE0
FFE0
E0E0
E0E0
E0E0
71C0
7F80
1F00
ENDCHAR
STARTCHAR 04DB
ENCODING 1243
SWIDTH 585 0
DWIDTH 13 0
BBX 10 16 2 0
BITMAP
6300
7380
2100
0000
3E00
FF00
E780
01C0
01C0
FFC0
FFC0
C1C0
E1C0
E380
7F80
3F00
ENDCHAR
STARTCHAR 04DC
ENCODING 1244
SWIDTH 585 0
DWIDTH 13 0
BBX 13 20 0 0
BITMAP
18C0
1CE0
0840
0000
E738
7730
7770
7770
3760
3760
3FE0
1FC0
3FE0
3FE0
3760
7770
7770
7770
E738
E738
ENDCHAR
STARTCHAR 04DD
ENCODING 1245
SWIDTH 585 0
DWIDTH 13 0
BBX 13 16 0 0
BITMAP
18C0
1CE0
0840
0000
E738
7770
7770
3760
3FE0
1FC0
1FC0
3FE0
3760
7770
7770
E738
ENDCHAR
STARTCHAR 04DE
ENCODING 1246
SWIDTH 585 0
DWIDTH 13 0
BBX 12 20 1 0
BITMAP
3180
39C0
1080
0000
1F00
3FC0
79E0
E0E0
E0E0
00E0
00E0
0FC0
0FC0
00E0
0060
0070
E060
F0E0
7FC0
3F80
ENDCHAR
STARTCHAR 04DF
ENCODING 1247
SWIDTH 585 0
DWIDTH 13 0
BBX 11 16 1 0
BITMAP
3180
39C0
1080
0000
1F00
7FC0
71E0
E0E0
00E0
1FC0
1FC0
00E0
00E0
F0E0
7FC0
3F80
ENDCHAR
STARTCHAR 04E0
ENCODING 1248
SWIDTH 585 0
DWIDTH 13 0
BBX 11 16 1 0
BITMAP
7FE0
7FE0
7FE0
01C0
0380
0700
0E00
0F80
0FC0
00E0
00E0
00E0
E0E0
71E0
7FC0
1F80
ENDCHAR
STARTCHAR 04E1
ENCODING 1249
SWIDTH 585 0
DWIDTH 13 0
BBX 11 16 1 -4
BITMAP
7FE0
7FE0
7FE0
01C0
0380
0700
0E00
0F80
0FC0
00E0
00E0
00E0
E0E0
71E0
7FC0
3F80
ENDCHAR
STARTCHAR 04E2
ENCODING 1250
SWIDTH 585 0
DWIDTH 13 0
BBX 11 19 1 0
BITMAP
3FC0
3FC0
0000
E0E0
E1E0
E1E0
E3E0
E3E0
E7E0
E6E0
E6E0
EEE0
ECE0
FCE0
F8E0
F8E0
F0E0
F0E0
E0E0
ENDCHAR
STARTCHAR 04E3
ENCODING 1251
SWIDTH 585 0
DWIDTH 13 0
BBX 11 16 1 0
BITMAP
3FC0
3FC0
0000
0000
E0E0
E1E0
E1E0
E3E0
E7E0
E6E0
EEE0
FCE0
F8E0
F8E0
F0E0
E0E0
ENDCHAR
STARTCHAR 04E4
ENCODING 1252
SWIDTH 585 0
DWIDTH 13 0
BBX 11 20 1 0
BITMAP
3180
39C0
1080
0000
E0E0
E1E0
E1E0
E3E0
E3E0
E7E0
E6E0
E6E0
EEE0
ECE0
FCE0
F8E0
F8E0
F0E0
F0E0
E0E0
ENDCHAR
STARTCHAR 04E5
ENCODING 1253
SWIDTH 585 0
DWIDTH 13 0
BBX 11 16 1 0
BITMAP
3180
39C0
1080
0000
E0E0
E1E0
E1E0
E3E0
E7E0
E6E0
EEE0
FCE0
F8E0
F8E0
F0E0
E0E0
ENDCHAR
STARTCHAR 04E6
ENCODING 1254
SWIDTH 585 0
DWIDTH 13 0
BBX 11 20 1 0
BITMAP
3180
39C0
1080
0000
0F00
3F80
7FC0
70E0
E0E0
E0E0
E0E0
E0E0
E0E0
E0E0
E0E0
E0E0
E0E0
71C0
3FC0
1F00
ENDCHAR
STARTCHAR 04E7
ENCODING 1255
SWIDTH 585 0
DWIDTH 13 0
BBX 11 16 1 0
BITMAP
3180
39C0
1080
0000
0F00
3F80
7BC0
70E0
E0E0
E0E0
E0E0
E0E0
E0E0
71C0
3FC0
1F00
ENDCHAR
STARTCHAR 04E8
ENCODING 1256
SWIDTH 585 0
DWIDTH 13 0
BBX 11 16 1 0
BITMAP
0F00
3F80
7FC0
70E0
E0E0
E0E0
E0E0
FFE0
FFE0
E0E0
E0E0
E0E0
E0E0
71C0
3F80
1F00
ENDCHAR
STARTCHAR 04E9
ENCODING 1257
SWIDTH 585 0
DWIDTH 13 0
BBX 11 12 1 0
BITMAP
1F00
3F80
7BC0
E1C0
E0E0
FFE0
FFE0
E0E0
E0E0
71C0
7FC0
1F00
ENDCHAR
STARTCHAR 04EA
ENCODING 1258
SWIDTH 585 0
DWIDTH 13 0
BBX 11 20 1 0
BITMAP
3180
39C0
1080
0000
0F00
3F80
7FC0
70E0
E0E0
E0E0
E0E0
FFE0
FFE0
E0E0
E0E0
E0E0
E0E0
71C0
3F80
1F00
ENDCHAR
STARTCHAR 04EB
ENCODING 1259
SWIDTH 585 0
DWIDTH 13 0
BBX 11 16 1 0
BITMAP
3180
39C0
1080
0000
1F00
3F80
7BC0
E1C0
E0E0
FFE0
FFE0
E0E0
E0E0
71C0
7FC0
1F00
ENDCHAR
STARTCHAR 04EC
ENCODING 1260
SWIDTH 585 0
DWIDTH 13 0
BBX 11 20 1 0
BITMAP
6300
7380
2100
0000
1E00
7F80
F3C0
E1C0
C0C0
C0E0
00E0
0FE0
0FE0
00E0
00E0
C0E0
E1C0
E1C0
7F80
3F00
ENDCHAR
STARTCHAR 04ED
ENCODING 1261
SWIDTH 585 0
DWIDTH 13 0
BBX 11 16 1 0
BITMAP
3180
39C0
1080
0000
1E00
3F80
7BC0
E1C0
00E0
0FE0
0FE0
00E0
E0E0
71C0
7F80
3F00
ENDCHAR
STARTCHAR 04EE
ENCODING 1262
SWIDTH 585 0
DWIDTH 13 0
BBX 13 19 0 0
BITMAP
1FE0
1FE0
0000
E038
7038
7070
3870
38E0
18E0
1CE0
0DC0
0FC0
0F80
0780
0700
0700
0E00
7E00
7C00
ENDCHAR
STARTCHAR 04EF
ENCODING 1263
SWIDTH 585 0
DWIDTH 13 0
BBX 12 21 1 -5
BITMAP
3FC0
3FC0
0000
0000
E070
E070
60E0
70E0
71C0
39C0
3980
1B80
1F00
0F00
0F00
0600
0E00
1C00
7C00
7800
6000
ENDCHAR
STARTCHAR 04F0
ENCODING 1264
SWIDTH 585 0
DWIDTH 13 0
BBX 13 20 0 0
BITMAP
18C0
1CE0
0840
0000
E038
7038
7070
3870
38E0
18E0
1CE0
0DC0
0FC0
0F80
0780
0700
0700
0E00
7E00
7C00
ENDCHAR
STARTCHAR 04F1
ENCODING 1265
SWIDTH 585 0
DWIDTH 13 0
BBX 12 21 1 -5
BITMAP
3180
39C0
1080
0000
E070
E070
60E0
70E0
71C0
39C0
3980
1B80
1F00
0F00
0F00
0600
0E00
1C00
7C00
7800
6000
ENDCHAR
STARTCHAR 04F2
ENCODING 1266
SWIDTH 585 0
DWIDTH 13 0
BBX 13 20 0 0
BITMAP
03B8
0660
0CC0
0000
E038
7038
7070
3870
38E0
18E0
1CE0
0DC0
0FC0
0F80
0780
0700
0700
0E00
7E00
7C00
ENDCHAR
STARTCHAR 04F3
ENCODING 1267
SWIDTH 585 0
DWIDTH 13 0
BBX 12 21 1 -5
BITMAP
0770
0CC0
1980
0000
E070
E070
60E0
70E0
71C0
39C0
3980
1B80
1F00
0F00
0F00
0600
0E00
1C00
7C00
7800
6000
ENDCHAR
STARTCHAR 04F4
ENCODING 1268
SWIDTH 585 0
DWIDTH 13 0
BBX 10 20 2 0
BITMAP
C600
E700
4200
0000
E1C0
E1C0
E1C0
E1C0
E1C0
E1C0
E1C0
E1C0
7FC0
3FC0
01C0
01C0
01C0
01C0
01C0
01C0
ENDCHAR
STARTCHAR 04F5
ENCODING 1269
SWIDTH 585 0
DWIDTH 13 0
BBX 11 16 1 0
BITMAP
3180
39C0
1080
0000
E0E0
E0E0
E0E0
E0E0
E0E0
70E0
7FE0
3FE0
00E0
00E0
00E0
00E0
ENDCHAR
STARTCHAR 04F6
ENCODING 1270
SWIDTH 585 0
DWIDTH 13 0
BBX 10 20 2 -4
BITMAP
FFC0
FFC0
FFC0
C000
C000
C000
C000
C000
C000
C000
C000
C000
C000
C000
F000
F000
7000
7000
7000
7000
ENDCHAR
STARTCHAR 04F7
ENCODING 1271
SWIDTH 585 0
DWIDTH 13 0
BBX 10 16 2 -4
BITMAP
FFC0
FFC0
FFC0
C000
C000
C000
C000
C000
C000
C000
F000
F000
7000
7000
7000
7000
ENDCHAR
STARTCHAR 04F8
ENCODING 1272
SWIDTH 585 0
DWIDTH 13 0
BBX 11 20 1 0
BITMAP
6300
7380
2100
0000
E0E0
E0E0
E0E0
E0E0
E0E0
E0E0
E0E0
FCE0
FEE0
EEE0
E7E0
E7E0
E6E0
EEE0
FEE0
F8E0
ENDCHAR
STARTCHAR 04F9
ENCODING 1273
SWIDTH 585 0
DWIDTH 13 0
BBX 11 16 1 0
BITMAP
3180
39C0
1080
0000
E0E0
E0E0
E0E0
E0E0
E0E0
FCE0
FEE0
E6E0
E6E0
EEE0
FEE0
FCE0
ENDCHAR
STARTCHAR 04FA
ENCODING 1274
SWIDTH 585 0
DWIDTH 13 0
BBX 13 21 0 -5
BITMAP
1FF8
1FF8
1FF8
1800
1800
1800
1800
FF00
FF00
1800
1800
1800
1800
1800
1F00
1F00
0700
0700
1F00
1E00
1800
ENDCHAR
STARTCHAR 04FB
ENCODING 1275
SWIDTH 585 0
DWIDTH 13 0
BBX 12 17 1 -5
BITMAP
3FF0
3FF0
3FF0
3000
3000
FF00
FF00
3000
3000
3000
3C00
3C00
1C00
1C00
7C00
7800
6000
ENDCHAR
STARTCHAR 04FC
ENCODING 1276
SWIDTH 585 0
DWIDTH 13 0
BBX 15 21 0 -5
BITMAP
7038
7070
3870
38E0
1CE0
0DC0
0F80
0780
0780
0F80
0FC0
1DC0
3CE0
38F0
787E
F07E
000E
000E
003E
003C
0030
ENDCHAR
STARTCHAR 04FD
ENCODING 1277
SWIDTH 585 0
DWIDTH 13 0
BBX 13 17 1 -5
BITMAP
E0F0
70E0
39C0
3B80
1F80
0F00
0F00
1F00
3F80
39C0
70F8
E0F8
0038
0038
00F8
00F0
00C0
ENDCHAR
STARTCHAR 04FE
ENCODING 1278
SWIDTH 585 0
DWIDTH 13 0
BBX 13 16 0 0
BITMAP
7038
7070
3870
38E0
1CE0
0DC0
0F80
1FC0
1FC0
0F80
0FC0
1DC0
3CE0
38F0
7870
F078
ENDCHAR
STARTCHAR 04FF
ENCODING 1279
SWIDTH 585 0
DWIDTH 13 0
BBX 12 12 1 0
BITMAP
E0F0
70E0
39C0
3B80
1F80
3F80
3F80
1F00
3F80
39C0
70E0
E0F0
ENDCHAR
STARTCHAR 0500
ENCODING 1280
SWIDTH 585 0
DWIDTH 13 0
BBX 11 16 1 0
BITMAP
00E0
00E0
00E0
00E0
00E0
00E0
1FE0
7FE0
F0E0
E0E0
E0E0
E0E0
E0E0
70E0
7FE0
1FE0
ENDCHAR
STARTCHAR 0501
ENCODING 1281
SWIDTH 585 0
DWIDTH 13 0
BBX 11 17 1 0
BITMAP
00E0
00E0
00E0
00E0
00E0
1EE0
3FE0
7BE0
70E0
E0E0
E0E0
E0E0
E0E0
60E0
71E0
7FE0
3EE0
ENDCHAR
STARTCHAR 0502
ENCODING 1282
SWIDTH 585 0
DWIDTH 13 0
BBX 12 16 1 0
BITMAP
0700
0700
0700
0700
0700
0700
3F70
7F70
F770
E730
E730
E770
E770
F770
7FE0
3FC0
ENDCHAR
STARTCHAR 0503
ENCODING 1283
SWIDTH 585 0
DWIDTH 13 0
BBX 12 17 1 0
BITMAP
0700
0700
0700
0700
0700
3700
7F00
FFE0
E760
E770
E770
E770
E770
E760
E760
7FE0
7BC0
ENDCHAR
STARTCHAR 0504
ENCODING 1284
SWIDTH 585 0
DWIDTH 13 0
BBX 12 16 1 0
BITMAP
E000
FC00
FC00
0E00
0E00
0E00
0CE0
7C60
7870
3C70
0E70
0E70
0E60
0EE0
0FE0
07C0
ENDCHAR
STARTCHAR 0505
ENCODING 1285
SWIDTH 585 0
DWIDTH 13 0
BBX 12 12 1 0
BITMAP
F000
FC00
FE00
0E00
0EE0
1C60
7C70
7E70
0E70
0E60
07E0
07C0
ENDCHAR
STARTCHAR 0506
ENCODING 1286
SWIDTH 585 0
DWIDTH 13 0
BBX 11 20 2 -4
BITMAP
F800
FE00
FF00
0700
0380
0380
0700
7F00
7C00
7F00
0700
0380
0380
03E0
03E0
03E0
00E0
00E0
00C0
0180
ENDCHAR
STARTCHAR 0507
ENCODING 1287
SWIDTH 585 0
DWIDTH 13 0
BBX 10 16 2 -4
BITMAP
F800
FE00
FF00
0700
0700
0700
7E00
7F00
0700
0300
03C0
03C0
00C0
00C0
01C0
0180
ENDCHAR
STARTCHAR 0508
ENCODING 1288
SWIDTH 585 0
DWIDTH 13 0
BBX 13 16 0 0
BITMAP
3F80
3F80
3F80
3B80
3B80
3B80
3BB0
3BB8
3BB8
3BB8
3BB8
3BB8
33B8
73B0
E3F0
E1E0
ENDCHAR
STARTCHAR 0509
ENCODING 1289
SWIDTH 585 0
DWIDTH 13 0
BBX 13 12 0 0
BITMAP
3F80
3F80
3FC0
3BB0
3BB8
3BB8
3BB8
33B8
33B8
73B0
F3F0
E1E0
ENDCHAR
STARTCHAR 050A
ENCODING 1290
SWIDTH 585 0
DWIDTH 13 0
BBX 12 16 1 0
BITMAP
E700
E700
E700
E700
E700
E700
E7E0
FF60
FF70
E770
E770
E770
E770
E760
E7E0
E3C0
ENDCHAR
STARTCHAR 050B
ENCODING 1291
SWIDTH 585 0
DWIDTH 13 0
BBX 11 12 1 0
BITMAP
EE00
EE00
EE00
EEE0
EE60
FE60
FE60
EE60
EE60
E6E0
E7E0
E3C0
ENDCHAR
STARTCHAR 050C
ENCODING 1292
SWIDTH 585 0
DWIDTH 13 0
BBX 12 16 1 0
BITMAP
0F80
3FC0
7980
7000
E000
E000
E000
E080
E060
E060
E070
E070
7070
78E0
3FC0
1F80
ENDCHAR
STARTCHAR 050D
ENCODING 1293
SWIDTH 585 0
DWIDTH 13 0
BBX 10 12 2 0
BITMAP
1F00
7F80
7B00
E000
E000
C000
C1C0
C0C0
E0C0
F1C0
7FC0
3F80
ENDCHAR
STARTCHAR 050E
ENCODING 1294
SWIDTH 585 0
DWIDTH 13 0
BBX 12 16 1 0
BITMAP
FFC0
FFC0
FFC0
1C00
1C00
1C00
1CE0
1C60
1C70
1C70
1C70
1C70
1C60
1CE0
0FE0
07C0
ENDCHAR
STARTCHAR 050F
ENCODING 1295
SWIDTH 585 0
DWIDTH 13 0
BBX 11 12 1 0
BITMAP
FF80
FF80
FF80
1C00
1CE0
1CE0
1C60
1C60
1CE0
1CE0
1FC0
0F80
ENDCHAR
STARTCHAR 0510
ENCODING 1296
SWIDTH 585 0
DWIDTH 13 0
BBX 11 16 1 0
BITMAP
1F00
7FC0
7BC0
E0E0
E0E0
E000
7000
3F00
7F00
F000
E000
E000
E0E0
F1E0
7FC0
3F80
ENDCHAR
STARTCHAR 0511
ENCODING 1297
SWIDTH 585 0
DWIDTH 13 0
BBX 12 12 1 0
BITMAP
1F00
7FC0
79E0
6060
7000
3F00
3F00
7000
E010
70E0
7FE0
3FC0
ENDCHAR
STARTCHAR 0512
ENCODING 1298
SWIDTH 585 0
DWIDTH 13 0
BBX 15 21 0 -5
BITMAP
1FF0
1FF0
1FF0
1870
1870
1870
1870
1870
1870
1870
1870
3870
3870
3870
F07E
E07E
000E
000E
003E
003C
0030
ENDCHAR
STARTCHAR 0513
ENCODING 1299
SWIDTH 585 0
DWIDTH 13 0
BBX 15 17 0 -5
BITMAP
1FF0
1FF0
1FF0
1870
1870
1870
1870
1870
3870
3870
F07E
E07E
000E
000E
003E
003C
0030
ENDCHAR
STARTCHAR 1E00
ENCODING 7680
SWIDTH 585 0
DWIDTH 13 0
BBX 13 20 0 -4
BITMAP
0700
0700
0780
0780
0F80
0DC0
0DC0
1CC0
1CE0
18E0
3FE0
3FF0
3FF0
7070
7038
F038
0000
0700
0500
0700
ENDCHAR
STARTCHAR 1E01
ENCODING 7681
SWIDTH 585 0
DWIDTH 13 0
BBX 11 16 1 -4
BITMAP
1F00
3F80
73C0
61C0
00C0
3FC0
7FC0
60C0
E0C0
E1C0
7FC0
3EE0
0000
1C00
1400
1C00
ENDCHAR
STARTCHAR 1E3E
ENCODING 7742
SWIDTH 585 0
DWIDTH 13 0
BBX 11 20 1 0
BITMAP
0380
0700
0E00
0000
F1E0
F1E0
F1E0
F9E0
FB60
FBE0
EFE0
EEE0
EEE0
EEE0
E4E0
E0E0
E0E0
E0E0
E0E0
E0E0
ENDCHAR
STARTCHAR 1E3F
ENCODING 7743
SWIDTH 585 0
DWIDTH 13 0
BBX 11 16 1 0
BITMAP
01C0
0380
0700
0000
DDC0
FFE0
EEE0
CE60
CE60
CE60
CE60
CE60
CE60
CE60
CE60
CE60
ENDCHAR
STARTCHAR 1E80
ENCODING 7808
SWIDTH 585 0
DWIDTH 13 0
BBX 13 20 0 0
BITMAP
3C00
0C00
0600
0000
E338
6738
6738
6730
6730
7730
77B0
75F0
7DF0
3DF0
3DF0
3DE0
3CE0
38E0
38E0
38E0
ENDCHAR
STARTCHAR 1E81
ENCODING 7809
SWIDTH 585 0
DWIDTH 13 0
BBX 13 16 0 0
BITMAP
3C00
0C00
0600
0000
E238
6738
6730
6730
6530
7570
7DF0
3DE0
3DE0
38E0
38E0
38E0
ENDCHAR
STARTCHAR 1E82
ENCODING 7810
SWIDTH 585 0
DWIDTH 13 0
BBX 13 20 0 0
BITMAP
01C0
0380
0700
0000
E338
6738
6738
6730
6730
7730
77B0
75F0
7DF0
3DF0
3DF0
3DE0
3CE0
38E0
38E0
38E0
ENDCHAR
STARTCHAR 1E83
ENCODING 7811
SWIDTH 585 0
DWIDTH 13 0
BBX 13 16 0 0
BITMAP
01C0
0380
0700
0000
E238
6738
6730
6730
6530
7570
7DF0
3DE0
3DE0
38E0
38E0
38E0
ENDCHAR
STARTCHAR 1E84
ENCODING 7812
SWIDTH 585 0
DWIDTH 13 0
BBX 13 20 0 0
BITMAP
18C0
1CE0
0840
0000
E338
6738
6738
6730
6730
7730
77B0
75F0
7DF0
3DF0
3DF0
3DE0
3CE0
38E0
38E0
38E0
ENDCHAR
STARTCHAR 1E85
ENCODING 7813
SWIDTH 585 0
DWIDTH 13 0
BBX 13 16 0 0
BITMAP
18C0
1CE0
0840
0000
E238
6738
6730
6730
6530
7570
7DF0
3DE0
3DE0
38E0
38E0
38E0
ENDCHAR
STARTCHAR 1EA0
ENCODING 7840
SWIDTH 585 0
DWIDTH 13 0
BBX 13 20 0 -4
BITMAP
0700
0700
0780
0780
0F80
0DC0
0DC0
1CC0
1CE0
18E0
3FE0
3FF0
3FF0
7070
7038
F038
0000
0700
0700
0700
ENDCHAR
STARTCHAR 1EA1
ENCODING 7841
SWIDTH 585 0
DWIDTH 13 0
BBX 11 16 1 -4
BITMAP
1F00
3F80
73C0
61C0
00C0
3FC0
7FC0
60C0
E0C0
E1C0
7FC0
3EE0
0000
1C00
1C00
1C00
ENDCHAR
STARTCHAR 1EA2
ENCODING 7842
SWIDTH 585 0
DWIDTH 13 0
BBX 13 21 0 0
BITMAP
0700
0380
0180
0700
0000
0700
0700
0780
0780
0F80
0DC0
0DC0
1CC0
1CE0
18E0
3FE0
3FF0
3FF0
7070
7038
F038
ENDCHAR
STARTCHAR 1EA3
ENCODING 7843
SWIDTH 585 0
DWIDTH 13 0
BBX 11 18 1 0
BITMAP
0E00
0700
0300
0E00
0000
0000
1F00
3F80
73C0
61C0
00C0
3FC0
7FC0
60C0
E0C0
E1C0
7FC0
3EE0
ENDCHAR
STARTCHAR 1EA4
ENCODING 7844
SWIDTH 585 0
DWIDTH 13 0
BBX 14 22 0 0
BITMAP
001C
0018
0730
0DC0
1860
0000
0700
0700
0780
0780
0F80
0DC0
0DC0
1CC0
1CE0
18E0
3FE0
3FF0
3FF0
7070
7038
F038
ENDCHAR
STARTCHAR 1EA5
ENCODING 7845
SWIDTH 585 0
DWIDTH 13 0
BBX 13 18 1 0
BITMAP
0038
0030
0E60
1B80
30C0
0000
1F00
3F80
73C0
61C0
00C0
3FC0
7FC0
60C0
E0C0
E1C0
7FC0
3EE0
ENDCHAR
STARTCHAR 1EA6
ENCODING 7846
SWIDTH 585 0
DWIDTH 13 0
BBX 13 21 0 0
BITMAP
E000
6000
3780
0EC0
1020
0700
0700
0780
0780
0F80
0DC0
0DC0
1CC0
1CE0
18E0
3FE0
3FF0
3FF0
7070
7038
F038
ENDCHAR
STARTCHAR 1EA7
ENCODING 7847
SWIDTH 585 0
DWIDTH 13 0
BBX 13 18 -1 0
BITMAP
E000
6000
3780
0EC0
1020
0000
07C0
0FE0
1CF0
1870
0030
0FF0
1FF0
1830
3830
3870
1FF0
0FB8
ENDCHAR
STARTCHAR 1EA8
ENCODING 7848
SWIDTH 585 0
DWIDTH 13 0
BBX 13 21 0 0
BITMAP
0038
0008
0710
0CC0
1860
0700
0700
0780
0780
0F80
0DC0
0DC0
1CC0
1CE0
18E0
3FE0
3FF0
3FF0
7070
7038
F038
ENDCHAR
STARTCHAR 1EA9
ENCODING 7849
SWIDTH 585 0
DWIDTH 13 0
BBX 12 18 1 0
BITMAP
0070
0010
0E20
1980
30C0
0000
1F00
3F80
73C0
61C0
00C0
3FC0
7FC0
60C0
E0C0
E1C0
7FC0
3EE0
ENDCHAR
STARTCHAR 1EAA
ENCODING 7850
SWIDTH 585 0
DWIDTH 13 0
BBX 13 22 0 0
BITMAP
0640
0F80
0000
0780
0CC0
1860
0700
0700
0780
0780
0F80
0DC0
0DC0
1CC0
1CE0
18E0
3FE0
3FF0
3FF0
7070
7038
F038
ENDCHAR
STARTCHAR 1EAB
ENCODING 7851
SWIDTH 585 0
DWIDTH 13 0
BBX 11 19 1 0
BITMAP
1900
3E00
0000
1E00
3300
6180
0000
1F00
3F80
73C0
61C0
00C0
3FC0
7FC0
60C0
E0C0
E1C0
7FC0
3EE0
ENDCHAR
STARTCHAR 1EAC
ENCODING 7852
SWIDTH 585 0
DWIDTH 13 0
BBX 13 24 0 -4
BITMAP
0700
1D80
18C0
0000
0700
0700
0780
0780
0F80
0DC0
0DC0
1CC0
1CE0
18E0
3FE0
3FF0
3FF0
7070
7038
F038
0000
0700
0700
0700
ENDCHAR
STARTCHAR 1EAD
ENCODING 7853
SWIDTH 585 0
DWIDTH 13 0
BBX 11 20 1 -4
BITMAP
0E00
3B00
3180
0000
1F00
3F80
73C0
61C0
00C0
3FC0
7FC0
60C0
E0C0
E1C0
7FC0
3EE0
0000
1C00
1C00
1C00
ENDCHAR
STARTCHAR 1EAE
ENCODING 7854
SWIDTH 585 0
DWIDTH 13 0
BBX 13 22 0 0
BITMAP
0180
0300
18C0
0CC0
0780
0000
0700
0700
0780
0780
0F80
0DC0
0DC0
1CC0
1CE0
18E0
3FE0
3FF0
3FF0
7070
7038
F038
ENDCHAR
STARTCHAR 1EAF
ENCODING 7855
SWIDTH 585 0
DWIDTH 13 0
BBX 11 18 1 0
BITMAP
0300
0600
3180
1980
0F00
0000
1F00
3F80
73C0
61C0
00C0
3FC0
7FC0
60C0
E0C0
E1C0
7FC0
3EE0
ENDCHAR
STARTCHAR 1EB0
ENCODING 7856
SWIDTH 585 0
DWIDTH 13 0
BBX 13 22 0 0
BITMAP
0C00
0600
19C0
0CC0
0780
0000
0700
0700
0780
0780
0F80
0DC0
0DC0
1CC0
1CE0
18E0
3FE0
3FF0
3FF0
7070
7038
F038
ENDCHAR
STARTCHAR 1EB1
ENCODING 7857
SWIDTH 585 0
DWIDTH 13 0
BBX 11 19 1 0
BITMAP
1800
0C00
3380
1980
0F00
0000
0000
1F00
3F80
73C0
61C0
00C0
3FC0
7FC0
60C0
E0C0
E1C0
7FC0
3EE0
ENDCHAR
STARTCHAR 1EB2
ENCODING 7858
SWIDTH 585 0
DWIDTH 13 0
BBX 13 22 0 0
BITMAP
0380
0080
0300
1860
0FC0
0780
0700
0700
0780
0780
0F80
0DC0
0DC0
1CC0
1CE0
18E0
3FE0
3FF0
3FF0
7070
7038
F038
ENDCHAR
STARTCHAR 1EB3
ENCODING 7859
SWIDTH 585 0
DWIDTH 13 0
BBX 11 19 1 0
BITMAP
0E00
0200
0C00
6180
3F00
1E00
0000
1F00
3F80
73C0
61C0
00C0
3FC0
7FC0
60C0
E0C0
E1C0
7FC0
3EE0
ENDCHAR
STARTCHAR 1EB4
ENCODING 7860
SWIDTH 585 0
DWIDTH 13 0
BBX 13 22 0 0
BITMAP
0C80
1F80
0800
18C0
1DC0
0F00
0700
0700
0780
0780
0F80
0DC0
0DC0
1CC0
1CE0
18E0
3FE0
3FF0
3FF0
7070
7038
F038
ENDCHAR
STARTCHAR 1EB5
ENCODING 7861
SWIDTH 585 0
DWIDTH 13 0
BBX 11 19 1 0
BITMAP
1900
3F00
1000
3180
3B80
1E00
0000
1F00
3F80
73C0
61C0
00C0
3FC0
7FC0
60C0
E0C0
E1C0
7FC0
3EE0
ENDCHAR
STARTCHAR 1EB6
ENCODING 7862
SWIDTH 585 0
DWIDTH 13 0
BBX 13 24 0 -4
BITMAP
18C0
1CC0
0FC0
0300
0700
0700
0780
0780
0F80
0DC0
0DC0
1CC0
1CE0
18E0
3FE0
3FF0
3FF0
7070
7038
F038
0000
0700
0700
0700
ENDCHAR
STARTCHAR 1EB7
ENCODING 7863
SWIDTH 585 0
DWIDTH 13 0
BBX 11 21 1 -4
BITMAP
3180
3980
1F80
0600
0000
1F00
3F80
73C0
61C0
00C0
3FC0
7FC0
60C0
E0C0
E1C0
7FC0
3EE0
0000
1C00
1C00
1C00
ENDCHAR
STARTCHAR 1EB8
ENCODING 7864
SWIDTH 585 0
DWIDTH 13 0
BBX 10 20 2 -4
BITMAP
FFC0
FFC0
FFC0
C000
C000
C000
C000
FF80
FF80
C000
C000
C000
C000
C000
FFC0
FFC0
0000
1C00
1C00
1C00
ENDCHAR
STARTCHAR 1EB9
ENCODING 7865
SWIDTH 585 0
DWIDTH 13 0
BBX 11 16 1 -4
BITMAP
0F00
3F80
7BC0
70E0
E0E0
FFE0
FFE0
E000
7000
78C0
3FE0
1F80
0000
0E00
0E00
0E00
ENDCHAR
STARTCHAR 1EBA
ENCODING 7866
SWIDTH 585 0
DWIDTH 13 0
BBX 10 21 2 0
BITMAP
1C00
0E00
0600
1C00
0000
FFC0
FFC0
FFC0
C000
C000
C000
C000
FF80
FF80
C000
C000
C000
C000
C000
FFC0
FFC0
ENDCHAR
STARTCHAR 1EBB
ENCODING 7867
SWIDTH 585 0
DWIDTH 13 0
BBX 11 18 1 0
BITMAP
0E00
0700
0300
0E00
0000
0000
0F00
3F80
7BC0
70E0
E0E0
FFE0
FFE0
E000
7000
78C0
3FE0
1F80
ENDCHAR
STARTCHAR 1EBC
ENCODING 7868
SWIDTH 585 0
DWIDTH 13 0
BBX 10 21 2 0
BITMAP
0100
3D80
7F80
2000
0000
FFC0
FFC0
FFC0
C000
C000
C000
C000
FF80
FF80
C000
C000
C000
C000
C000
FFC0
FFC0
ENDCHAR
STARTCHAR 1EBD
ENCODING 7869
SWIDTH 585 0
DWIDTH 13 0
BBX 11 17 1 0
BITMAP
0100
3D80
7F80
2000
0000
0F00
3F80
7BC0
70E0
E0E0
FFE0
FFE0
E000
7000
78C0
3FE0
1F80
ENDCHAR
STARTCHAR 1EBE
ENCODING 7870
SWIDTH 585 0
DWIDTH 13 0
BBX 12 22 2 0
BITMAP
0070
0060
1CC0
3700
6180
0000
FFC0
FFC0
FFC0
C000
C000
C000
C000
FF80
FF80
C000
C000
C000
C000
C000
FFC0
FFC0
ENDCHAR
STARTCHAR 1EBF
ENCODING 7871
SWIDTH 585 0
DWIDTH 13 0
BBX 13 18 1 0
BITMAP
0038
0030
0E60
1B80
30C0
0000
0F00
3F80
7BC0
70E0
E0E0
FFE0
FFE0
E000
7000
78C0
3FE0
1F80
ENDCHAR
STARTCHAR 1EC0
ENCODING 7872
SWIDTH 585 0
DWIDTH 13 0
BBX 12 21 0 0
BITMAP
E000
6000
3780
0EC0
1020
3FF0
3FF0
3FF0
3000
3000
3000
3000
3FE0
3FE0
3000
3000
3000
3000
3000
3FF0
3FF0
ENDCHAR
STARTCHAR 1EC1
ENCODING 7873
SWIDTH 585 0
DWIDTH 13 0
BBX 13 18 -1 0
BITMAP
E000
6000
3780
0EC0
1020
0000
03C0
0FE0
1EF0
1C38
3838
3FF8
3FF8
3800
1C00
1E30
0FF8
07E0
ENDCHAR
STARTCHAR 1EC2
ENCODING 7874
SWIDTH 585 0
DWIDTH 13 0
BBX 11 21 2 0
BITMAP
00E0
0020
1C40
3300
6180
FFC0
FFC0
FFC0
C000
C000
C000
C000
FF80
FF80
C000
C000
C000
C000
C000
FFC0
FFC0
ENDCHAR
STARTCHAR 1EC3
ENCODING 7875
SWIDTH 585 0
DWIDTH 13 0
BBX 12 18 1 0
BITMAP
0070
0010
0E20
1980
30C0
0000
0F00
3F80
7BC0
70E0
E0E0
FFE0
FFE0
E000
7000
78C0
3FE0
1F80
ENDCHAR
STARTCHAR 1EC4
ENCODING 7876
SWIDTH 585 0
DWIDTH 13 0
BBX 10 22 2 0
BITMAP
1900
3E00
0000
1E00
3300
6180
FFC0
FFC0
FFC0
C000
C000
C000
C000
FF80
FF80
C000
C000
C000
C000
C000
FFC0
FFC0
ENDCHAR
STARTCHAR 1EC5
ENCODING 7877
SWIDTH 585 0
DWIDTH 13 0
BBX 11 19 1 0
BITMAP
1900
3E00
0000
1E00
3300
6180
0000
0F00
3F80
7BC0
70E0
E0E0
FFE0
FFE0
E000
7000
78C0
3FE0
1F80
ENDCHAR
STARTCHAR 1EC6
ENCODING 7878
SWIDTH 585 0
DWIDTH 13 0
BBX 10 24 2 -4
BITMAP
0E00
3B00
3180
0000
FFC0
FFC0
FFC0
C000
C000
C000
C000
FF80
FF80
C000
C000
C000
C000
C000
FFC0
FFC0
0000
1C00
1C00
1C00
ENDCHAR
STARTCHAR 1EC7
ENCODING 7879
SWIDTH 585 0
DWIDTH 13 0
BBX 11 20 1 -4
BITMAP
0E00
3B00
3180
0000
0F00
3F80
7BC0
70E0
E0E0
FFE0
FFE0
E000
7000
78C0
3FE0
1F80
0000
0E00
0E00
0E00
ENDCHAR
STARTCHAR 1EC8
ENCODING 7880
SWIDTH 585 0
DWIDTH 13 0
BBX 9 21 2 0
BITMAP
1C00
0E00
0600
1C00
0000
FF80
FF80
FF80
1C00
1C00
1C00
1C00
1C00
1C00
1C00
1C00
1C00
1C00
1C00
FF80
FF80
ENDCHAR
STARTCHAR 1EC9
ENCODING 7881
SWIDTH 585 0
DWIDTH 13 0
BBX 10 18 2 0
BITMAP
0E00
0700
0300
0E00
0000
0000
FE00
FE00
FE00
0E00
0E00
0E00
0E00
0E00
0E00
0E00
FFC0
FFC0
ENDCHAR
STARTCHAR 1ECA
ENCODING 7882
SWIDTH 585 0
DWIDTH 13 0
BBX 9 20 2 -4
BITMAP
FF80
FF80
FF80
1C00
1C00
1C00
1C00
1C00
1C00
1C00
1C00
1C00
1C00
1C00
FF80
FF80
0000
1C00
1C00
1C00
ENDCHAR
STARTCHAR 1ECB
ENCODING 7883
SWIDTH 585 0
DWIDTH 13 0
BBX 10 20 2 -4
BITMAP
0C00
1E00
0C00
0000
FE00
FE00
FE00
0E00
0E00
0E00
0E00
0E00
0E00
0E00
FFC0
FFC0
0000
0E00
0E00
0E00
ENDCHAR
STARTCHAR 1ECC
ENCODING 7884
SWIDTH 585 0
DWIDTH 13 0
BBX 11 20 1 -4
BITMAP
0F00
3F80
7FC0
70E0
E0E0
E0E0
E0E0
E0E0
E0E0
E0E0
E0E0
E0E0
E0E0
71C0
3FC0
1F00
0000
0E00
0E00
0E00
ENDCHAR
STARTCHAR 1ECD
ENCODING 7885
SWIDTH 585 0
DWIDTH 13 0
BBX 11 16 1 -4
BITMAP
0F00
3F80
7BC0
70E0
E0E0
E0E0
E0E0
E0E0
E0E0
71C0
3FC0
1F00
0000
0E00
0E00
0E00
ENDCHAR
STARTCHAR 1ECE
ENCODING 7886
SWIDTH 585 0
DWIDTH 13 0
BBX 11 22 1 0
BITMAP
0E00
0700
0300
0E00
0000
0000
0F00
3F80
7FC0
70E0
E0E0
E0E0
E0E0
E0E0
E0E0
E0E0
E0E0
E0E0
E0E0
71C0
3FC0
1F00
ENDCHAR
STARTCHAR 1ECF
ENCODING 7887
SWIDTH 585 0
DWIDTH 13 0
BBX 11 18 1 0
BITMAP
0E00
0700
0300
0E00
0000
0000
0F00
3F80
7BC0
70E0
E0E0
E0E0
E0E0
E0E0
E0E0
71C0
3FC0
1F00
ENDCHAR
STARTCHAR 1ED0
ENCODING 7888
SWIDTH 585 0
DWIDTH 13 0
BBX 13 22 1 0
BITMAP
0038
0030
0E60
1B80
30C0
0000
0F00
3F80
7FC0
70E0
E0E0
E0E0
E0E0
E0E0
E0E0
E0E0
E0E0
E0E0
E0E0
71C0
3FC0
1F00
ENDCHAR
STARTCHAR 1ED1
ENCODING 7889
SWIDTH 585 0
DWIDTH 13 0
BBX 13 18 1 0
BITMAP
0038
0030
0E60
1B80
30C0
0000
0F00
3F80
7BC0
70E0
E0E0
E0E0
E0E0
E0E0
E0E0
71C0
3FC0
1F00
ENDCHAR
STARTCHAR 1ED2
ENCODING 7890
SWIDTH 585 0
DWIDTH 13 0
BBX 12 22 0 0
BITMAP
E000
6000
3780
0EC0
1020
0000
0780
1FC0
3FE0
3870
7070
7070
7070
7070
7070
7070
7070
7070
7070
38E0
1FE0
0F80
ENDCHAR
STARTCHAR 1ED3
ENCODING 7891
SWIDTH 585 0
DWIDTH 13 0
BBX 12 18 0 0
BITMAP
E000
6000
3780
0EC0
1020
0000
0780
1FC0
3DE0
3870
7070
7070
7070
7070
7070
38E0
1FE0
0F80
ENDCHAR
STARTCHAR 1ED4
ENCODING 7892
SWIDTH 585 0
DWIDTH 13 0
BBX 12 22 1 0
BITMAP
0070
0010
0E20
1980
30C0
0000
0F00
3F80
7FC0
70E0
E0E0
E0E0
E0E0
E0E0
E0E0
E0E0
E0E0
E0E0
E0E0
71C0
3FC0
1F00
ENDCHAR
STARTCHAR 1ED5
ENCODING 7893
SWIDTH 585 0
DWIDTH 13 0
BBX 12 18 1 0
BITMAP
0070
0010
0E20
1980
30C0
0000
0F00
3F80
7BC0
70E0
E0E0
E0E0
E0E0
E0E0
E0E0
71C0
3FC0
1F00
ENDCHAR
STARTCHAR 1ED6
ENCODING 7894
SWIDTH 585 0
DWIDTH 13 0
BBX 11 23 1 0
BITMAP
0C80
1F00
0000
0F00
1980
30C0
0000
0F00
3F80
7FC0
70E0
E0E0
E0E0
E0E0
E0E0
E0E0
E0E0
E0E0
E0E0
E0E0
71C0
3FC0
1F00
ENDCHAR
STARTCHAR 1ED7
ENCODING 7895
SWIDTH 585 0
DWIDTH 13 0
BBX 11 19 1 0
BITMAP
0C80
1F00
0000
0F00
1980
30C0
0000
0F00
3F80
7BC0
70E0
E0E0
E0E0
E0E0
E0E0
E0E0
71C0
3FC0
1F00
ENDCHAR
STARTCHAR 1ED8
ENCODING 7896
SWIDTH 585 0
DWIDTH 13 0
BBX 11 24 1 -4
BITMAP
0E00
3B00
3180
0000
0F00
3F80
7FC0
70E0
E0E0
E0E0
E0E0
E0E0
E0E0
E0E0
E0E0
E0E0
E0E0
71C0
3FC0
1F00
0000
0E00
0E00
0E00
ENDCHAR
STARTCHAR 1ED9
ENCODING 7897
SWIDTH 585 0
DWIDTH 13 0
BBX 11 20 1 -4
BITMAP
0E00
3B00
3180
0000
0F00
3F80
7BC0
70E0
E0E0
E0E0
E0E0
E0E0
E0E0
71C0
3FC0
1F00
0000
0E00
0E00
0E00
ENDCHAR
STARTCHAR 1EDA
ENCODING 7898
SWIDTH 585 0
DWIDTH 13 0
BBX 12 20 1 0
BITMAP
0380
0700
0E00
0000
0F30
3FB0
7FF0
70E0
E0E0
E0E0
E060
E060
E060
E060
E0E0
E0E0
60E0
71C0
3FC0
1F00
ENDCHAR
STARTCHAR 1EDB
ENCODING 7899
SWIDTH 585 0
DWIDTH 13 0
BBX 12 16 1 0
BITMAP
0380
0700
0E00
0030
1F30
3FE0
7BC0
60E0
E0E0
E0E0
E0E0
E0E0
E0E0
71C0
7FC0
1F00
ENDCHAR
STARTCHAR 1EDC
ENCODING 7900
SWIDTH 585 0
DWIDTH 13 0
BBX 12 20 1 0
BITMAP
7800
1800
0C00
0000
0F30
3FB0
7FF0
70E0
E0E0
E0E0
E060
E060
E060
E060
E0E0
E0E0
60E0
71C0
3FC0
1F00
ENDCHAR
STARTCHAR 1EDD
ENCODING 7901
SWIDTH 585 0
DWIDTH 13 0
BBX 12 16 1 0
BITMAP
7800
1800
0C00
0030
1F30
3FE0
7BC0
60E0
E0E0
E0E0
E0E0
E0E0
E0E0
71C0
7FC0
1F00
ENDCHAR
STARTCHAR 1EDE
ENCODING 7902
SWIDTH 585 0
DWIDTH 13 0
BBX 12 22 1 0
BITMAP
0E00
0700
0300
0E00
0000
0000
0F30
3FB0
7FF0
70E0
E0E0
E0E0
E060
E060
E060
E060
E0E0
E0E0
60E0
71C0
3FC0
1F00
ENDCHAR
STARTCHAR 1EDF
ENCODING 7903
SWIDTH 585 0
DWIDTH 13 0
BBX 12 18 1 0
BITMAP
0E00
0700
0300
0E00
0000
0030
1F30
3FE0
7BC0
60E0
E0E0
E0E0
E0E0
E0E0
E0E0
71C0
7FC0
1F00
ENDCHAR
STARTCHAR 1EE0
ENCODING 7904
SWIDTH 585 0
DWIDTH 13 0
BBX 12 21 1 0
BITMAP
0100
3D80
7F80
2000
0000
0F30
3FB0
7FF0
70E0
E0E0
E0E0
E060
E060
E060
E060
E0E0
E0E0
60E0
71C0
3FC0
1F00
ENDCHAR
STARTCHAR 1EE1
ENCODING 7905
SWIDTH 585 0
DWIDTH 13 0
BBX 12 17 1 0
BITMAP
0100
3D80
7F80
2000
0030
1F30
3FE0
7BC0
60E0
E0E0
E0E0
E0E0
E0E0
E0E0
71C0
7FC0
1F00
ENDCHAR
STARTCHAR 1EE2
ENCODING 7906
SWIDTH 585 0
DWIDTH 13 0
BBX 12 20 1 -4
BITMAP
0F30
3FB0
7FF0
70E0
E0E0
E0E0
E060
E060
E060
E060
E0E0
E0E0
60E0
71C0
3FC0
1F00
0000
0E00
0E00
0E00
ENDCHAR
STARTCHAR 1EE3
ENCODING 7907
SWIDTH 585 0
DWIDTH 13 0
BBX 12 17 1 -4
BITMAP
0030
1F30
3FE0
7BC0
60E0
E0E0
E0E0
E0E0
E0E0
E0E0
71C0
7FC0
1F00
0000
0E00
0E00
0E00
ENDCHAR
STARTCHAR 1EE4
ENCODING 7908
SWIDTH 585 0
DWIDTH 13 0
BBX 11 20 1 -4
BITMAP
E0E0
E0E0
E0E0
E0E0
E0E0
E0E0
E0E0
E0E0
E0E0
E0E0
E0E0
E0E0
60E0
71C0
3FC0
1F00
0000
0E00
0E00
0E00
ENDCHAR
STARTCHAR 1EE5
ENCODING 7909
SWIDTH 585 0
DWIDTH 13 0
BBX 10 16 2 -4
BITMAP
C1C0
C1C0
C1C0
C1C0
C1C0
C1C0
C1C0
C1C0
E1C0
E3C0
FFC0
7DC0
0000
3800
3800
3800
ENDCHAR
STARTCHAR 1EE6
ENCODING 7910
SWIDTH 585 0
DWIDTH 13 0
BBX 11 21 1 0
BITMAP
0E00
0700
0300
0E00
0000
E0E0
E0E0
E0E0
E0E0
E0E0
E0E0
E0E0
E0E0
E0E0
E0E0
E0E0
E0E0
60E0
71C0
3FC0
1F00
ENDCHAR
STARTCHAR 1EE7
ENCODING 7911
SWIDTH 585 0
DWIDTH 13 0
BBX 10 18 2 0
BITMAP
1C00
0E00
0600
1C00
0000
0000
C1C0
C1C0
C1C0
C1C0
C1C0
C1C0
C1C0
C1C0
E1C0
E3C0
FFC0
7DC0
ENDCHAR
STARTCHAR 1EE8
ENCODING 7912
SWIDTH 585 0
DWIDTH 13 0
BBX 15 20 1 0
BITMAP
0380
0700
0E00
0000
E0E6
E0EC
E0FC
E0F8
E0E0
E0E0
E0E0
E0E0
E0E0
E0E0
E0E0
E0E0
70E0
71C0
3FC0
1F80
ENDCHAR
STARTCHAR 1EE9
ENCODING 7913
SWIDTH 585 0
DWIDTH 13 0
BBX 14 16 1 0
BITMAP
0380
0700
0E00
000C
E0CC
E0D8
E0F8
E0E0
E0C0
E0C0
E0C0
E0C0
E0C0
71C0
7FC0
3EC0
ENDCHAR
STARTCHAR 1EEA
ENCODING 7914
SWIDTH 585 0
DWIDTH 13 0
BBX 15 20 1 0
BITMAP
7800
1800
0C00
0000
E0E6
E0EC
E0FC
E0F8
E0E0
E0E0
E0E0
E0E0
E0E0
E0E0
E0E0
E0E0
70E0
71C0
3FC0
1F80
ENDCHAR
STARTCHAR 1EEB
ENCODING 7915
SWIDTH 585 0
DWIDTH 13 0
BBX 14 16 1 0
BITMAP
7800
1800
0C00
000C
E0CC
E0D8
E0F8
E0E0
E0C0
E0C0
E0C0
E0C0
E0C0
71C0
7FC0
3EC0
ENDCHAR
STARTCHAR 1EEC
ENCODING 7916
SWIDTH 585 0
DWIDTH 13 0
BBX 15 21 1 0
BITMAP
0E00
0700
0300
0E00
0000
E0E6
E0EC
E0FC
E0F8
E0E0
E0E0
E0E0
E0E0
E0E0
E0E0
E0E0
E0E0
70E0
71C0
3FC0
1F80
ENDCHAR
STARTCHAR 1EED
ENCODING 7917
SWIDTH 585 0
DWIDTH 13 0
BBX 14 18 1 0
BITMAP
0E00
0700
0300
0E00
0000
000C
E0CC
E0D8
E0F8
E0E0
E0C0
E0C0
E0C0
E0C0
E0C0
71C0
7FC0
3EC0
ENDCHAR
STARTCHAR 1EEE
ENCODING 7918
SWIDTH 585 0
DWIDTH 13 0
BBX 15 21 1 0
BITMAP
0100
3D80
7F80
2000
0000
E0E6
E0EC
E0FC
E0F8
E0E0
E0E0
E0E0
E0E0
E0E0
E0E0
E0E0
E0E0
70E0
71C0
3FC0
1F80
ENDCHAR
STARTCHAR 1EEF
ENCODING 7919
SWIDTH 585 0
DWIDTH 13 0
BBX 14 17 1 0
BITMAP
0100
3D80
7F80
2000
000C
E0CC
E0D8
E0F8
E0E0
E0C0
E0C0
E0C0
E0C0
E0C0
71C0
7FC0
3EC0
ENDCHAR
STARTCHAR 1EF0
ENCODING 7920
SWIDTH 585 0
DWIDTH 13 0
BBX 15 20 1 -4
BITMAP
E0E6
E0EC
E0FC
E0F8
E0E0
E0E0
E0E0
E0E0
E0E0
E0E0
E0E0
E0E0
70E0
71C0
3FC0
1F80
0000
0E00
0E00
0E00
ENDCHAR
STARTCHAR 1EF1
ENCODING 7921
SWIDTH 585 0
DWIDTH 13 0
BBX 14 17 1 -4
BITMAP
000C
E0CC
E0D8
E0F8
E0E0
E0C0
E0C0
E0C0
E0C0
E0C0
71C0
7FC0
3EC0
0000
1C00
1C00
1C00
ENDCHAR
STARTCHAR 1EF2
ENCODING 7922
SWIDTH 585 0
DWIDTH 13 0
BBX 13 20 0 0
BITMAP
3C00
0C00
0600
0000
F038
7070
7070
3860
38E0
1CC0
1DC0
0FC0
0F80
0780
0700
0700
0700
0700
0700
0700
ENDCHAR
STARTCHAR 1EF3
ENCODING 7923
SWIDTH 585 0
DWIDTH 13 0
BBX 12 21 1 -5
BITMAP
3C00
0C00
0600
0000
E070
E070
60E0
70E0
71C0
39C0
3980
1B80
1F00
0F00
0F00
0600
0E00
1C00
7C00
7800
6000
ENDCHAR
STARTCHAR 1EF4
ENCODING 7924
SWIDTH 585 0
DWIDTH 13 0
BBX 13 20 0 -4
BITMAP
F038
7070
7070
3860
38E0
1CC0
1DC0
0FC0
0F80
0780
0700
0700
0700
0700
0700
0700
0000
0700
0700
0700
ENDCHAR
STARTCHAR 1EF5
ENCODING 7925
SWIDTH 585 0
DWIDTH 13 0
BBX 12 17 1 -5
BITMAP
E070
E070
60E0
70E0
71C0
39C0
3980
1B80
1F00
0F00
0F00
0600
0E00
1C00
7DC0
79C0
61C0
ENDCHAR
STARTCHAR 1EF6
ENCODING 7926
SWIDTH 585 0
DWIDTH 13 0
BBX 13 21 0 0
BITMAP
0700
0380
0180
0700
0000
F038
7070
7070
3860
38E0
1CC0
1DC0
0FC0
0F80
0780
0700
0700
0700
0700
0700
0700
ENDCHAR
STARTCHAR 1EF7
ENCODING 7927
SWIDTH 585 0
DWIDTH 13 0
BBX 12 23 1 -5
BITMAP
0E00
0700
0300
0E00
0000
0000
E070
E070
60E0
70E0
71C0
39C0
3980
1B80
1F00
0F00
0F00
0600
0E00
1C00
7C00
7800
6000
ENDCHAR
STARTCHAR 1EF8
ENCODING 7928
SWIDTH 585 0
DWIDTH 13 0
BBX 13 21 0 0
BITMAP
0080
1EC0
3FC0
1000
0000
F038
7070
7070
3860
38E0
1CC0
1DC0
0FC0
0F80
0780
0700
0700
0700
0700
0700
0700
ENDCHAR
STARTCHAR 1EF9
ENCODING 7929
SWIDTH 585 0
DWIDTH 13 0
BBX 12 22 1 -5
BITMAP
0080
1EC0
3FC0
1000
0000
E070
E070
60E0
70E0
71C0
39C0
3980
1B80
1F00
0F00
0F00
0600
0E00
1C00
7C00
7800
6000
ENDCHAR
STARTCHAR 1F4D
ENCODING 8013
SWIDTH 585 0
DWIDTH 13 0
BBX 14 18 -2 0
BITMAP
5800
5800
D1E0
E7F0
0FF8
0E1C
1C1C
1C1C
1C1C
1C1C
1C1C
1C1C
1C1C
1C1C
1C1C
0E38
07F8
03E0
ENDCHAR
STARTCHAR 2000
ENCODING 8192
SWIDTH 585 0
DWIDTH 13 0
BBX 0 0 0 0
BITMAP
ENDCHAR
STARTCHAR 2001
ENCODING 8193
SWIDTH 585 0
DWIDTH 13 0
BBX 0 0 0 0
BITMAP
ENDCHAR
STARTCHAR 2002
ENCODING 8194
SWIDTH 585 0
DWIDTH 13 0
BBX 0 0 0 0
BITMAP
ENDCHAR
STARTCHAR 2003
ENCODING 8195
SWIDTH 585 0
DWIDTH 13 0
BBX 0 0 0 0
BITMAP
ENDCHAR
STARTCHAR 2004
ENCODING 8196
SWIDTH 585 0
DWIDTH 13 0
BBX 0 0 0 0
BITMAP
ENDCHAR
STARTCHAR 2005
ENCODING 8197
SWIDTH 585 0
DWIDTH 13 0
BBX 0 0 0 0
BITMAP
ENDCHAR
STARTCHAR 2006
ENCODING 8198
SWIDTH 585 0
DWIDTH 13 0
BBX 0 0 0 0
BITMAP
ENDCHAR
STARTCHAR 2007
ENCODING 8199
SWIDTH 585 0
DWIDTH 13 0
BBX 0 0 0 0
BITMAP
ENDCHAR
STARTCHAR 2008
ENCODING 8200
SWIDTH 585 0
DWIDTH 13 0
BBX 0 0 0 0
BITMAP
ENDCHAR
STARTCHAR 2009
ENCODING 8201
SWIDTH 585 0
DWIDTH 13 0
BBX 0 0 0 0
BITMAP
ENDCHAR
STARTCHAR 200A
ENCODING 8202
SWIDTH 585 0
DWIDTH 13 0
BBX 0 0 0 0
BITMAP
ENDCHAR
STARTCHAR 200B
ENCODING 8203
SWIDTH 585 0
DWIDTH 13 0
BBX 0 0 0 0
BITMAP
ENDCHAR
STARTCHAR 2013
ENCODING 8211
SWIDTH 585 0
DWIDTH 13 0
BBX 12 2 1 7
BITMAP
FFF0
FFF0
ENDCHAR
STARTCHAR 2014
ENCODING 8212
SWIDTH 585 0
DWIDTH 13 0
BBX 12 2 1 7
BITMAP
FFF0
FFF0
ENDCHAR
STARTCHAR 2015
ENCODING 8213
SWIDTH 585 0
DWIDTH 13 0
BBX 12 2 1 7
BITMAP
FFF0
FFF0
ENDCHAR
STARTCHAR 2017
ENCODING 8215
SWIDTH 585 0
DWIDTH 13 0
BBX 9 5 2 -5
BITMAP
FF80
FF80
0000
FF80
FF80
ENDCHAR
STARTCHAR 2018
ENCODING 8216
SWIDTH 585 0
DWIDTH 13 0
BBX 4 6 5 11
BITMAP
30
60
60
E0
E0
E0
ENDCHAR
STARTCHAR 2019
ENCODING 8217
SWIDTH 585 0
DWIDTH 13 0
BBX 3 6 5 11
BITMAP
60
60
60
60
E0
C0
ENDCHAR
STARTCHAR 201A
ENCODING 8218
SWIDTH 585 0
DWIDTH 13 0
BBX 3 6 5 -3
BITMAP
60
60
60
60
E0
C0
ENDCHAR
STARTCHAR 201B
ENCODING 8219
SWIDTH 585 0
DWIDTH 13 0
BBX 3 6 5 11
BITMAP
C0
C0
C0
C0
60
60
ENDCHAR
STARTCHAR 201C
ENCODING 8220
SWIDTH 585 0
DWIDTH 13 0
BBX 8 6 3 11
BITMAP
33
66
66
EE
EE
EE
ENDCHAR
STARTCHAR 201D
ENCODING 8221
SWIDTH 585 0
DWIDTH 13 0
BBX 7 6 3 11
BITMAP
66
66
66
66
EE
CC
ENDCHAR
STARTCHAR 201E
ENCODING 8222
SWIDTH 585 0
DWIDTH 13 0
BBX 7 6 3 -3
BITMAP
76
76
76
76
6E
EC
ENDCHAR
STARTCHAR 2020
ENCODING 8224
SWIDTH 585 0
DWIDTH 13 0
BBX 11 16 1 0
BITMAP
0E00
0E00
0E00
0E00
FFE0
FFE0
FFE0
0E00
0E00
0E00
0E00
0E00
0E00
0E00
0E00
0E00
ENDCHAR
STARTCHAR 2021
ENCODING 8225
SWIDTH 585 0
DWIDTH 13 0
BBX 11 20 1 -4
BITMAP
0E00
0E00
0E00
0E00
FFE0
FFE0
FFE0
0E00
0E00
0E00
0E00
0E00
0E00
0E00
FFE0
FFE0
0E00
0E00
0E00
0E00
ENDCHAR
STARTCHAR 2022
ENCODING 8226
SWIDTH 585 0
DWIDTH 13 0
BBX 5 6 4 5
BITMAP
70
78
F8
F8
78
20
ENDCHAR
STARTCHAR 2025
ENCODING 8229
SWIDTH 585 0
DWIDTH 13 0
BBX 9 4 3 0
BITMAP
4200
E700
F780
E700
ENDCHAR
STARTCHAR 2026
ENCODING 8230
SWIDTH 585 0
DWIDTH 13 0
BBX 12 4 2 0
BITMAP
4440
EEE0
FFF0
EEE0
ENDCHAR
STARTCHAR 2030
ENCODING 8240
SWIDTH 585 0
DWIDTH 13 0
BBX 12 16 1 0
BITMAP
7000
F800
D800
D880
D9C0
FB00
2600
1C00
3000
6000
DFE0
1BF0
3330
3330
1BB0
1FE0
ENDCHAR
STARTCHAR 2032
ENCODING 8242
SWIDTH 585 0
DWIDTH 13 0
BBX 2 6 5 11
BITMAP
C0
C0
C0
C0
C0
C0
ENDCHAR
STARTCHAR 2033
ENCODING 8243
SWIDTH 585 0
DWIDTH 13 0
BBX 7 6 3 11
BITMAP
CE
CE
CE
CC
CC
CC
ENDCHAR
STARTCHAR 2039
ENCODING 8249
SWIDTH 585 0
DWIDTH 13 0
BBX 5 9 4 1
BITMAP
18
30
70
60
E0
60
30
30
18
ENDCHAR
STARTCHAR 203A
ENCODING 8250
SWIDTH 585 0
DWIDTH 13 0
BBX 5 9 4 1
BITMAP
C0
60
30
38
18
30
70
60
C0
ENDCHAR
STARTCHAR 203C
ENCODING 8252
SWIDTH 585 0
DWIDTH 13 0
BBX 11 16 1 0
BITMAP
E0E0
E0E0
E0E0
E0E0
E0E0
E0E0
E0E0
E0E0
E0E0
E0E0
E0E0
0000
0000
E0E0
E0E0
E0E0
ENDCHAR
STARTCHAR 2044
ENCODING 8260
SWIDTH 585 0
DWIDTH 13 0
BBX 7 11 3 2
BITMAP
06
04
0C
08
18
30
30
60
60
C0
40
ENDCHAR
STARTCHAR 2074
ENCODING 8308
SWIDTH 585 0
DWIDTH 13 0
BBX 8 10 3 6
BITMAP
06
0E
1E
36
26
66
C6
FF
06
06
ENDCHAR
STARTCHAR 207F
ENCODING 8319
SWIDTH 585 0
DWIDTH 13 0
BBX 8 9 3 7
BITMAP
CC
FE
E6
C7
C7
C7
C7
C7
C7
ENDCHAR
STARTCHAR 20A3
ENCODING 8355
SWIDTH 585 0
DWIDTH 13 0
BBX 12 16 0 0
BITMAP
3FF0
3FF0
3FF0
3800
3800
3800
3800
3FE0
3FE0
3800
3800
FF00
FF00
3800
3800
3800
ENDCHAR
STARTCHAR 20A4
ENCODING 8356
SWIDTH 585 0
DWIDTH 13 0
BBX 11 16 1 0
BITMAP
0780
1FC0
3DE0
38E0
3860
3800
3800
FF00
3800
FF00
FF00
3800
3800
3000
FFE0
FFE0
ENDCHAR
STARTCHAR 20A7
ENCODING 8359
SWIDTH 585 0
DWIDTH 13 0
BBX 12 16 1 0
BITMAP
F000
FC00
CCC0
C6C0
C7F0
C7F0
C6C0
CCC0
FCC0
F8C0
C0C0
C0C0
C0C0
C0C0
C0F0
C070
ENDCHAR
STARTCHAR 20AB
ENCODING 8363
SWIDTH 585 0
DWIDTH 13 0
BBX 13 20 1 -3
BITMAP
00E0
00E0
07F8
07F8
00E0
1EE0
3FE0
7BE0
70E0
E0E0
E0E0
E0E0
E0E0
60E0
71E0
7FE0
3EE0
0000
7FC0
7FC0
ENDCHAR
STARTCHAR 20AC
ENCODING 8364
SWIDTH 585 0
DWIDTH 13 0
BBX 11 16 1 0
BITMAP
03E0
0FE0
1E60
1C00
3800
3800
FF80
3800
3800
FF80
3800
3800
1800
1C00
0FE0
07E0
ENDCHAR
STARTCHAR 2105
ENCODING 8453
SWIDTH 585 0
DWIDTH 13 0
BBX 12 16 1 0
BITMAP
7000
F800
D800
C180
C180
DB00
FB00
0600
0600
0DE0
0BE0
1B30
3330
1330
0360
01E0
ENDCHAR
STARTCHAR 2113
ENCODING 8467
SWIDTH 585 0
DWIDTH 13 0
BBX 9 15 2 0
BITMAP
1F00
1F80
3980
3980
3980
3B80
3B00
3E00
FC00
F800
3800
3800
3C00
1E00
0E00
ENDCHAR
STARTCHAR 2116
ENCODING 8470
SWIDTH 585 0
DWIDTH 13 0
BBX 11 16 1 0
BITMAP
C660
E6A0
E6A0
E6A0
E6A0
F6E0
F600
D6E0
DE00
DE00
DE00
CE00
CE00
CE00
C600
C600
ENDCHAR
STARTCHAR 2122
ENCODING 8482
SWIDTH 585 0
DWIDTH 13 0
BBX 11 6 1 10
BITMAP
FE20
2660
2760
27A0
27A0
26A0
ENDCHAR
STARTCHAR 2126
ENCODING 8486
SWIDTH 585 0
DWIDTH 13 0
BBX 11 16 1 0
BITMAP
0F00
3F80
7BC0
70E0
E0E0
E0E0
E0E0
E0E0
E0E0
E0E0
60E0
70C0
31C0
1B80
FBE0
FBE0
ENDCHAR
STARTCHAR 212E
ENCODING 8494
SWIDTH 585 0
DWIDTH 13 0
BBX 11 12 2 0
BITMAP
1E00
3180
40C0
C0C0
C0C0
FFE0
C000
C000
C000
4000
6080
1F00
ENDCHAR
STARTCHAR 215B
ENCODING 8539
SWIDTH 585 0
DWIDTH 13 0
BBX 12 16 1 0
BITMAP
1000
F000
F000
3180
3180
3300
3300
3600
04E0
0DF0
0930
19F0
31F0
1330
01B0
01F0
ENDCHAR
STARTCHAR 215C
ENCODING 8540
SWIDTH 585 0
DWIDTH 13 0
BBX 13 16 0 0
BITMAP
3800
7C00
8C00
3C40
3CC0
0580
ED80
7F00
0370
06F8
0698
0CF8
18F8
0998
00D8
00F8
ENDCHAR
STARTCHAR 215D
ENCODING 8541
SWIDTH 585 0
DWIDTH 13 0
BBX 13 16 0 0
BITMAP
7C00
7C00
4000
78C0
CCC0
0D80
ED00
7B00
0260
07F8
0598
0CF0
18F0
0998
0198
00F0
ENDCHAR
STARTCHAR 215E
ENCODING 8542
SWIDTH 585 0
DWIDTH 13 0
BBX 12 16 1 0
BITMAP
FC00
FC00
0800
1980
1300
3300
6600
6600
0CE0
09F0
1B30
11F0
31F0
1330
03B0
01E0
ENDCHAR
STARTCHAR 2202
ENCODING 8706
SWIDTH 585 0
DWIDTH 13 0
BBX 11 16 1 0
BITMAP
3F00
3F80
01C0
01C0
00E0
1EE0
3FE0
71E0
E0E0
E0E0
E0E0
E0E0
E0C0
71C0
3F80
1F00
ENDCHAR
STARTCHAR 2206
ENCODING 8710
SWIDTH 585 0
DWIDTH 13 0
BBX 14 16 0 0
BITMAP
0380
0780
0780
07C0
0FC0
0FC0
0CC0
1CE0
1CE0
1860
3870
3870
3030
7038
7FF8
FFFC
ENDCHAR
STARTCHAR 220F
ENCODING 8719
SWIDTH 585 0
DWIDTH 13 0
BBX 9 19 2 -3
BITMAP
FF80
FF80
FF80
C180
C180
C180
C180
C180
C180
C180
C180
C180
C180
C180
C180
C180
C180
C180
C180
ENDCHAR
STARTCHAR 2211
ENCODING 8721
SWIDTH 585 0
DWIDTH 13 0
BBX 13 19 0 -3
BITMAP
FFF0
FFF0
7FF0
3800
1C00
1C00
0E00
0700
0380
01C0
0380
0700
0E00
0E00
1C00
3800
7000
FFF8
FFF8
ENDCHAR
STARTCHAR 2212
ENCODING 8722
SWIDTH 585 0
DWIDTH 13 0
BBX 9 2 2 7
BITMAP
FF80
FF80
ENDCHAR
STARTCHAR 2215
ENCODING 8725
SWIDTH 585 0
DWIDTH 13 0
BBX 9 17 2 -1
BITMAP
0380
0380
0300
0700
0700
0600
0E00
0C00
0C00
1C00
1800
1800
3800
3000
7000
7000
E000
ENDCHAR
STARTCHAR 221A
ENCODING 8730
SWIDTH 585 0
DWIDTH 13 0
BBX 12 16 0 0
BITMAP
0030
0070
0060
0060
0060
00E0
00C0
00C0
F9C0
F980
1980
1D80
0F00
0F00
0F00
0600
ENDCHAR
STARTCHAR 221E
ENCODING 8734
SWIDTH 585 0
DWIDTH 13 0
BBX 12 8 1 3
BITMAP
2080
F9E0
DF70
CE30
C630
CE30
FFF0
79E0
ENDCHAR
STARTCHAR 222B
ENCODING 8747
SWIDTH 585 0
DWIDTH 13 0
BBX 8 22 3 -5
BITMAP
0F
1F
3C
38
38
38
38
38
38
38
38
38
38
38
38
38
38
38
38
F0
F0
C0
ENDCHAR
STARTCHAR 2248
ENCODING 8776
SWIDTH 585 0
DWIDTH 13 0
BBX 10 8 2 3
BITMAP
7040
FFC0
8FC0
8300
0000
F840
FFC0
8780
ENDCHAR
STARTCHAR 2260
ENCODING 8800
SWIDTH 585 0
DWIDTH 13 0
BBX 10 10 2 2
BITMAP
0200
0300
FFC0
FFC0
0C00
0800
FFC0
FFC0
FFC0
2000
ENDCHAR
STARTCHAR 2264
ENCODING 8804
SWIDTH 585 0
DWIDTH 13 0
BBX 9 13 2 0
BITMAP
0180
0780
3F00
F800
E000
FC00
1F80
0380
0080
0000
FF80
FF80
FF80
ENDCHAR
STARTCHAR 2265
ENCODING 8805
SWIDTH 585 0
DWIDTH 13 0
BBX 10 13 2 0
BITMAP
C000
F800
7F00
07C0
03C0
3F80
FC00
E000
8000
0000
FF80
FF80
FF80
ENDCHAR
STARTCHAR 25CA
ENCODING 9674
SWIDTH 585 0
DWIDTH 13 0
BBX 11 16 1 0
BITMAP
0E00
0E00
1F00
1B00
3B80
3180
71C0
70E0
E0E0
71C0
31C0
3980
1B80
1F00
0F00
0E00
ENDCHAR
STARTCHAR F6C3
ENCODING 63171
SWIDTH 585 0
DWIDTH 13 0
BBX 3 5 3 -2
BITMAP
60
60
60
C0
40
ENDCHAR
STARTCHAR FEFF
ENCODING 65279
SWIDTH 585 0
DWIDTH 13 0
BBX 0 0 0 0
BITMAP
ENDCHAR
STARTCHAR FFFC
ENCODING 65532
SWIDTH 585 0
DWIDTH 13 0
BBX 11 11 1 0
BITMAP
F7A0
8020
8020
8020
7E40
CE60
3EC0
8020
0000
8020
F7A0
ENDCHAR
STARTCHAR FFFD
ENCODING 65533
SWIDTH 585 0
DWIDTH 13 0
BBX 13 29 0 -6
BITMAP
0200
0000
0000
0000
0000
0000
0200
0700
0700
0F80
0F80
1FC0
3060
3260
7E70
7E78
FC78
7CF0
38E0
3FE0
18C0
18C0
0F80
0700
0700
0200
0200
0000
0200
ENDCHAR
ENDFONT
